<svg width="562" height="148" viewBox="0 0 562 148" fill="none" xmlns="http://www.w3.org/2000/svg">
<path d="M45.528 89V21.8H59.064V48.2H69.432L90.552 21.8H106.968L80.664 54.44L109.176 89H92.376L69.528 60.872H59.064V89H45.528ZM119.424 44.36C123.52 40.264 130.08 38.216 139.104 38.216C148.128 38.216 154.688 40.264 158.784 44.36C162.88 48.456 164.928 55.016 164.928 64.04C164.928 73.128 162.88 79.72 158.784 83.816C154.688 87.848 148.128 89.864 139.104 89.864C130.08 89.864 123.52 87.848 119.424 83.816C115.392 79.72 113.376 73.128 113.376 64.04C113.376 55.016 115.392 48.456 119.424 44.36ZM125.952 64.04C125.952 68.904 126.976 72.456 129.024 74.696C131.136 76.936 134.496 78.056 139.104 78.056C143.712 78.056 147.04 76.936 149.088 74.696C151.2 72.456 152.256 68.904 152.256 64.04C152.256 59.112 151.2 55.56 149.088 53.384C147.04 51.144 143.712 50.024 139.104 50.024C134.496 50.024 131.136 51.144 129.024 53.384C126.976 55.56 125.952 59.112 125.952 64.04ZM175.814 89V39.08H188.486V58.088H211.814V39.08H224.486V89H211.814V69.992H188.486V89H175.814ZM233.323 50.888V39.08H282.475V50.888H264.235V89H251.563V50.888H233.323ZM307.925 89.864C301.461 89.864 296.693 88.648 293.621 86.216C290.613 83.72 289.109 79.752 289.109 74.312C289.109 68.744 290.773 64.776 294.101 62.408C297.429 59.976 302.805 58.76 310.229 58.76H325.205C324.949 55.368 323.893 52.936 322.037 51.464C320.245 49.928 317.429 49.16 313.589 49.16C307.381 49.16 303.733 51.368 302.645 55.784H290.165C290.933 49.64 293.205 45.192 296.981 42.44C300.757 39.624 306.453 38.216 314.069 38.216C322.389 38.216 328.437 39.944 332.213 43.4C335.989 46.792 337.877 52.296 337.877 59.912V89H325.205V84.296C321.557 88.008 315.797 89.864 307.925 89.864ZM301.781 73.736C301.781 77.192 304.885 78.92 311.093 78.92C315.445 78.92 318.709 78.152 320.885 76.616C323.125 75.016 324.565 72.552 325.205 69.224V68.072H313.589C305.717 68.072 301.781 69.96 301.781 73.736ZM350.793 89V39.08H363.465V57.704H370.473L384.681 39.08H400.137L381.129 63.464L401.481 89H385.929L370.473 69.512H363.465V89H350.793ZM406.145 50.888V39.08H455.297V50.888H437.057V89H424.385V50.888H406.145ZM489.477 89H464.133V39.08H476.805V52.808H489.381C496.549 52.808 501.733 54.248 504.933 57.128C508.133 60.008 509.733 64.616 509.733 70.952C509.733 77.224 508.133 81.8 504.933 84.68C501.733 87.56 496.581 89 489.477 89ZM517.413 89V39.08H530.085V89H517.413ZM488.229 64.616H476.805V77.192H488.325C491.397 77.192 493.637 76.712 495.045 75.752C496.453 74.728 497.157 73.128 497.157 70.952C497.157 68.712 496.453 67.112 495.045 66.152C493.637 65.128 491.365 64.616 488.229 64.616Z" fill="white"/>
<path d="M547 6L550.818 17.1816L562 21L550.818 24.8184L547 36L543.182 24.8184L532 21L543.182 17.1816L547 6Z" fill="url(#paint0_radial_1_762)"/>
<path d="M15 116L11.1816 104.818L0 101L11.1816 97.1816L15 86L18.8184 97.1816L30 101L18.8184 104.818L15 116Z" fill="url(#paint1_radial_1_762)"/>
<g opacity="0.5">
<path d="M51 148L48.9635 142.036L43 140L48.9635 137.964L51 132L53.0365 137.964L59 140L53.0365 142.036L51 148Z" fill="url(#paint2_radial_1_762)"/>
</g>
<defs>
<radialGradient id="paint0_radial_1_762" cx="0" cy="0" r="1" gradientUnits="userSpaceOnUse" gradientTransform="translate(547 21) rotate(90) scale(15)">
<stop stop-color="#7258FE"/>
<stop offset="1" stop-color="#02896D"/>
</radialGradient>
<radialGradient id="paint1_radial_1_762" cx="0" cy="0" r="1" gradientUnits="userSpaceOnUse" gradientTransform="translate(15 101) rotate(-90) scale(15)">
<stop stop-color="#7258FE"/>
<stop offset="1" stop-color="#0F826A"/>
</radialGradient>
<radialGradient id="paint2_radial_1_762" cx="0" cy="0" r="1" gradientUnits="userSpaceOnUse" gradientTransform="translate(51 140) rotate(-90) scale(8)">
<stop stop-color="#7258FE"/>
<stop offset="1" stop-color="#05B691"/>
</radialGradient>
</defs>
</svg>
