<svg width="1920" height="1053" viewBox="0 0 1920 1053" fill="none" xmlns="http://www.w3.org/2000/svg">
<g clip-path="url(#clip0_1_11)">
<rect width="1920" height="4905" transform="translate(0 -1071)" fill="#161617"/>
<path d="M134.875 104.25C137.642 104.25 139.642 104.967 140.875 106.4C142.125 107.817 142.75 110.1 142.75 113.25C142.75 116.4 142.125 118.692 140.875 120.125C139.642 121.542 137.642 122.25 134.875 122.25C132.125 122.25 130.125 121.542 128.875 120.125C127.625 118.692 127 116.4 127 113.25C127 110.1 127.625 107.817 128.875 106.4C130.125 104.967 132.125 104.25 134.875 104.25ZM130.75 113.25C130.75 115.15 131.083 116.542 131.75 117.425C132.417 118.308 133.458 118.75 134.875 118.75C136.342 118.75 137.392 118.317 138.025 117.45C138.675 116.583 139 115.183 139 113.25C139 111.3 138.675 109.9 138.025 109.05C137.392 108.183 136.342 107.75 134.875 107.75C133.458 107.75 132.417 108.192 131.75 109.075C131.083 109.942 130.75 111.333 130.75 113.25ZM151.599 104.25C154.032 104.25 155.807 104.7 156.924 105.6C158.057 106.483 158.624 107.917 158.624 109.9C158.624 111.217 158.357 112.267 157.824 113.05C157.291 113.833 156.457 114.4 155.324 114.75L149.874 116.425C149.407 116.558 149.074 116.767 148.874 117.05C148.674 117.317 148.574 117.708 148.574 118.225V118.5H158.474V122H144.824V118.65C144.824 115.75 145.924 113.967 148.124 113.3L153.649 111.6C154.466 111.35 154.874 110.808 154.874 109.975C154.874 109.208 154.599 108.65 154.049 108.3C153.516 107.933 152.666 107.75 151.499 107.75C149.332 107.75 148.249 108.458 148.249 109.875H144.499C144.499 107.908 145.066 106.483 146.199 105.6C147.332 104.7 149.132 104.25 151.599 104.25Z" fill="url(#paint0_linear_1_11)"/>
<path d="M-343.886 1678.27C90.915 1968.03 469.462 1399.72 783.557 1379.03C1236.22 1349.22 1356.62 1884.65 1577.63 1644.14C1798.63 1403.63 2006.6 1193.8 2219.21 1576.82C2431.82 1959.84 2618.53 1755.9 2618.53 1755.9" stroke="white" stroke-opacity="0.1" stroke-width="0.6482" stroke-miterlimit="10"/>
<path d="M2618.11 1746.07C2614.28 1744.57 2420.83 1955.62 2207.95 1581.09C1995.06 1206.56 1793.1 1396.05 1571.47 1632.11C1349.21 1868.27 1228.43 1362.3 772.643 1390.94C457.086 1410.88 84.1127 1947.86 -342.862 1661.08" stroke="white" stroke-opacity="0.1" stroke-width="0.6553" stroke-miterlimit="10"/>
<path d="M2617.65 1736.3C2609.99 1733.29 2409.77 1951.44 2196.63 1585.41C1983.5 1219.38 1787.55 1388.52 1565.26 1620.13C1341.75 1851.93 1220.62 1375.41 761.683 1402.91C444.701 1422.07 77.2906 1927.65 -341.81 1643.91" stroke="white" stroke-opacity="0.1" stroke-width="0.6623" stroke-miterlimit="10"/>
<path d="M2617.23 1726.5C2605.73 1722 2398.77 1947.25 2185.36 1589.71C1971.94 1232.17 1782.01 1380.97 1559.05 1608.15C1334.26 1835.59 1212.82 1388.54 750.723 1414.87C432.325 1433.23 70.4882 1907.48 -340.777 1626.7" stroke="white" stroke-opacity="0.1" stroke-width="0.6694" stroke-miterlimit="10"/>
<path d="M2616.78 1716.69C2601.48 1710.7 2387.72 1943.03 2174.06 1593.99C1960.39 1244.96 1776.97 1373.94 1552.85 1596.14C1327.31 1819.73 1205.05 1401.63 739.763 1426.84C419.941 1444.42 63.6574 1887.3 -339.725 1609.52" stroke="white" stroke-opacity="0.1" stroke-width="0.6764" stroke-miterlimit="10"/>
<path d="M2616.32 1706.91C2597.19 1699.39 2376.69 1938.86 2162.74 1598.31C1948.84 1257.74 1771.52 1366.51 1546.64 1584.16C1319.97 1803.52 1197.24 1414.76 728.811 1438.77C407.565 1455.58 56.8638 1867.1 -338.672 1592.35" stroke="white" stroke-opacity="0.1" stroke-width="0.6835" stroke-miterlimit="10"/>
<path d="M2615.9 1697.12C2592.94 1688.1 2365.66 1934.66 2151.47 1602.61C1937.29 1270.53 1766.09 1359.08 1540.44 1572.15C1312.61 1787.28 1189.45 1427.84 717.859 1450.71C395.181 1466.77 50.0329 1846.92 -337.64 1575.13" stroke="white" stroke-opacity="0.1" stroke-width="0.6905" stroke-miterlimit="10"/>
<path d="M2615.44 1687.31C2588.65 1676.79 2354.64 1930.46 2140.18 1606.87C1925.72 1283.28 1760.64 1351.65 1534.25 1560.14C1305.25 1771.04 1181.65 1440.94 706.908 1462.65C382.796 1477.97 43.2395 1826.72 -336.588 1557.96" stroke="white" stroke-opacity="0.1" stroke-width="0.6976" stroke-miterlimit="10"/>
<path d="M2614.99 1677.51C2584.37 1665.48 2343.58 1926.25 2128.87 1611.16C1914.15 1296.1 1755.16 1344.2 1528.04 1548.16C1297.88 1754.83 1173.85 1454.05 695.948 1474.61C370.391 1489.12 36.4085 1806.54 -335.564 1540.77" stroke="white" stroke-opacity="0.1" stroke-width="0.7046" stroke-miterlimit="10"/>
<path d="M2614.56 1667.74C2580.1 1654.21 2332.58 1922.08 2117.59 1615.48C1902.6 1308.88 1749.7 1336.8 1521.84 1536.15C1290.51 1738.59 1166.06 1467.13 684.996 1486.55C358.007 1500.31 29.6148 1786.34 -334.503 1523.57" stroke="white" stroke-opacity="0.1" stroke-width="0.7117" stroke-miterlimit="10"/>
<path d="M2614.11 1657.93C2575.82 1642.91 2321.52 1917.87 2106.29 1619.77C1891.05 1321.67 1744.22 1329.36 1515.64 1524.14C1283.12 1722.34 1158.25 1480.23 674.065 1498.52C345.66 1511.48 22.8126 1766.17 -333.45 1506.39" stroke="white" stroke-opacity="0.1" stroke-width="0.7187" stroke-miterlimit="10"/>
<path d="M2613.66 1648.13C2571.56 1631.61 2310.5 1913.67 2094.98 1624.06C1879.5 1334.46 1738.74 1321.91 1509.43 1512.16C1275.73 1706.09 1150.48 1493.35 663.113 1510.46C333.247 1522.66 15.9818 1745.99 -332.426 1489.21" stroke="white" stroke-opacity="0.1" stroke-width="0.7257" stroke-miterlimit="10"/>
<path d="M2613.24 1638.33C2567.31 1620.31 2299.47 1909.47 2083.71 1628.36C1867.94 1347.25 1733.23 1314.46 1503.23 1500.15C1268.31 1689.84 1142.65 1506.44 652.133 1522.38C320.871 1533.83 9.18823 1725.79 -331.365 1472" stroke="white" stroke-opacity="0.1" stroke-width="0.7328" stroke-miterlimit="10"/>
<path d="M2612.78 1628.55C2563.03 1609.01 2288.44 1905.29 2072.4 1632.67C1856.35 1360.06 1727.72 1307.01 1497.03 1488.17C1260.91 1673.61 1134.85 1519.55 641.173 1534.35C308.486 1545.02 2.35734 1705.61 -330.342 1454.82" stroke="white" stroke-opacity="0.1" stroke-width="0.7398" stroke-miterlimit="10"/>
<path d="M2612.35 1618.75C2558.77 1597.71 2277.41 1901.09 2061.12 1636.97C1844.81 1372.81 1722.21 1299.56 1490.86 1476.17C1253.53 1657.34 1127.11 1532.67 630.25 1546.29C296.11 1556.18 -4.43626 1685.41 -329.289 1437.64" stroke="white" stroke-opacity="0.1" stroke-width="0.7469" stroke-miterlimit="10"/>
<path d="M2611.9 1608.95C2554.49 1586.4 2266.38 1896.92 2049.82 1641.26C1833.26 1385.6 1716.71 1292.08 1484.66 1464.16C1246.08 1641.07 1119.28 1545.77 619.29 1558.26C283.726 1567.37 -11.2671 1665.23 -328.228 1420.44" stroke="white" stroke-opacity="0.1" stroke-width="0.7539" stroke-miterlimit="10"/>
<path d="M2611.44 1599.17C2550.19 1575.12 2255.32 1892.73 2038.52 1645.55C1821.71 1398.36 1711.17 1284.62 1478.45 1452.18C1238.66 1624.81 1111.51 1558.88 608.367 1570.2C271.35 1578.53 -18.032 1645.04 -327.175 1403.26" stroke="white" stroke-opacity="0.1" stroke-width="0.761" stroke-miterlimit="10"/>
<path d="M2611.02 1589.37C2545.94 1563.83 2244.29 1888.53 2027.24 1649.84C1810.15 1411.18 1705.67 1277.14 1472.25 1440.17C1231.21 1608.55 1103.71 1571.96 597.415 1582.14C258.937 1589.72 -24.8916 1624.85 -326.152 1386.08" stroke="white" stroke-opacity="0.1" stroke-width="0.768" stroke-miterlimit="10"/>
<path d="M2610.57 1579.57C2541.65 1552.52 2233.27 1884.33 2015.94 1654.13C1798.6 1423.96 1700.1 1269.67 1466.05 1428.16C1223.77 1592.25 1095.91 1585.07 586.464 1594.08C246.589 1600.89 -31.6851 1604.65 -325.091 1368.88" stroke="white" stroke-opacity="0.1" stroke-width="0.7751" stroke-miterlimit="10"/>
<path d="M2610.12 1569.76C2537.4 1541.22 2222.21 1880.12 2004.63 1658.42C1787.03 1436.71 1694.54 1262.17 1459.85 1416.16C1216.31 1575.95 1088.12 1598.14 575.512 1606.01C234.185 1612.04 -38.4788 1584.46 -324.058 1351.66" stroke="white" stroke-opacity="0.1" stroke-width="0.7821" stroke-miterlimit="10"/>
<path d="M2609.68 1559.99C2533.13 1529.95 2211.21 1875.95 1993.35 1662.75C1775.47 1449.53 1688.99 1254.68 1453.64 1404.18C1208.83 1559.67 1080.31 1611.28 564.544 1618.01C221.792 1623.26 -45.3183 1564.3 -323.014 1334.52" stroke="white" stroke-opacity="0.1" stroke-width="0.7892" stroke-miterlimit="10"/>
<path d="M2609.23 1550.19C2528.86 1518.62 2200.15 1871.74 1982.05 1667.04C1763.91 1462.32 1683.43 1247.18 1447.44 1392.19C1201.36 1543.37 1072.51 1624.38 553.592 1629.94C209.416 1634.42 -52.1406 1544.1 -321.991 1317.33" stroke="white" stroke-opacity="0.1" stroke-width="0.7962" stroke-miterlimit="10"/>
<path d="M2608.78 1540.38C2524.6 1507.35 2189.13 1867.54 1970.74 1671.32C1752.36 1475.11 1677.87 1239.68 1441.24 1380.19C1193.89 1527.06 1064.72 1637.46 542.64 1641.88C197.04 1645.58 -58.9428 1523.92 -320.929 1300.13" stroke="white" stroke-opacity="0.1" stroke-width="0.8033" stroke-miterlimit="10"/>
<path d="M2608.35 1530.61C2520.31 1496.04 2178.09 1863.37 1959.43 1675.64C1740.78 1487.89 1672.29 1232.15 1435.04 1368.18C1186.4 1510.72 1056.92 1650.57 531.689 1653.81C184.636 1656.74 -65.7649 1503.72 -319.897 1282.91" stroke="white" stroke-opacity="0.1" stroke-width="0.8103" stroke-miterlimit="10"/>
<path d="M2607.9 1520.81C2516.03 1484.74 2167.07 1859.17 1948.13 1679.93C1729.23 1500.67 1666.7 1224.64 1428.83 1356.2C1178.91 1494.41 1049.14 1663.68 520.729 1665.78C172.242 1667.96 -72.5673 1483.55 -318.845 1265.74" stroke="white" stroke-opacity="0.1" stroke-width="0.8173" stroke-miterlimit="10"/>
<path d="M2607.48 1511.01C2511.77 1473.44 2156.04 1854.96 1936.86 1684.2C1717.68 1513.46 1661.13 1217.11 1422.63 1344.19C1171.42 1478.07 1041.34 1676.79 509.777 1677.72C159.866 1679.12 -79.3694 1463.37 -317.792 1248.56" stroke="white" stroke-opacity="0.1" stroke-width="0.8244" stroke-miterlimit="10"/>
<path d="M2607.03 1501.2C2507.49 1462.13 2145.02 1850.76 1925.55 1688.51C1706.12 1526.25 1655.53 1209.53 1416.42 1332.21C1163.92 1461.76 1033.54 1689.89 498.817 1689.68C147.482 1690.31 -86.2003 1443.19 -316.768 1231.38" stroke="white" stroke-opacity="0.1" stroke-width="0.8314" stroke-miterlimit="10"/>
<path d="M2606.57 1491.43C2503.22 1450.86 2133.96 1846.58 1914.25 1692.8C1694.57 1539.04 1649.92 1201.99 1410.23 1320.2C1156.41 1445.38 1025.74 1703 487.866 1701.62C135.077 1701.46 -93.0226 1422.99 -315.736 1214.17" stroke="white" stroke-opacity="0.1" stroke-width="0.8385" stroke-miterlimit="10"/>
<path d="M2606.14 1481.63C2498.98 1439.54 2122.93 1842.38 1902.97 1697.1C1683.02 1551.82 1644.32 1194.42 1404.05 1308.2C1148.93 1429.01 1017.98 1716.08 476.943 1713.56C122.722 1712.66 -99.8247 1402.82 -314.655 1197" stroke="white" stroke-opacity="0.1" stroke-width="0.8455" stroke-miterlimit="10"/>
<path d="M2605.69 1471.82C2494.68 1428.26 2111.9 1838.17 1891.67 1701.39C1671.44 1564.6 1638.73 1186.85 1397.85 1296.22C1141.42 1412.63 1010.17 1729.22 465.983 1725.53C110.346 1723.83 -106.618 1382.62 -313.631 1179.81" stroke="white" stroke-opacity="0.1" stroke-width="0.8526" stroke-miterlimit="10"/>
<path d="M2605.24 1462.02C2490.41 1416.92 2100.88 1833.97 1880.37 1705.68C1659.89 1577.39 1633.11 1179.24 1391.62 1284.2C1133.86 1396.24 1002.35 1742.29 455.002 1737.45C97.961 1735.02 -113.449 1362.44 -312.578 1162.64" stroke="white" stroke-opacity="0.1" stroke-width="0.8596" stroke-miterlimit="10"/>
<path d="M2604.81 1452.25C2486.15 1405.66 2089.85 1829.8 1869.09 1709.97C1648.33 1590.18 1627.52 1171.64 1385.45 1272.2C1126.36 1379.83 994.574 1755.4 444.071 1749.43C85.5852 1746.18 -120.243 1342.24 -311.546 1145.43" stroke="white" stroke-opacity="0.1" stroke-width="0.8667" stroke-miterlimit="10"/>
<path d="M2604.36 1442.44C2481.86 1394.35 2078.79 1825.59 1857.78 1714.29C1636.78 1602.97 1621.89 1164.06 1379.24 1260.22C1118.83 1363.41 986.773 1768.51 433.119 1761.36C73.172 1757.36 -127.074 1322.06 -310.494 1128.25" stroke="white" stroke-opacity="0.1" stroke-width="0.8737" stroke-miterlimit="10"/>
<path d="M2603.91 1432.64C2477.61 1383.05 2067.77 1821.39 1846.48 1718.58C1625.23 1615.75 1616.28 1156.42 1373.04 1248.21C1111.3 1347 978.972 1781.61 422.159 1773.33C60.7875 1768.55 -133.867 1301.86 -309.441 1111.07" stroke="white" stroke-opacity="0.1" stroke-width="0.8808" stroke-miterlimit="10"/>
<path d="M2603.47 1422.87C2473.34 1371.78 2056.73 1817.21 1835.2 1722.88C1613.65 1628.53 1610.67 1148.78 1366.83 1236.23C1103.78 1330.55 971.171 1794.72 411.208 1785.27C48.4115 1779.72 -140.698 1281.68 -308.409 1093.86" stroke="white" stroke-opacity="0.1" stroke-width="0.8878" stroke-miterlimit="10"/>
<path d="M2603.02 1413.06C2469.06 1360.48 2045.71 1813.01 1823.9 1727.16C1602.09 1641.32 1605.03 1141.13 1360.64 1224.22C1096.24 1314.07 963.407 1807.8 400.285 1797.21C36.0269 1790.91 -147.5 1261.51 -307.356 1076.69" stroke="white" stroke-opacity="0.1" stroke-width="0.8949" stroke-miterlimit="10"/>
<path d="M2602.57 1403.26C2464.77 1349.17 2034.65 1808.8 1812.6 1731.45C1590.54 1654.11 1599.42 1133.5 1354.44 1212.21C1088.73 1297.6 955.606 1820.91 389.333 1809.15C23.6512 1802.07 -154.323 1241.3 -306.332 1059.5" stroke="white" stroke-opacity="0.1" stroke-width="0.9019" stroke-miterlimit="10"/>
<path d="M2602.15 1393.46C2460.52 1337.87 2023.66 1804.61 1801.32 1735.75C1578.99 1666.9 1593.8 1125.79 1348.24 1200.2C1081.19 1281.12 947.814 1833.99 378.382 1821.08C11.2666 1813.26 -161.125 1221.13 -305.271 1042.3" stroke="white" stroke-opacity="0.1" stroke-width="0.9089" stroke-miterlimit="10"/>
<path d="M2601.69 1383.68C2456.23 1326.57 2012.59 1800.42 1790.01 1740.07C1567.43 1679.71 1588.19 1118.15 1342.03 1188.22C1073.65 1264.63 940.004 1847.12 367.422 1833.05C-1.10916 1824.42 -167.918 1200.93 -304.219 1025.12" stroke="white" stroke-opacity="0.1" stroke-width="0.916" stroke-miterlimit="10"/>
<path d="M2601.27 1373.89C2451.98 1315.27 2001.57 1796.22 1778.71 1744.36C1555.85 1692.49 1582.57 1110.45 1335.82 1176.24C1066.11 1248.15 932.203 1860.23 356.461 1845.01C-13.4938 1835.61 -174.749 1180.75 -303.195 1007.94" stroke="white" stroke-opacity="0.1" stroke-width="0.923" stroke-miterlimit="10"/>
<path d="M2600.82 1364.08C2447.72 1303.97 1990.54 1792.02 1767.43 1748.65C1544.32 1705.29 1576.98 1102.75 1329.65 1164.24C1058.62 1231.62 924.431 1873.34 345.539 1856.96C-25.8983 1846.77 -181.551 1160.58 -302.134 990.733" stroke="white" stroke-opacity="0.1" stroke-width="0.9301" stroke-miterlimit="10"/>
<path d="M2600.36 1354.27C2443.44 1292.66 1979.52 1787.82 1756.13 1752.94C1532.74 1718.07 1571.37 1095.02 1323.42 1152.22C1051.08 1215.04 916.61 1886.41 334.558 1868.88C-38.2828 1857.96 -188.374 1140.37 -301.11 973.549" stroke="white" stroke-opacity="0.1" stroke-width="0.9371" stroke-miterlimit="10"/>
<path d="M2599.93 1344.51C2439.18 1281.4 1968.49 1783.64 1744.85 1757.27C1521.19 1730.85 1565.76 1087.29 1317.22 1140.24C1043.55 1198.53 908.809 1899.51 323.598 1880.85C-50.6588 1869.12 -195.176 1120.2 -300.058 956.374" stroke="white" stroke-opacity="0.1" stroke-width="0.9442" stroke-miterlimit="10"/>
<path d="M2599.48 1334.7C2434.89 1270.09 1957.46 1779.44 1733.55 1761.53C1509.64 1743.64 1560.14 1079.56 1311.05 1128.24C1036.06 1181.97 901.037 1912.63 312.675 1892.79C-63.0432 1880.31 -201.998 1099.99 -298.997 939.169" stroke="white" stroke-opacity="0.1" stroke-width="0.9512" stroke-miterlimit="10"/>
<path d="M2599.03 1324.89C2430.64 1258.79 1946.43 1775.24 1722.24 1765.84C1498.09 1756.43 1554.47 1071.4 1304.84 1116.26C1028.47 1164.94 893.236 1925.73 301.715 1904.76C-75.4278 1891.5 -208.8 1079.82 -297.973 921.985" stroke="white" stroke-opacity="0.1" stroke-width="0.9583" stroke-miterlimit="10"/>
<path d="M2598.6 1315.13C2426.35 1247.49 1935.4 1771.07 1710.97 1770.14C1486.53 1769.22 1548.93 1063.84 1298.64 1104.25C1021.02 1148.55 885.463 1938.85 290.764 1916.7C-87.8036 1902.66 -215.631 1059.64 -296.92 904.809" stroke="white" stroke-opacity="0.1" stroke-width="0.9653" stroke-miterlimit="10"/>
<path d="M2598.15 1305.32C2422.07 1236.18 1924.35 1766.85 1699.66 1774.43C1474.98 1782 1543.39 1056.29 1292.44 1092.24C1013.57 1132.19 877.671 1951.93 279.812 1928.63C-100.188 1913.85 -222.425 1039.44 -295.888 887.596" stroke="white" stroke-opacity="0.1" stroke-width="0.9724" stroke-miterlimit="10"/>
<path d="M3139.93 688.249C2614.18 1082.28 2099.61 395.211 1703.89 391.136C1133.62 385.264 1019.58 1065.84 725.477 779.268C431.401 492.73 155.771 243.823 -84.5507 739.451C-324.873 1235.08 -573.37 992.074 -573.37 992.074" stroke="white" stroke-opacity="0.1" stroke-width="0.6687" stroke-miterlimit="10"/>
<path d="M-573.46 983.355C-570.136 981.827 -315.29 1230.85 -74.3088 742.716C166.672 254.608 435.952 485.75 730.418 768.302C1025.42 1050.92 1141.23 396.499 1714.23 401.202C2111.17 404.528 2619.27 1064.04 3138.16 673.03" stroke="white" stroke-opacity="0.1" stroke-width="0.6738" stroke-miterlimit="10"/>
<path d="M-573.55 974.637C-566.902 971.581 -305.707 1226.57 -64.067 745.982C177.573 265.394 440.504 478.769 735.329 757.337C1031.23 1035.99 1148.77 407.764 1724.53 411.269C2122.7 413.846 2624.3 1045.76 3136.39 657.78" stroke="white" stroke-opacity="0.1" stroke-width="0.679" stroke-miterlimit="10"/>
<path d="M-573.64 965.919C-563.667 961.335 -296.094 1222.32 -53.8253 749.248C188.443 276.179 445.056 471.788 740.24 746.372C1037.04 1021.1 1156.35 419.029 1734.86 421.336C2134.26 423.133 2629.4 1027.46 3134.63 642.56" stroke="white" stroke-opacity="0.1" stroke-width="0.6841" stroke-miterlimit="10"/>
<path d="M-573.729 957.17C-560.433 951.088 -286.511 1218 -43.5835 752.484C199.344 286.965 449.608 464.778 745.152 735.406C1042.88 1006.21 1163.9 430.264 1745.16 431.432C2145.82 432.481 2634.43 1009.21 3132.83 627.371" stroke="white" stroke-opacity="0.1" stroke-width="0.6893" stroke-miterlimit="10"/>
<path d="M-573.819 948.452C-557.199 940.842 -276.928 1213.75 -33.3418 755.749C210.244 297.751 453.621 458.426 750.063 724.441C1048.12 991.924 1171.44 441.529 1755.46 441.499C2157.35 441.798 2639.49 990.935 3131.06 612.151" stroke="white" stroke-opacity="0.1" stroke-width="0.6944" stroke-miterlimit="10"/>
<path d="M-573.909 939.734C-553.935 930.596 -267.345 1209.49 -23.1 759.015C221.145 308.536 458.083 451.565 755.004 713.476C1053.87 977.124 1179.05 452.794 1765.79 451.565C2168.91 451.116 2644.55 972.66 3129.3 596.901" stroke="white" stroke-opacity="0.1" stroke-width="0.6996" stroke-miterlimit="10"/>
<path d="M-573.999 931.015C-550.7 920.349 -257.732 1205.21 -12.8583 762.28C232.016 319.352 462.545 444.704 759.915 702.51C1059.59 962.353 1186.6 464.029 1776.1 461.632C2180.44 460.404 2649.61 954.384 3127.53 581.682" stroke="white" stroke-opacity="0.1" stroke-width="0.7047" stroke-miterlimit="10"/>
<path d="M-574.089 922.297C-547.466 910.103 -248.149 1200.95 -2.61647 765.546C242.916 330.137 467.037 437.844 764.827 691.545C1065.34 947.583 1194.17 475.294 1786.43 471.728C2192.03 469.751 2654.7 936.138 3125.76 566.492" stroke="white" stroke-opacity="0.1" stroke-width="0.7099" stroke-miterlimit="10"/>
<path d="M-574.149 913.578C-544.202 899.857 -238.536 1196.7 7.65514 768.812C253.847 340.923 471.529 430.983 769.768 680.609C1071.09 932.813 1201.75 486.588 1796.73 481.825C2203.55 479.098 2659.73 917.893 3123.99 551.272" stroke="white" stroke-opacity="0.1" stroke-width="0.715" stroke-miterlimit="10"/>
<path d="M-574.239 904.83C-540.968 889.58 -228.924 1192.39 17.8969 772.047C264.747 351.709 476.021 424.092 774.679 669.614C1076.84 918.012 1209.33 497.794 1807.06 491.861C2215.11 488.386 2664.82 899.587 3122.23 536.022" stroke="white" stroke-opacity="0.1" stroke-width="0.7201" stroke-miterlimit="10"/>
<path d="M-574.328 896.112C-537.734 879.334 -219.341 1188.13 28.1386 775.313C275.618 362.494 480.513 417.231 779.59 658.649C1082.56 903.212 1216.87 509.059 1817.36 501.958C2226.64 497.734 2669.85 881.341 3120.46 520.833" stroke="white" stroke-opacity="0.1" stroke-width="0.7253" stroke-miterlimit="10"/>
<path d="M-574.418 887.393C-534.499 869.118 -209.758 1183.85 38.3805 778.579C286.519 373.28 484.975 410.34 784.532 647.683C1088.34 888.412 1224.45 520.323 1827.69 512.025C2238.2 507.021 2674.94 863.036 3118.69 505.613" stroke="white" stroke-opacity="0.1" stroke-width="0.7304" stroke-miterlimit="10"/>
<path d="M-574.508 878.675C-531.265 858.871 -200.145 1179.59 48.6222 781.844C297.389 384.095 489.497 403.479 789.443 636.748C1094.09 873.672 1232.02 531.588 1838 522.121C2249.76 516.369 2679.98 844.79 3116.9 490.393" stroke="white" stroke-opacity="0.1" stroke-width="0.7356" stroke-miterlimit="10"/>
<path d="M-574.598 869.957C-528.031 848.625 -190.562 1175.34 58.864 785.11C308.29 394.881 493.989 396.619 794.354 625.783C1099.87 858.871 1239.57 542.853 1848.3 532.188C2261.29 525.686 2685.04 826.515 3115.13 475.174" stroke="white" stroke-opacity="0.1" stroke-width="0.7407" stroke-miterlimit="10"/>
<path d="M-574.688 861.208C-524.796 838.349 -180.979 1171.02 69.1058 788.346C319.19 405.667 498.481 389.698 799.265 614.787C1105.62 844.041 1247.15 554.088 1858.6 542.254C2272.82 535.004 2690.1 808.239 3113.33 459.954" stroke="white" stroke-opacity="0.1" stroke-width="0.7459" stroke-miterlimit="10"/>
<path d="M-574.777 852.49C-521.562 828.103 -171.396 1166.77 79.3476 791.611C330.091 416.452 503.003 382.807 804.177 603.822C1111.37 829.241 1254.69 565.323 1868.93 552.321C2284.38 544.291 2695.16 789.963 3111.6 444.734" stroke="white" stroke-opacity="0.1" stroke-width="0.751" stroke-miterlimit="10"/>
<path d="M-574.867 843.772C-518.328 817.856 -161.783 1162.52 89.5892 794.877C340.962 427.238 507.495 375.946 809.088 592.857C1117.15 814.441 1262.24 576.588 1879.23 562.387C2295.94 553.609 2700.22 771.688 3109.8 429.485" stroke="white" stroke-opacity="0.1" stroke-width="0.7562" stroke-miterlimit="10"/>
<path d="M-574.957 835.053C-515.094 807.61 -152.2 1158.23 99.831 798.142C351.862 438.053 512.017 369.055 814.029 581.921C1122.96 799.67 1269.85 587.883 1889.56 572.484C2307.5 562.957 2705.28 753.442 3108.06 414.295" stroke="white" stroke-opacity="0.1" stroke-width="0.7613" stroke-miterlimit="10"/>
<path d="M-575.017 826.335C-511.8 797.394 -142.587 1153.98 110.103 801.408C362.793 448.839 516.569 362.165 818.97 570.956C1128.77 784.87 1277.42 599.148 1899.9 582.58C2319.06 572.304 2710.37 735.197 3106.3 399.105" stroke="white" stroke-opacity="0.1" stroke-width="0.7664" stroke-miterlimit="10"/>
<path d="M-575.107 817.616C-508.565 787.147 -132.974 1149.69 120.344 804.674C373.693 459.625 521.121 355.274 823.881 559.99C1134.55 770.04 1285 610.383 1910.2 592.647C2330.59 581.592 2715.4 716.921 3104.53 383.886" stroke="white" stroke-opacity="0.1" stroke-width="0.7716" stroke-miterlimit="10"/>
<path d="M-575.197 808.868C-505.331 776.871 -123.391 1145.41 130.586 807.91C384.564 470.41 525.643 348.353 828.793 548.995C1140.36 755.21 1292.55 621.618 1920.5 602.684C2342.15 590.879 2720.46 698.585 3102.73 368.606" stroke="white" stroke-opacity="0.1" stroke-width="0.7767" stroke-miterlimit="10"/>
<path d="M-575.287 800.15C-502.097 766.625 -113.808 1141.15 140.828 811.175C395.465 481.196 530.195 341.462 833.704 538.06C1146.14 740.41 1300.09 632.913 1930.83 612.78C2353.71 600.227 2725.55 680.34 3100.97 353.416" stroke="white" stroke-opacity="0.1" stroke-width="0.7819" stroke-miterlimit="10"/>
<path d="M-575.376 791.431C-498.863 756.378 -104.196 1136.87 151.07 814.441C406.335 492.011 534.717 334.541 838.615 527.094C1151.95 725.609 1307.67 644.148 1941.13 622.876C2365.24 609.574 2730.59 662.094 3099.2 338.227" stroke="white" stroke-opacity="0.1" stroke-width="0.787" stroke-miterlimit="10"/>
<path d="M-575.466 782.713C-495.628 746.132 -94.6127 1132.62 161.312 817.706C417.236 502.797 539.268 327.621 843.556 516.099C1157.79 710.749 1315.25 655.383 1951.46 632.913C2376.8 618.832 2735.68 643.789 3097.43 322.947" stroke="white" stroke-opacity="0.1" stroke-width="0.7922" stroke-miterlimit="10"/>
<path d="M-575.556 773.995C-492.394 735.886 -85.0297 1128.36 171.553 820.972C428.136 513.582 543.82 320.73 848.468 505.164C1163.57 695.949 1322.82 666.678 1961.77 643.01C2388.36 628.18 2740.71 625.543 3095.67 307.757" stroke="white" stroke-opacity="0.1" stroke-width="0.7973" stroke-miterlimit="10"/>
<path d="M-575.646 765.246C-489.16 725.639 -75.4469 1124.05 181.795 824.208C439.037 524.338 548.372 313.779 853.379 494.168C1169.41 681.089 1330.37 677.883 1972.07 653.046C2399.88 637.467 2745.77 607.237 3093.87 292.508" stroke="white" stroke-opacity="0.1" stroke-width="0.8024" stroke-miterlimit="10"/>
<path d="M-575.736 756.528C-485.926 715.393 -65.8339 1119.79 192.037 827.474C449.908 535.154 552.924 306.859 858.29 483.233C1175.22 666.259 1337.95 689.178 1982.37 663.173C2411.41 646.845 2750.8 589.022 3092.1 277.348" stroke="white" stroke-opacity="0.1" stroke-width="0.8076" stroke-miterlimit="10"/>
<path d="M-575.796 747.81C-482.662 705.147 -56.221 1115.51 202.309 830.739C460.838 545.939 557.536 299.938 863.232 472.268C1181.06 651.428 1345.52 700.443 1992.7 673.239C2422.97 656.162 2755.89 570.746 3090.34 262.098" stroke="white" stroke-opacity="0.1" stroke-width="0.8127" stroke-miterlimit="10"/>
<path d="M-575.886 739.091C-479.427 694.9 -46.6382 1111.25 212.55 834.005C471.739 556.755 562.088 293.017 868.143 461.302C1186.89 636.568 1353.07 711.678 2003.03 683.306C2434.56 665.45 2760.98 552.44 3088.6 246.878" stroke="white" stroke-opacity="0.1" stroke-width="0.8179" stroke-miterlimit="10"/>
<path d="M-575.975 730.373C-476.193 684.654 -37.0253 1107 222.792 837.27C482.609 567.54 566.67 286.036 873.084 450.337C1192.73 621.738 1360.68 722.943 2013.36 693.402C2446.12 674.797 2766.04 534.195 3086.83 231.689" stroke="white" stroke-opacity="0.1" stroke-width="0.823" stroke-miterlimit="10"/>
<path d="M-576.065 721.655C-472.929 674.408 -27.4423 1102.72 233.034 840.536C493.51 578.326 571.251 279.115 877.995 439.401C1198.57 606.908 1368.22 734.238 2023.66 703.499C2457.65 684.145 2771.1 515.949 3085.03 216.499" stroke="white" stroke-opacity="0.1" stroke-width="0.8282" stroke-miterlimit="10"/>
<path d="M-576.155 712.906C-469.695 664.131 -17.8593 1098.43 243.276 843.772C504.411 589.112 575.833 272.165 882.906 428.406C1204.41 591.988 1375.8 745.443 2033.97 713.535C2469.18 693.432 2776.13 497.644 3083.27 201.219" stroke="white" stroke-opacity="0.1" stroke-width="0.8333" stroke-miterlimit="10"/>
<path d="M-576.245 704.188C-466.46 653.915 -8.27635 1094.18 253.517 847.037C515.311 599.897 580.415 265.214 887.818 417.441C1210.25 577.128 1383.35 756.708 2044.27 723.602C2480.74 702.72 2781.2 479.368 3081.47 186" stroke="white" stroke-opacity="0.1" stroke-width="0.8385" stroke-miterlimit="10"/>
<path d="M-576.335 695.47C-463.226 643.669 1.33652 1089.89 263.759 850.303C526.182 610.683 584.997 258.233 892.729 406.475C1216.09 562.237 1390.89 767.973 2054.57 733.699C2492.27 712.067 2786.23 461.122 3079.7 170.81" stroke="white" stroke-opacity="0.1" stroke-width="0.8436" stroke-miterlimit="10"/>
<path d="M-576.425 686.751C-459.992 633.422 10.9193 1085.64 274.001 853.568C537.082 621.498 589.579 251.283 897.64 395.51C1221.96 547.377 1398.47 779.238 2064.9 743.765C2503.83 721.385 2791.32 442.847 3077.94 155.59" stroke="white" stroke-opacity="0.1" stroke-width="0.8487" stroke-miterlimit="10"/>
<path d="M-576.514 678.033C-456.758 623.176 20.5023 1081.35 284.243 856.834C547.983 632.284 594.191 244.302 902.581 384.575C1227.83 532.517 1406.04 790.503 2075.23 753.862C2515.39 730.733 2796.41 424.601 3076.2 140.371" stroke="white" stroke-opacity="0.1" stroke-width="0.8539" stroke-miterlimit="10"/>
<path d="M-576.574 669.285C-453.494 612.9 30.1452 1077.07 294.514 860.04C558.884 643.01 598.802 237.261 907.523 373.549C1233.7 517.567 1413.62 801.738 2085.53 763.898C2526.92 739.99 2801.44 406.296 3074.4 125.121" stroke="white" stroke-opacity="0.1" stroke-width="0.859" stroke-miterlimit="10"/>
<path d="M-576.664 660.566C-450.259 602.654 39.7281 1072.82 304.756 863.306C569.784 653.795 603.414 230.281 912.434 362.584C1239.57 502.647 1421.2 812.973 2095.87 773.965C2538.51 749.308 2806.53 387.99 3072.64 109.901" stroke="white" stroke-opacity="0.1" stroke-width="0.8642" stroke-miterlimit="10"/>
<path d="M-576.754 651.848C-447.025 592.407 49.311 1068.53 314.998 866.571C580.685 664.611 607.996 223.3 917.345 351.619C1245.44 487.727 1428.77 824.208 2106.17 784.031C2550.04 758.625 2811.56 369.714 3070.87 94.6517" stroke="white" stroke-opacity="0.1" stroke-width="0.8693" stroke-miterlimit="10"/>
<path d="M-576.844 643.13C-443.791 582.161 58.9238 1064.28 325.239 869.837C591.585 675.426 612.608 216.289 922.256 340.683C1251.31 472.837 1436.32 835.503 2116.47 794.128C2561.57 767.973 2816.62 351.469 3069.07 79.4622" stroke="white" stroke-opacity="0.1" stroke-width="0.8745" stroke-miterlimit="10"/>
<path d="M-576.934 634.411C-440.557 571.945 68.5067 1060.02 335.481 873.103C602.456 686.212 617.219 209.279 927.197 329.718C1257.18 457.917 1443.9 846.768 2126.83 804.195C2573.16 777.29 2821.71 333.193 3067.37 64.2424" stroke="white" stroke-opacity="0.1" stroke-width="0.8796" stroke-miterlimit="10"/>
<path d="M-577.024 625.663C-437.322 561.668 78.0897 1055.71 345.723 876.338C613.356 696.968 621.831 202.238 932.109 318.723C1263.05 442.967 1451.47 858.003 2137.13 814.261C2584.72 786.578 2826.77 314.918 3065.57 49.0227" stroke="white" stroke-opacity="0.1" stroke-width="0.8847" stroke-miterlimit="10"/>
<path d="M-577.113 616.944C-434.058 551.422 87.6727 1051.45 355.965 879.604C624.257 707.783 626.443 195.227 937.02 307.757C1268.92 428.017 1459.02 869.238 2147.43 824.328C2596.25 795.895 2831.84 296.642 3063.8 33.7731" stroke="white" stroke-opacity="0.1" stroke-width="0.8899" stroke-miterlimit="10"/>
<path d="M-577.203 608.226C-430.824 541.176 97.2855 1047.17 366.207 882.869C635.128 718.569 631.055 188.217 941.931 296.792C1274.79 413.067 1466.6 880.503 2157.74 834.394C2607.77 805.213 2836.87 278.366 3062.01 18.5533" stroke="white" stroke-opacity="0.1" stroke-width="0.895" stroke-miterlimit="10"/>
<path d="M-577.293 599.508C-427.59 530.929 106.869 1042.92 376.448 886.135C646.028 729.354 635.667 181.176 946.843 285.856C1280.66 398.147 1474.14 891.768 2168.04 844.491C2619.3 814.561 2841.93 260.121 3060.24 3.36365" stroke="white" stroke-opacity="0.1" stroke-width="0.9002" stroke-miterlimit="10"/>
<path d="M-577.383 590.789C-424.355 520.683 116.451 1038.66 386.69 889.401C656.929 740.17 640.279 174.136 951.754 274.891C1286.53 383.167 1481.69 903.033 2178.34 854.587C2630.86 823.878 2846.96 241.875 3058.44 -11.826" stroke="white" stroke-opacity="0.1" stroke-width="0.9053" stroke-miterlimit="10"/>
<path d="M-577.443 582.071C-421.091 510.437 126.094 1034.38 396.962 892.666C667.83 750.956 644.92 167.095 956.725 263.926C1292.46 368.187 1489.33 914.298 2188.73 864.654C2642.48 833.196 2852.11 223.57 3056.74 -27.0757" stroke="white" stroke-opacity="0.1" stroke-width="0.9105" stroke-miterlimit="10"/>
<path d="M-577.533 573.323C-417.857 500.19 135.677 1030.09 407.204 895.902C678.73 761.711 649.532 159.995 961.636 252.93C1298.33 353.177 1496.87 925.502 2199.03 874.69C2654.01 842.483 2857.14 205.264 3054.97 -42.3253" stroke="white" stroke-opacity="0.1" stroke-width="0.9156" stroke-miterlimit="10"/>
<path d="M-577.622 564.604C-414.623 489.944 145.26 1025.84 417.445 899.168C689.631 772.527 654.144 152.954 966.548 241.995C1304.23 338.227 1504.45 936.797 2209.33 884.817C2665.54 851.861 2862.2 187.048 3053.17 -57.4851" stroke="white" stroke-opacity="0.1" stroke-width="0.9208" stroke-miterlimit="10"/>
<path d="M-577.712 555.886C-411.388 479.698 154.873 1021.55 427.687 902.433C700.531 783.312 658.756 145.883 971.459 231.03C1310.1 323.247 1512 948.062 2219.64 894.883C2677.1 861.149 2867.26 168.773 3051.4 -72.7347" stroke="white" stroke-opacity="0.1" stroke-width="0.9259" stroke-miterlimit="10"/>
<path d="M-577.802 547.168C-408.154 469.451 164.456 1017.3 437.929 905.699C711.402 794.098 663.367 138.813 976.37 220.064C1315.97 308.237 1519.54 959.297 2229.94 904.95C2688.63 870.466 2872.29 150.497 3049.61 -87.9545" stroke="white" stroke-opacity="0.1" stroke-width="0.931" stroke-miterlimit="10"/>
<path d="M-577.892 538.449C-404.92 459.205 174.039 1013.02 448.171 908.964C722.302 804.913 667.979 131.712 981.281 209.099C1321.83 293.227 1527.12 970.562 2240.24 915.016C2700.16 879.784 2877.35 132.222 3047.84 -103.174" stroke="white" stroke-opacity="0.1" stroke-width="0.9362" stroke-miterlimit="10"/>
<path d="M-577.982 529.701C-401.656 448.959 183.652 1008.73 458.412 912.23C733.203 815.699 672.591 124.612 986.222 198.134C1327.73 278.187 1534.7 981.827 2250.57 925.113C2711.72 889.131 2882.42 113.976 3046.07 -118.364" stroke="white" stroke-opacity="0.1" stroke-width="0.9413" stroke-miterlimit="10"/>
<path d="M-578.072 520.983C-398.452 438.683 193.235 1004.48 468.654 915.466C744.074 826.485 677.173 117.481 991.134 187.168C1333.6 263.147 1542.27 993.092 2260.9 935.18C2723.31 898.419 2887.51 95.7004 3044.34 -133.613" stroke="white" stroke-opacity="0.1" stroke-width="0.9465" stroke-miterlimit="10"/>
<path d="M-578.161 512.264C-395.217 428.466 202.818 1000.19 478.896 918.732C754.974 837.27 681.785 110.381 996.045 176.203C1339.47 248.107 1549.82 1004.33 2271.2 945.246C2734.84 907.736 2892.54 77.4248 3042.54 -148.833" stroke="white" stroke-opacity="0.1" stroke-width="0.9516" stroke-miterlimit="10"/>
<path d="M-578.221 503.546C-391.923 418.22 212.43 995.938 489.168 921.997C765.875 848.056 686.426 103.28 1000.99 165.237C1345.37 233.067 1557.43 1015.59 2281.54 955.313C2746.4 917.054 2897.63 59.1192 3040.77 -164.053" stroke="white" stroke-opacity="0.1" stroke-width="0.9568" stroke-miterlimit="10"/>
<path d="M-578.311 494.827C-388.689 407.973 222.043 991.684 499.409 925.263C776.775 858.871 691.038 96.1498 1005.9 154.272C1351.21 218.027 1564.97 1026.86 2291.84 965.409C2757.93 926.401 2902.69 40.8736 3039.01 -179.243" stroke="white" stroke-opacity="0.1" stroke-width="0.9619" stroke-miterlimit="10"/>
<path d="M-578.401 486.079C-385.455 397.697 231.626 987.37 509.651 928.499C787.676 869.627 695.62 88.9894 1010.81 143.277C1357.08 202.927 1572.52 1038.06 2302.14 975.446C2769.49 935.689 2907.72 22.5681 3037.21 -194.522" stroke="white" stroke-opacity="0.1" stroke-width="0.967" stroke-miterlimit="10"/>
<path d="M-578.491 477.361C-382.221 387.451 241.209 983.116 519.893 931.764C798.577 880.413 700.232 81.8588 1015.75 132.341C1362.95 187.887 1580.09 1049.36 2312.47 985.542C2781.05 945.006 2912.81 4.32232 3035.47 -209.712" stroke="white" stroke-opacity="0.1" stroke-width="0.9722" stroke-miterlimit="10"/>
<path d="M-578.581 468.642C-378.986 377.205 250.822 978.831 530.135 935.03C809.477 891.228 704.813 74.7284 1020.66 121.376C1368.82 172.787 1587.67 1060.62 2322.8 995.609C2792.61 954.324 2917.87 -13.9532 3033.71 -224.932" stroke="white" stroke-opacity="0.1" stroke-width="0.9773" stroke-miterlimit="10"/>
<path d="M-578.671 459.924C-375.752 366.958 260.405 974.577 540.377 938.295C820.348 902.014 709.426 67.5679 1025.57 110.411C1374.69 157.718 1595.25 1071.86 2333.1 1005.71C2804.14 963.672 2922.93 -32.1989 3031.94 -240.151" stroke="white" stroke-opacity="0.1" stroke-width="0.9825" stroke-miterlimit="10"/>
<path d="M-578.76 451.206C-372.518 356.712 269.988 970.323 550.618 941.561C831.248 912.799 714.067 59.8683 1030.48 99.4454C1380.62 141.989 1602.79 1083.12 2343.41 1015.77C2815.66 972.989 2927.96 -50.4744 3030.14 -255.371" stroke="white" stroke-opacity="0.1" stroke-width="0.9876" stroke-miterlimit="10"/>
<path d="M-578.85 442.487C-369.283 346.495 279.571 966.038 560.86 944.827C842.149 923.615 718.619 52.8875 1035.39 88.51C1386.46 127.098 1610.37 1094.39 2353.74 1025.84C2827.25 982.277 2933.06 -68.7501 3028.41 -270.591" stroke="white" stroke-opacity="0.1" stroke-width="0.9928" stroke-miterlimit="10"/>
<path d="M-578.94 433.739C-366.049 336.219 289.184 961.754 571.102 948.062C853.02 934.371 723.171 45.8768 1040.31 77.5146C1392.24 112.178 1617.92 1105.62 2364.01 1035.9C2838.75 991.594 2938.06 -87.0257 3026.58 -285.81" stroke="white" stroke-opacity="0.1" stroke-width="0.9979" stroke-miterlimit="10"/>
<path d="M-579 425.021C-362.785 325.973 298.797 957.5 581.373 951.328C863.95 945.156 727.783 38.8962 1045.28 66.5493C1398.11 97.2882 1625.52 1116.89 2374.37 1046C2850.34 1000.94 2943.18 -105.301 3024.84 -301" stroke="white" stroke-opacity="0.1" stroke-width="1.0031" stroke-miterlimit="10"/>
<g opacity="0.2" filter="url(#filter0_f_1_11)">
</g>
<line x1="180.75" y1="1053.01" x2="180.75" y2="-9" stroke="url(#paint1_linear_1_11)" stroke-opacity="0.5" stroke-width="2.5"/>
<line x1="180.25" y1="1817" x2="180.25" y2="1039" stroke="url(#paint2_linear_1_11)" stroke-opacity="0.5" stroke-width="2.5"/>
<rect x="172" y="97" width="18" height="37" rx="9" fill="url(#paint3_linear_1_11)"/>
<rect x="168.75" y="93.75" width="24.5" height="43.5" rx="12.25" stroke="url(#paint4_linear_1_11)" stroke-width="1.5"/>
<path d="M133.875 755.25C136.642 755.25 138.642 755.967 139.875 757.4C141.125 758.817 141.75 761.1 141.75 764.25C141.75 767.4 141.125 769.692 139.875 771.125C138.642 772.542 136.642 773.25 133.875 773.25C131.125 773.25 129.125 772.542 127.875 771.125C126.625 769.692 126 767.4 126 764.25C126 761.1 126.625 758.817 127.875 757.4C129.125 755.967 131.125 755.25 133.875 755.25ZM129.75 764.25C129.75 766.15 130.083 767.542 130.75 768.425C131.417 769.308 132.458 769.75 133.875 769.75C135.342 769.75 136.392 769.317 137.025 768.45C137.675 767.583 138 766.183 138 764.25C138 762.3 137.675 760.9 137.025 760.05C136.392 759.183 135.342 758.75 133.875 758.75C132.458 758.75 131.417 759.192 130.75 760.075C130.083 760.942 129.75 762.333 129.75 764.25ZM143.249 767.675H146.999C146.999 768.392 147.266 768.917 147.799 769.25C148.332 769.583 149.174 769.75 150.324 769.75C152.524 769.75 153.624 769.067 153.624 767.7C153.624 766.983 153.332 766.475 152.749 766.175C152.166 765.858 151.216 765.7 149.899 765.7H149.124V762.45H150.049C151.249 762.45 152.107 762.308 152.624 762.025C153.157 761.725 153.424 761.242 153.424 760.575C153.424 759.925 153.182 759.458 152.699 759.175C152.232 758.892 151.474 758.75 150.424 758.75C149.357 758.75 148.582 758.9 148.099 759.2C147.616 759.5 147.374 759.975 147.374 760.625H143.624C143.624 758.742 144.157 757.375 145.224 756.525C146.307 755.675 148.041 755.25 150.424 755.25C152.791 755.25 154.507 755.633 155.574 756.4C156.641 757.167 157.174 758.408 157.174 760.125C157.174 761.975 156.499 763.292 155.149 764.075C156.632 764.858 157.374 766.225 157.374 768.175C157.374 769.942 156.816 771.233 155.699 772.05C154.582 772.85 152.791 773.25 150.324 773.25C147.857 773.25 146.057 772.808 144.924 771.925C143.807 771.042 143.249 769.625 143.249 767.675Z" fill="url(#paint5_linear_1_11)" fill-opacity="0.5"/>
<path d="M133.875 818.25C136.642 818.25 138.642 818.967 139.875 820.4C141.125 821.817 141.75 824.1 141.75 827.25C141.75 830.4 141.125 832.692 139.875 834.125C138.642 835.542 136.642 836.25 133.875 836.25C131.125 836.25 129.125 835.542 127.875 834.125C126.625 832.692 126 830.4 126 827.25C126 824.1 126.625 821.817 127.875 820.4C129.125 818.967 131.125 818.25 133.875 818.25ZM129.75 827.25C129.75 829.15 130.083 830.542 130.75 831.425C131.417 832.308 132.458 832.75 133.875 832.75C135.342 832.75 136.392 832.317 137.025 831.45C137.675 830.583 138 829.183 138 827.25C138 825.3 137.675 823.9 137.025 823.05C136.392 822.183 135.342 821.75 133.875 821.75C132.458 821.75 131.417 822.192 130.75 823.075C130.083 823.942 129.75 825.333 129.75 827.25ZM143.374 829.25L151.024 818.5H156.749V829.25H159.249V832.75H156.749V836H152.999V832.75H143.374V829.25ZM147.624 829.25H152.999V821.65L147.624 829.25Z" fill="url(#paint6_linear_1_11)" fill-opacity="0.5"/>
<path d="M133.875 881.25C136.642 881.25 138.642 881.967 139.875 883.4C141.125 884.817 141.75 887.1 141.75 890.25C141.75 893.4 141.125 895.692 139.875 897.125C138.642 898.542 136.642 899.25 133.875 899.25C131.125 899.25 129.125 898.542 127.875 897.125C126.625 895.692 126 893.4 126 890.25C126 887.1 126.625 884.817 127.875 883.4C129.125 881.967 131.125 881.25 133.875 881.25ZM129.75 890.25C129.75 892.15 130.083 893.542 130.75 894.425C131.417 895.308 132.458 895.75 133.875 895.75C135.342 895.75 136.392 895.317 137.025 894.45C137.675 893.583 138 892.183 138 890.25C138 888.3 137.675 886.9 137.025 886.05C136.392 885.183 135.342 884.75 133.875 884.75C132.458 884.75 131.417 885.192 130.75 886.075C130.083 886.942 129.75 888.333 129.75 890.25ZM143.749 893.675H147.499C147.499 895.058 148.666 895.75 150.999 895.75C152.282 895.75 153.224 895.55 153.824 895.15C154.441 894.75 154.749 894.117 154.749 893.25C154.749 892.367 154.416 891.725 153.749 891.325C153.099 890.908 152.049 890.7 150.599 890.7C148.799 890.7 147.899 891.033 147.899 891.7H144.399V881.5H157.149V885.25H147.899V888.05C148.782 887.483 150.107 887.2 151.874 887.2C154.141 887.2 155.807 887.683 156.874 888.65C157.957 889.6 158.499 891.092 158.499 893.125C158.499 895.275 157.899 896.833 156.699 897.8C155.499 898.767 153.591 899.25 150.974 899.25C148.441 899.25 146.599 898.808 145.449 897.925C144.316 897.042 143.749 895.625 143.749 893.675Z" fill="url(#paint7_linear_1_11)" fill-opacity="0.5"/>
<rect x="172" y="872" width="18" height="37" rx="9" fill="url(#paint8_linear_1_11)"/>
<rect x="168.75" y="868.75" width="24.5" height="43.5" rx="12.25" stroke="url(#paint9_linear_1_11)" stroke-width="1.5"/>
<rect x="172" y="808" width="18" height="37" rx="9" fill="url(#paint10_linear_1_11)"/>
<rect x="168.75" y="804.75" width="24.5" height="43.5" rx="12.25" stroke="url(#paint11_linear_1_11)" stroke-width="1.5"/>
<rect x="172" y="744" width="18" height="37" rx="9" fill="url(#paint12_linear_1_11)"/>
<rect x="168.75" y="740.75" width="24.5" height="43.5" rx="12.25" stroke="url(#paint13_linear_1_11)" stroke-width="1.5"/>
</g>
<defs>
<filter id="filter0_f_1_11" x="884" y="-1094" width="1145" height="1326" filterUnits="userSpaceOnUse" color-interpolation-filters="sRGB">
<feFlood flood-opacity="0" result="BackgroundImageFix"/>
<feBlend mode="normal" in="SourceGraphic" in2="BackgroundImageFix" result="shape"/>
<feGaussianBlur stdDeviation="120.5" result="effect1_foregroundBlur_1_11"/>
</filter>
<linearGradient id="paint0_linear_1_11" x1="129.218" y1="115.754" x2="182.921" y2="116.843" gradientUnits="userSpaceOnUse">
<stop stop-color="#7258FE"/>
<stop offset="1" stop-color="#2EECC5"/>
</linearGradient>
<linearGradient id="paint1_linear_1_11" x1="182" y1="-9" x2="182" y2="1053.01" gradientUnits="userSpaceOnUse">
<stop stop-color="#7258FE" stop-opacity="0"/>
<stop offset="0.43693" stop-color="#2EECC5"/>
<stop offset="0.921875" stop-color="#7258FE" stop-opacity="0.138748"/>
<stop offset="1" stop-color="#FFB1B1" stop-opacity="0"/>
</linearGradient>
<linearGradient id="paint2_linear_1_11" x1="181.5" y1="1039" x2="181.5" y2="1817" gradientUnits="userSpaceOnUse">
<stop stop-color="#7258FE" stop-opacity="0"/>
<stop offset="0.43693" stop-color="#2EECC5"/>
<stop offset="0.921875" stop-color="#7258FE" stop-opacity="0.138748"/>
<stop offset="1" stop-color="#FFB1B1" stop-opacity="0"/>
</linearGradient>
<linearGradient id="paint3_linear_1_11" x1="181" y1="97" x2="181" y2="134" gradientUnits="userSpaceOnUse">
<stop stop-color="#7258FE"/>
<stop offset="1" stop-color="#22A98D"/>
</linearGradient>
<linearGradient id="paint4_linear_1_11" x1="181" y1="93" x2="181" y2="138" gradientUnits="userSpaceOnUse">
<stop stop-color="#7258FE"/>
<stop offset="1" stop-color="#B0FBEC"/>
</linearGradient>
<linearGradient id="paint5_linear_1_11" x1="128.218" y1="766.754" x2="181.921" y2="767.843" gradientUnits="userSpaceOnUse">
<stop stop-color="#7258FE"/>
<stop offset="1" stop-color="#2EECC5"/>
</linearGradient>
<linearGradient id="paint6_linear_1_11" x1="128.313" y1="829.754" x2="183.593" y2="830.908" gradientUnits="userSpaceOnUse">
<stop stop-color="#7258FE"/>
<stop offset="1" stop-color="#2EECC5"/>
</linearGradient>
<linearGradient id="paint7_linear_1_11" x1="128.313" y1="892.754" x2="183.593" y2="893.908" gradientUnits="userSpaceOnUse">
<stop stop-color="#7258FE"/>
<stop offset="1" stop-color="#2EECC5"/>
</linearGradient>
<linearGradient id="paint8_linear_1_11" x1="181" y1="872" x2="181" y2="909" gradientUnits="userSpaceOnUse">
<stop stop-color="#7258FE"/>
<stop offset="1" stop-color="#0A3028"/>
</linearGradient>
<linearGradient id="paint9_linear_1_11" x1="181" y1="868" x2="181" y2="913" gradientUnits="userSpaceOnUse">
<stop stop-color="#7258FE"/>
<stop offset="1" stop-color="#123730"/>
</linearGradient>
<linearGradient id="paint10_linear_1_11" x1="181" y1="808" x2="181" y2="845" gradientUnits="userSpaceOnUse">
<stop stop-color="#7258FE"/>
<stop offset="1" stop-color="#0A3028"/>
</linearGradient>
<linearGradient id="paint11_linear_1_11" x1="181" y1="804" x2="181" y2="849" gradientUnits="userSpaceOnUse">
<stop stop-color="#7258FE"/>
<stop offset="1" stop-color="#123730"/>
</linearGradient>
<linearGradient id="paint12_linear_1_11" x1="181" y1="744" x2="181" y2="781" gradientUnits="userSpaceOnUse">
<stop stop-color="#7258FE"/>
<stop offset="1" stop-color="#0A3028"/>
</linearGradient>
<linearGradient id="paint13_linear_1_11" x1="181" y1="740" x2="181" y2="785" gradientUnits="userSpaceOnUse">
<stop stop-color="#7258FE"/>
<stop offset="1" stop-color="#123730"/>
</linearGradient>
<clipPath id="clip0_1_11">
<rect width="1920" height="4905" fill="white" transform="translate(0 -1071)"/>
</clipPath>
</defs>
</svg>
