<svg width="400" height="399" viewBox="0 0 400 399" fill="none" xmlns="http://www.w3.org/2000/svg">
<g clip-path="url(#clip0_1_11)">
<rect width="1920" height="4905" transform="translate(-325 -1577)" fill="#161617"/>
<path d="M-668.886 1172.27C-234.085 1462.03 144.462 893.715 458.557 873.026C911.218 843.224 1031.62 1378.65 1252.63 1138.14C1473.63 897.634 1681.6 687.805 1894.21 1070.82C2106.82 1453.84 2293.53 1249.9 2293.53 1249.9" stroke="white" stroke-opacity="0.1" stroke-width="0.6482" stroke-miterlimit="10"/>
<path d="M2293.11 1240.07C2289.28 1238.57 2095.83 1449.62 1882.95 1075.09C1670.06 700.564 1468.1 890.051 1246.47 1126.11C1024.21 1362.27 903.426 856.301 447.643 884.942C132.086 904.877 -240.887 1441.86 -667.862 1155.08" stroke="white" stroke-opacity="0.1" stroke-width="0.6553" stroke-miterlimit="10"/>
<path d="M2292.65 1230.3C2284.99 1227.29 2084.77 1445.44 1871.63 1079.41C1658.5 713.38 1462.55 882.525 1240.26 1114.13C1016.75 1345.93 895.625 869.407 436.683 896.907C119.701 916.068 -247.709 1421.65 -666.81 1137.91" stroke="white" stroke-opacity="0.1" stroke-width="0.6623" stroke-miterlimit="10"/>
<path d="M2292.23 1220.5C2280.73 1216 2073.77 1441.25 1860.36 1083.71C1646.94 726.168 1457.01 874.97 1234.05 1102.15C1009.26 1329.59 887.815 882.541 425.723 908.872C107.325 927.231 -254.512 1401.48 -665.777 1120.7" stroke="white" stroke-opacity="0.1" stroke-width="0.6694" stroke-miterlimit="10"/>
<path d="M2291.78 1210.69C2276.48 1204.7 2062.72 1437.03 1849.06 1087.99C1635.39 738.955 1451.97 867.941 1227.85 1090.14C1002.31 1313.73 880.052 895.627 414.763 920.837C94.9409 938.422 -261.343 1381.3 -664.725 1103.52" stroke="white" stroke-opacity="0.1" stroke-width="0.6764" stroke-miterlimit="10"/>
<path d="M2291.32 1200.91C2272.19 1193.39 2051.69 1432.86 1837.74 1092.31C1623.84 751.743 1446.52 860.507 1221.64 1078.16C994.972 1297.52 872.242 908.761 403.811 932.773C82.5651 949.584 -268.136 1361.1 -663.672 1086.35" stroke="white" stroke-opacity="0.1" stroke-width="0.6835" stroke-miterlimit="10"/>
<path d="M2290.9 1191.12C2267.94 1182.1 2040.66 1428.66 1826.47 1096.61C1612.29 764.53 1441.09 853.082 1215.44 1066.15C987.61 1281.28 864.45 921.838 392.859 944.71C70.1805 960.775 -274.967 1340.92 -662.64 1069.13" stroke="white" stroke-opacity="0.1" stroke-width="0.6905" stroke-miterlimit="10"/>
<path d="M2290.44 1181.31C2263.65 1170.79 2029.64 1424.46 1815.18 1100.87C1600.72 777.281 1435.64 845.647 1209.25 1054.14C980.248 1265.04 856.649 934.944 381.908 956.646C57.7961 971.966 -281.761 1320.72 -661.588 1051.96" stroke="white" stroke-opacity="0.1" stroke-width="0.6976" stroke-miterlimit="10"/>
<path d="M2289.99 1171.51C2259.37 1159.48 2018.58 1420.25 1803.87 1105.16C1589.15 790.097 1430.16 838.205 1203.04 1042.16C972.876 1248.83 848.848 948.05 370.948 968.611C45.3915 983.12 -288.592 1300.54 -660.564 1034.77" stroke="white" stroke-opacity="0.1" stroke-width="0.7046" stroke-miterlimit="10"/>
<path d="M2289.56 1161.74C2255.1 1148.21 2007.58 1416.08 1792.59 1109.48C1577.6 802.885 1424.7 830.799 1196.84 1030.15C965.514 1232.59 841.055 961.127 359.996 980.547C33.0068 994.311 -295.385 1280.34 -659.503 1017.57" stroke="white" stroke-opacity="0.1" stroke-width="0.7117" stroke-miterlimit="10"/>
<path d="M2289.11 1151.93C2250.82 1136.91 1996.52 1411.87 1781.29 1113.77C1566.05 815.672 1419.22 823.357 1190.64 1018.14C958.123 1216.34 833.254 974.232 349.065 992.521C20.6597 1005.48 -302.187 1260.17 -658.45 1000.39" stroke="white" stroke-opacity="0.1" stroke-width="0.7187" stroke-miterlimit="10"/>
<path d="M2288.66 1142.13C2246.56 1125.61 1985.5 1407.67 1769.98 1118.06C1554.5 828.46 1413.74 815.914 1184.43 1006.16C950.732 1200.09 825.482 987.347 338.113 1004.46C8.24654 1016.66 -309.018 1239.99 -657.426 983.208" stroke="white" stroke-opacity="0.1" stroke-width="0.7257" stroke-miterlimit="10"/>
<path d="M2288.24 1132.33C2242.31 1114.31 1974.47 1403.47 1758.71 1122.36C1542.94 841.247 1408.23 808.462 1178.23 994.154C943.312 1183.84 817.652 1000.44 327.133 1016.38C-4.12936 1027.83 -315.812 1219.79 -656.365 966.004" stroke="white" stroke-opacity="0.1" stroke-width="0.7328" stroke-miterlimit="10"/>
<path d="M2287.78 1122.55C2238.03 1103.01 1963.44 1399.29 1747.4 1126.67C1531.35 854.055 1402.72 801.011 1172.03 982.173C935.913 1167.61 809.851 1013.55 316.173 1028.35C-16.5139 1039.02 -322.643 1199.61 -655.342 948.82" stroke="white" stroke-opacity="0.1" stroke-width="0.7398" stroke-miterlimit="10"/>
<path d="M2287.35 1112.75C2233.77 1091.71 1952.41 1395.09 1736.12 1130.97C1519.81 866.814 1397.21 793.56 1165.86 970.173C928.53 1151.34 802.108 1026.67 305.25 1040.29C-28.8898 1050.18 -329.436 1179.41 -654.289 931.644" stroke="white" stroke-opacity="0.1" stroke-width="0.7469" stroke-miterlimit="10"/>
<path d="M2286.9 1102.95C2229.49 1080.4 1941.38 1390.92 1724.82 1135.26C1508.26 879.602 1391.71 786.08 1159.66 958.164C921.082 1135.07 794.278 1039.77 294.29 1052.26C-41.2743 1061.37 -336.267 1159.23 -653.228 914.44" stroke="white" stroke-opacity="0.1" stroke-width="0.7539" stroke-miterlimit="10"/>
<path d="M2286.44 1093.17C2225.19 1069.12 1930.32 1386.73 1713.52 1139.55C1496.71 892.361 1386.17 778.62 1153.45 946.183C913.662 1118.81 786.506 1052.88 283.367 1064.2C-53.6501 1072.53 -343.032 1139.04 -652.175 897.264" stroke="white" stroke-opacity="0.1" stroke-width="0.761" stroke-miterlimit="10"/>
<path d="M2286.02 1083.37C2220.94 1057.83 1919.29 1382.53 1702.24 1143.84C1485.15 905.177 1380.67 771.14 1147.25 934.174C906.214 1102.55 778.713 1065.96 272.415 1076.14C-66.0634 1083.72 -349.892 1118.85 -651.152 880.08" stroke="white" stroke-opacity="0.1" stroke-width="0.768" stroke-miterlimit="10"/>
<path d="M2285.57 1073.57C2216.65 1046.52 1908.27 1378.33 1690.94 1148.13C1473.6 917.965 1375.1 763.671 1141.05 922.165C898.774 1086.25 770.912 1079.07 261.464 1088.08C-78.4105 1094.89 -356.685 1098.65 -650.091 862.876" stroke="white" stroke-opacity="0.1" stroke-width="0.7751" stroke-miterlimit="10"/>
<path d="M2285.12 1063.76C2212.4 1035.22 1897.21 1374.12 1679.63 1152.42C1462.03 930.715 1369.54 756.174 1134.85 910.156C891.306 1069.95 763.12 1092.14 250.512 1100.01C-90.8152 1106.04 -363.479 1078.46 -649.058 845.663" stroke="white" stroke-opacity="0.1" stroke-width="0.7821" stroke-miterlimit="10"/>
<path d="M2284.68 1053.99C2208.13 1023.95 1886.21 1369.95 1668.35 1156.75C1450.47 943.531 1363.99 748.676 1128.64 898.175C883.829 1053.67 755.31 1105.28 239.544 1112.01C-103.208 1117.26 -370.318 1058.3 -648.014 828.516" stroke="white" stroke-opacity="0.1" stroke-width="0.7892" stroke-miterlimit="10"/>
<path d="M2284.23 1044.19C2203.86 1012.62 1875.15 1365.74 1657.05 1161.04C1438.91 956.319 1358.43 741.179 1122.44 886.195C876.361 1037.37 747.509 1118.38 228.592 1123.94C-115.584 1128.42 -377.141 1038.1 -646.991 811.331" stroke="white" stroke-opacity="0.1" stroke-width="0.7962" stroke-miterlimit="10"/>
<path d="M2283.78 1034.38C2199.6 1001.35 1864.13 1361.54 1645.74 1165.32C1427.36 969.107 1352.87 733.682 1116.24 874.185C868.892 1021.06 739.717 1131.46 217.64 1135.88C-127.96 1139.58 -383.943 1017.92 -645.929 794.127" stroke="white" stroke-opacity="0.1" stroke-width="0.8033" stroke-miterlimit="10"/>
<path d="M2283.35 1024.61C2195.31 990.043 1853.09 1357.37 1634.43 1169.64C1415.78 981.886 1347.29 726.147 1110.04 862.176C861.404 1004.72 731.916 1144.57 206.689 1147.81C-140.364 1150.74 -390.765 997.716 -644.897 776.914" stroke="white" stroke-opacity="0.1" stroke-width="0.8103" stroke-miterlimit="10"/>
<path d="M2282.9 1014.81C2191.03 978.737 1842.07 1353.17 1623.13 1173.93C1404.23 994.673 1341.7 718.641 1103.83 850.196C853.907 988.411 724.144 1157.68 195.729 1159.78C-152.758 1161.96 -397.567 977.545 -643.845 759.739" stroke="white" stroke-opacity="0.1" stroke-width="0.8173" stroke-miterlimit="10"/>
<path d="M2282.48 1005.01C2186.77 967.439 1831.04 1348.96 1611.86 1178.2C1392.68 1007.46 1336.13 711.106 1097.63 838.187C846.418 972.07 716.343 1170.79 184.777 1171.72C-165.134 1173.12 -404.369 957.375 -642.792 742.563" stroke="white" stroke-opacity="0.1" stroke-width="0.8244" stroke-miterlimit="10"/>
<path d="M2282.03 995.204C2182.49 956.133 1820.02 1344.76 1600.55 1182.51C1381.12 1020.25 1330.53 703.534 1091.42 826.206C838.921 955.757 708.542 1183.89 173.817 1183.68C-177.518 1184.31 -411.2 937.195 -641.768 725.379" stroke="white" stroke-opacity="0.1" stroke-width="0.8314" stroke-miterlimit="10"/>
<path d="M2281.57 985.427C2178.22 944.864 1808.96 1340.58 1589.25 1186.8C1369.57 1033.04 1324.92 695.991 1085.23 814.197C831.413 939.379 700.741 1197 162.866 1195.62C-189.923 1195.46 -418.023 916.986 -640.736 708.166" stroke="white" stroke-opacity="0.1" stroke-width="0.8385" stroke-miterlimit="10"/>
<path d="M2281.14 975.63C2173.98 933.537 1797.93 1336.38 1577.97 1191.1C1358.02 1045.82 1319.32 688.419 1079.05 802.196C823.933 923.009 692.977 1210.08 151.943 1207.56C-202.278 1206.66 -424.825 896.815 -639.655 690.999" stroke="white" stroke-opacity="0.1" stroke-width="0.8455" stroke-miterlimit="10"/>
<path d="M2280.69 965.824C2169.68 922.26 1786.9 1332.17 1566.67 1195.39C1346.44 1058.6 1313.73 680.847 1072.85 790.216C816.425 906.631 685.167 1223.22 140.983 1219.53C-214.654 1217.83 -431.618 876.616 -638.631 673.815" stroke="white" stroke-opacity="0.1" stroke-width="0.8526" stroke-miterlimit="10"/>
<path d="M2280.24 956.018C2165.41 910.925 1775.88 1327.97 1555.37 1199.68C1334.89 1071.39 1308.11 673.238 1066.62 778.198C808.859 890.235 677.346 1236.29 130.002 1231.45C-227.039 1229.02 -438.449 856.436 -637.578 656.639" stroke="white" stroke-opacity="0.1" stroke-width="0.8596" stroke-miterlimit="10"/>
<path d="M2279.81 946.249C2161.15 899.656 1764.85 1323.8 1544.09 1203.97C1323.33 1084.18 1302.52 665.637 1060.45 766.198C801.359 873.828 669.574 1249.4 119.071 1243.43C-239.415 1240.18 -445.243 836.236 -636.546 639.426" stroke="white" stroke-opacity="0.1" stroke-width="0.8667" stroke-miterlimit="10"/>
<path d="M2279.36 936.444C2156.86 888.35 1753.79 1319.59 1532.78 1208.29C1311.78 1096.97 1296.89 658.056 1054.24 754.217C793.831 857.412 661.773 1262.51 108.119 1255.36C-251.828 1251.36 -452.074 816.057 -635.494 622.25" stroke="white" stroke-opacity="0.1" stroke-width="0.8737" stroke-miterlimit="10"/>
<path d="M2278.91 926.638C2152.61 877.052 1742.77 1315.39 1521.48 1212.58C1300.23 1109.75 1291.28 650.418 1048.04 742.208C786.302 840.996 653.972 1275.61 97.1593 1267.33C-264.212 1262.55 -458.867 795.857 -634.441 605.075" stroke="white" stroke-opacity="0.1" stroke-width="0.8808" stroke-miterlimit="10"/>
<path d="M2278.47 916.869C2148.34 865.783 1731.73 1311.21 1510.2 1216.88C1288.65 1122.53 1285.67 642.78 1041.83 730.227C778.783 824.552 646.171 1288.72 86.2077 1279.27C-276.588 1273.72 -465.698 775.677 -633.409 587.862" stroke="white" stroke-opacity="0.1" stroke-width="0.8878" stroke-miterlimit="10"/>
<path d="M2278.02 907.063C2144.06 854.477 1720.71 1307.01 1498.9 1221.16C1277.09 1135.32 1280.03 635.134 1035.64 718.218C771.243 808.07 638.407 1301.8 75.2847 1291.21C-288.973 1284.91 -472.5 755.506 -632.356 570.686" stroke="white" stroke-opacity="0.1" stroke-width="0.8949" stroke-miterlimit="10"/>
<path d="M2277.57 897.257C2139.77 843.17 1709.65 1302.8 1487.6 1225.45C1265.54 1148.11 1274.42 627.496 1029.44 706.209C763.732 791.597 630.606 1314.91 64.3334 1303.15C-301.349 1296.07 -479.323 735.298 -631.332 553.502" stroke="white" stroke-opacity="0.1" stroke-width="0.9019" stroke-miterlimit="10"/>
<path d="M2277.15 887.46C2135.52 831.873 1698.66 1298.61 1476.32 1229.75C1253.99 1160.9 1268.8 619.791 1023.24 694.2C756.192 775.115 622.814 1327.99 53.3818 1315.08C-313.733 1307.26 -486.125 715.127 -630.271 536.298" stroke="white" stroke-opacity="0.1" stroke-width="0.9089" stroke-miterlimit="10"/>
<path d="M2276.69 877.683C2131.23 820.566 1687.59 1294.42 1465.01 1234.07C1242.43 1173.71 1263.19 612.154 1017.03 682.22C748.652 758.633 615.004 1341.12 42.4218 1327.05C-326.109 1318.42 -492.918 694.927 -629.219 519.122" stroke="white" stroke-opacity="0.1" stroke-width="0.916" stroke-miterlimit="10"/>
<path d="M2276.27 867.886C2126.98 809.269 1676.57 1290.22 1453.71 1238.36C1230.85 1186.49 1257.57 604.449 1010.82 670.239C741.112 742.151 607.203 1354.23 31.4614 1339.01C-338.494 1329.61 -499.749 674.748 -628.195 501.938" stroke="white" stroke-opacity="0.1" stroke-width="0.923" stroke-miterlimit="10"/>
<path d="M2275.82 858.08C2122.72 797.971 1665.54 1286.02 1442.43 1242.65C1219.32 1199.29 1251.98 596.754 1004.65 658.238C733.619 725.621 599.431 1367.34 20.5387 1350.96C-350.898 1340.77 -506.551 654.577 -627.134 484.733" stroke="white" stroke-opacity="0.1" stroke-width="0.9301" stroke-miterlimit="10"/>
<path d="M2275.36 848.274C2118.44 786.665 1654.52 1281.82 1431.13 1246.94C1207.74 1212.07 1246.37 589.021 998.424 646.221C726.076 709.044 591.61 1380.41 9.55844 1362.88C-363.283 1351.96 -513.374 634.368 -626.11 467.549" stroke="white" stroke-opacity="0.1" stroke-width="0.9371" stroke-miterlimit="10"/>
<path d="M2274.93 838.505C2114.18 775.396 1643.49 1277.64 1419.85 1251.27C1196.19 1224.85 1240.76 581.289 992.217 634.24C718.545 692.534 583.809 1393.51 -1.4018 1374.85C-375.659 1363.12 -520.176 614.197 -625.058 450.374" stroke="white" stroke-opacity="0.1" stroke-width="0.9442" stroke-miterlimit="10"/>
<path d="M2274.48 828.7C2109.89 764.089 1632.46 1273.44 1408.55 1255.53C1184.64 1237.64 1235.14 573.556 986.047 622.24C711.06 675.975 576.037 1406.63 -12.3246 1386.79C-388.043 1374.31 -526.998 593.989 -623.997 433.169" stroke="white" stroke-opacity="0.1" stroke-width="0.9512" stroke-miterlimit="10"/>
<path d="M2274.03 818.894C2105.64 752.792 1621.43 1269.24 1397.24 1259.84C1173.09 1250.43 1229.47 565.398 979.839 610.259C703.467 658.945 568.236 1419.73 -23.2848 1398.76C-400.428 1385.5 -533.8 573.818 -622.973 415.985" stroke="white" stroke-opacity="0.1" stroke-width="0.9583" stroke-miterlimit="10"/>
<path d="M2273.6 809.125C2101.35 741.486 1610.4 1265.07 1385.97 1264.14C1161.53 1263.22 1223.93 557.844 973.64 598.25C696.024 642.555 560.463 1432.85 -34.2363 1410.7C-412.804 1396.66 -540.631 553.638 -621.92 398.809" stroke="white" stroke-opacity="0.1" stroke-width="0.9653" stroke-miterlimit="10"/>
<path d="M2273.15 799.319C2097.07 730.179 1599.35 1260.85 1374.66 1268.43C1149.98 1276 1218.39 550.289 967.441 586.241C688.573 626.194 552.671 1445.93 -45.1878 1422.63C-425.188 1407.85 -547.425 533.439 -620.888 381.596" stroke="white" stroke-opacity="0.1" stroke-width="0.9724" stroke-miterlimit="10"/>
<path d="M2814.93 182.249C2289.18 576.283 1774.61 -110.789 1378.89 -114.864C808.62 -120.736 694.583 559.835 400.477 273.268C106.401 -13.2697 -169.229 -262.177 -409.551 233.451C-649.873 729.079 -898.37 486.074 -898.37 486.074" stroke="white" stroke-opacity="0.1" stroke-width="0.6687" stroke-miterlimit="10"/>
<path d="M-898.46 477.355C-895.136 475.827 -640.29 724.855 -399.309 236.716C-158.328 -251.392 110.952 -20.2504 405.418 262.302C700.423 544.915 816.226 -109.501 1389.23 -104.798C1786.17 -101.472 2294.27 558.038 2813.16 167.03" stroke="white" stroke-opacity="0.1" stroke-width="0.6738" stroke-miterlimit="10"/>
<path d="M-898.55 468.637C-891.902 465.581 -630.707 720.571 -389.067 239.982C-147.427 -240.606 115.504 -27.2311 410.329 251.337C706.232 529.995 823.773 -98.2362 1399.53 -94.7309C1797.7 -92.1544 2299.3 539.762 2811.39 151.78" stroke="white" stroke-opacity="0.1" stroke-width="0.679" stroke-miterlimit="10"/>
<path d="M-898.64 459.919C-888.667 455.335 -621.094 716.316 -378.825 243.248C-136.557 -229.821 120.056 -34.2117 415.24 240.372C712.042 515.105 831.349 -86.9713 1409.86 -84.6643C1809.26 -82.8667 2304.4 521.456 2809.63 136.56" stroke="white" stroke-opacity="0.1" stroke-width="0.6841" stroke-miterlimit="10"/>
<path d="M-898.729 451.17C-885.433 445.088 -611.511 712.002 -368.584 246.484C-125.656 -219.035 124.608 -41.2224 420.152 229.406C717.882 500.215 838.896 -75.7363 1420.16 -74.5679C1820.82 -73.5193 2309.43 503.211 2807.83 121.371" stroke="white" stroke-opacity="0.1" stroke-width="0.6893" stroke-miterlimit="10"/>
<path d="M-898.819 442.452C-882.199 434.842 -601.928 707.748 -358.342 249.749C-114.756 -208.249 128.621 -47.5739 425.063 218.441C723.122 485.924 846.443 -64.4713 1430.46 -64.5013C1832.35 -64.2017 2314.49 484.935 2806.06 106.151" stroke="white" stroke-opacity="0.1" stroke-width="0.6944" stroke-miterlimit="10"/>
<path d="M-898.909 433.734C-878.935 424.596 -592.345 703.493 -348.1 253.015C-103.855 -197.464 133.083 -54.4347 430.004 207.476C728.872 471.124 854.049 -53.2063 1440.79 -54.4347C1843.91 -54.8841 2319.55 466.66 2804.3 90.9013" stroke="white" stroke-opacity="0.1" stroke-width="0.6996" stroke-miterlimit="10"/>
<path d="M-898.999 425.015C-875.7 414.349 -582.732 699.209 -337.858 256.28C-92.9844 -186.648 137.545 -61.2956 434.915 196.51C734.592 456.353 861.596 -41.9713 1451.1 -44.3681C1855.44 -45.5965 2324.61 448.384 2802.53 75.6815" stroke="white" stroke-opacity="0.1" stroke-width="0.7047" stroke-miterlimit="10"/>
<path d="M-899.089 416.297C-872.466 404.103 -573.149 694.955 -327.616 259.546C-82.0837 -175.863 142.037 -68.1564 439.827 185.545C740.342 441.583 869.172 -30.7064 1461.43 -34.2716C1867.03 -36.249 2329.7 430.138 2800.76 60.4919" stroke="white" stroke-opacity="0.1" stroke-width="0.7099" stroke-miterlimit="10"/>
<path d="M-899.149 407.578C-869.202 393.857 -563.536 690.7 -317.345 262.812C-71.1533 -165.077 146.529 -75.0173 444.768 174.609C746.091 426.813 876.748 -19.4115 1471.73 -24.1752C1878.55 -26.9015 2334.73 411.893 2798.99 45.2721" stroke="white" stroke-opacity="0.1" stroke-width="0.715" stroke-miterlimit="10"/>
<path d="M-899.239 398.83C-865.968 383.58 -553.924 686.386 -307.103 266.047C-60.2527 -154.291 151.021 -81.9081 449.679 163.614C751.841 412.012 884.325 -8.20646 1482.06 -14.1385C1890.11 -17.6139 2339.82 393.587 2797.23 30.0225" stroke="white" stroke-opacity="0.1" stroke-width="0.7201" stroke-miterlimit="10"/>
<path d="M-899.328 390.112C-862.734 373.334 -544.341 682.132 -296.861 269.313C-49.3821 -143.506 155.513 -88.7689 454.59 152.649C757.561 397.212 891.872 3.05851 1492.36 -4.04201C1901.64 -8.26637 2344.85 375.341 2795.46 14.8328" stroke="white" stroke-opacity="0.1" stroke-width="0.7253" stroke-miterlimit="10"/>
<path d="M-899.418 381.393C-859.499 363.118 -534.758 677.848 -286.62 272.579C-38.4814 -132.72 159.975 -95.6597 459.532 141.683C763.341 382.412 899.448 14.3234 1502.69 6.02451C1913.2 1.02119 2349.94 357.036 2793.69 -0.386882" stroke="white" stroke-opacity="0.1" stroke-width="0.7304" stroke-miterlimit="10"/>
<path d="M-899.508 372.675C-856.265 352.871 -525.145 673.593 -276.378 275.844C-27.6109 -121.905 164.497 -102.521 464.443 130.748C769.09 367.672 907.024 25.5885 1513 16.1211C1924.76 10.3688 2354.98 338.79 2791.9 -15.6066" stroke="white" stroke-opacity="0.1" stroke-width="0.7356" stroke-miterlimit="10"/>
<path d="M-899.598 363.957C-853.031 342.625 -515.562 669.339 -266.136 279.11C-16.7102 -111.119 168.989 -109.381 469.354 119.783C774.87 352.871 914.571 36.8534 1523.3 26.1876C1936.29 19.6863 2360.04 320.515 2790.13 -30.8262" stroke="white" stroke-opacity="0.1" stroke-width="0.7407" stroke-miterlimit="10"/>
<path d="M-899.688 355.208C-849.796 332.349 -505.979 665.025 -255.894 282.346C-5.80953 -100.333 173.481 -116.302 474.265 108.787C780.62 338.041 922.148 48.0884 1533.6 36.2542C1947.82 29.0039 2365.1 302.239 2788.33 -46.0459" stroke="white" stroke-opacity="0.1" stroke-width="0.7459" stroke-miterlimit="10"/>
<path d="M-899.777 346.49C-846.562 322.103 -496.396 660.77 -245.652 285.611C5.09105 -89.5479 178.003 -123.193 479.177 97.822C786.37 323.241 929.694 59.3234 1543.93 46.3207C1959.38 38.2915 2370.16 283.963 2786.6 -61.2656" stroke="white" stroke-opacity="0.1" stroke-width="0.751" stroke-miterlimit="10"/>
<path d="M-899.867 337.772C-843.328 311.856 -486.783 656.516 -235.411 288.877C15.9615 -78.7623 182.495 -130.054 484.088 86.8566C792.149 308.441 937.241 70.5883 1554.23 56.3873C1970.94 47.609 2375.22 265.688 2784.8 -76.5153" stroke="white" stroke-opacity="0.1" stroke-width="0.7562" stroke-miterlimit="10"/>
<path d="M-899.957 329.053C-840.094 301.61 -477.2 652.232 -225.169 292.142C26.8622 -67.9468 187.017 -136.945 489.029 75.9212C797.959 293.67 944.847 81.8833 1564.56 66.4838C1982.5 56.9565 2380.28 247.442 2783.06 -91.705" stroke="white" stroke-opacity="0.1" stroke-width="0.7613" stroke-miterlimit="10"/>
<path d="M-900.017 320.335C-836.8 291.394 -467.587 647.977 -214.897 295.408C37.7928 -57.161 191.569 -143.835 493.97 64.9559C803.769 278.87 952.424 93.1483 1574.9 76.5804C1994.06 66.3041 2385.37 229.197 2781.3 -106.895" stroke="white" stroke-opacity="0.1" stroke-width="0.7664" stroke-miterlimit="10"/>
<path d="M-900.107 311.616C-833.565 281.147 -457.974 643.693 -204.656 298.674C48.6933 -46.3755 196.121 -150.726 498.881 53.9905C809.548 264.04 960 104.383 1585.2 86.6469C2005.59 75.5916 2390.4 210.921 2779.53 -122.114" stroke="white" stroke-opacity="0.1" stroke-width="0.7716" stroke-miterlimit="10"/>
<path d="M-900.197 302.868C-830.331 270.871 -448.391 639.409 -194.414 301.91C59.5639 -35.5899 200.643 -157.647 503.793 42.9952C815.358 249.21 967.547 115.618 1595.5 96.6835C2017.15 84.8793 2395.46 192.585 2777.73 -137.394" stroke="white" stroke-opacity="0.1" stroke-width="0.7767" stroke-miterlimit="10"/>
<path d="M-900.287 294.15C-827.097 260.625 -438.808 635.155 -184.172 305.175C70.4645 -24.8043 205.195 -164.538 508.704 32.0598C821.138 234.41 975.093 126.913 1605.83 106.78C2028.71 94.2268 2400.55 174.34 2775.97 -152.584" stroke="white" stroke-opacity="0.1" stroke-width="0.7819" stroke-miterlimit="10"/>
<path d="M-900.376 285.431C-823.863 250.378 -429.196 630.87 -173.93 308.441C81.3351 -13.9888 209.717 -171.459 513.615 21.0943C826.947 219.609 982.67 138.148 1616.13 116.876C2040.24 103.574 2405.59 156.094 2774.2 -167.773" stroke="white" stroke-opacity="0.1" stroke-width="0.787" stroke-miterlimit="10"/>
<path d="M-900.466 276.713C-820.628 240.132 -419.613 626.616 -163.688 311.706C92.2357 -3.20314 214.268 -178.379 518.556 10.0991C832.787 204.749 990.247 149.383 1626.46 126.913C2051.8 112.832 2410.68 137.789 2772.43 -183.053" stroke="white" stroke-opacity="0.1" stroke-width="0.7922" stroke-miterlimit="10"/>
<path d="M-900.556 267.995C-817.394 229.886 -410.03 622.362 -153.447 314.972C103.136 7.5825 218.82 -185.27 523.468 -0.836189C838.566 189.949 997.823 160.678 1636.77 137.01C2063.36 122.18 2415.71 119.543 2770.67 -198.243" stroke="white" stroke-opacity="0.1" stroke-width="0.7973" stroke-miterlimit="10"/>
<path d="M-900.646 259.246C-814.16 219.639 -400.447 618.047 -143.205 318.208C114.037 18.3381 223.372 -192.221 528.379 -11.8317C844.406 175.089 1005.37 171.883 1647.07 147.046C2074.88 131.467 2420.77 101.237 2768.87 -213.492" stroke="white" stroke-opacity="0.1" stroke-width="0.8024" stroke-miterlimit="10"/>
<path d="M-900.736 250.528C-810.926 209.393 -390.834 613.793 -132.963 321.474C124.908 29.1538 227.924 -199.141 533.29 -22.767C850.216 160.259 1012.95 183.178 1657.37 157.173C2086.41 140.845 2425.8 83.0218 2767.1 -228.652" stroke="white" stroke-opacity="0.1" stroke-width="0.8076" stroke-miterlimit="10"/>
<path d="M-900.796 241.81C-807.662 199.147 -381.221 609.509 -122.691 324.739C135.838 39.9393 232.536 -206.062 538.232 -33.7323C856.056 145.428 1020.52 194.443 1667.7 167.239C2097.97 150.162 2430.89 64.7462 2765.34 -243.902" stroke="white" stroke-opacity="0.1" stroke-width="0.8127" stroke-miterlimit="10"/>
<path d="M-900.886 233.091C-804.427 188.9 -371.638 605.254 -112.45 328.005C146.739 50.7548 237.088 -212.983 543.143 -44.6978C861.895 130.568 1028.07 205.678 1678.03 177.306C2109.56 159.45 2435.98 46.4405 2763.6 -259.122" stroke="white" stroke-opacity="0.1" stroke-width="0.8179" stroke-miterlimit="10"/>
<path d="M-900.975 224.373C-801.193 178.654 -362.025 601 -102.208 331.27C157.609 61.5404 241.67 -219.964 548.084 -55.6631C867.735 115.738 1035.68 216.943 1688.36 187.402C2121.12 168.797 2441.04 28.195 2761.83 -274.311" stroke="white" stroke-opacity="0.1" stroke-width="0.823" stroke-miterlimit="10"/>
<path d="M-901.065 215.655C-797.929 168.408 -352.442 596.716 -91.9662 334.536C168.51 72.326 246.251 -226.885 552.995 -66.5986C873.574 100.908 1043.22 228.238 1698.66 197.499C2132.65 178.145 2446.1 9.94922 2760.03 -289.501" stroke="white" stroke-opacity="0.1" stroke-width="0.8282" stroke-miterlimit="10"/>
<path d="M-901.155 206.906C-794.695 158.131 -342.859 592.432 -81.7244 337.772C179.411 83.1117 250.833 -233.835 557.906 -77.5938C879.414 85.9878 1050.8 239.443 1708.97 207.535C2144.18 187.432 2451.13 -8.35629 2758.27 -304.781" stroke="white" stroke-opacity="0.1" stroke-width="0.8333" stroke-miterlimit="10"/>
<path d="M-901.245 198.188C-791.46 147.915 -333.276 588.177 -71.4826 341.037C190.311 93.8972 255.415 -240.786 562.818 -88.5591C885.253 71.1277 1058.35 250.708 1719.27 217.602C2155.74 196.72 2456.2 -26.6318 2756.47 -320" stroke="white" stroke-opacity="0.1" stroke-width="0.8385" stroke-miterlimit="10"/>
<path d="M-901.335 189.47C-788.226 137.669 -323.663 583.893 -61.2408 344.303C201.182 104.683 259.997 -247.767 567.729 -99.5246C891.093 56.2375 1065.89 261.973 1729.57 227.699C2167.27 206.067 2461.23 -44.8776 2754.7 -335.19" stroke="white" stroke-opacity="0.1" stroke-width="0.8436" stroke-miterlimit="10"/>
<path d="M-901.425 180.751C-784.992 127.422 -314.081 579.639 -50.9992 347.568C212.082 115.498 264.579 -254.717 572.64 -110.49C896.963 41.3773 1073.47 273.238 1739.9 237.765C2178.83 215.385 2466.32 -63.1532 2752.94 -350.41" stroke="white" stroke-opacity="0.1" stroke-width="0.8487" stroke-miterlimit="10"/>
<path d="M-901.514 172.033C-781.758 117.176 -304.498 575.354 -40.7574 350.834C222.983 126.284 269.191 -261.698 577.581 -121.425C902.832 26.5172 1081.04 284.503 1750.23 247.862C2190.39 224.733 2471.41 -81.3987 2751.2 -365.629" stroke="white" stroke-opacity="0.1" stroke-width="0.8539" stroke-miterlimit="10"/>
<path d="M-901.574 163.285C-778.494 106.9 -294.855 571.07 -30.4856 354.04C233.884 137.01 273.802 -268.739 582.523 -132.451C908.702 11.5671 1088.62 295.738 1760.53 257.898C2201.92 233.99 2476.44 -99.7043 2749.4 -380.879" stroke="white" stroke-opacity="0.1" stroke-width="0.859" stroke-miterlimit="10"/>
<path d="M-901.664 154.566C-775.259 96.6536 -285.272 566.816 -20.2439 357.306C244.784 147.795 278.414 -275.719 587.434 -143.416C914.571 -3.35291 1096.2 306.973 1770.87 267.965C2213.51 243.308 2481.53 -118.01 2747.64 -396.099" stroke="white" stroke-opacity="0.1" stroke-width="0.8642" stroke-miterlimit="10"/>
<path d="M-901.754 145.848C-772.025 86.4072 -275.689 562.532 -10.0022 360.571C255.685 158.611 282.996 -282.7 592.345 -154.381C920.441 -18.273 1103.77 318.208 1781.17 278.031C2225.04 252.625 2486.56 -136.286 2745.87 -411.348" stroke="white" stroke-opacity="0.1" stroke-width="0.8693" stroke-miterlimit="10"/>
<path d="M-901.844 137.13C-768.791 76.161 -266.076 558.277 0.239482 363.837C266.585 169.426 287.608 -289.711 597.256 -165.317C926.31 -33.1631 1111.32 329.503 1791.47 288.128C2236.57 261.973 2491.62 -154.531 2744.07 -426.538" stroke="white" stroke-opacity="0.1" stroke-width="0.8745" stroke-miterlimit="10"/>
<path d="M-901.934 128.411C-765.557 65.9446 -256.493 554.023 10.4813 367.103C277.456 180.212 292.219 -296.721 602.197 -176.282C932.18 -48.0831 1118.9 340.768 1801.83 298.195C2248.16 271.29 2496.71 -172.807 2742.37 -441.758" stroke="white" stroke-opacity="0.1" stroke-width="0.8796" stroke-miterlimit="10"/>
<path d="M-902.024 119.663C-762.322 55.6683 -246.91 549.709 20.7231 370.338C288.356 190.968 296.831 -303.762 607.109 -187.277C938.049 -63.0332 1126.47 352.003 1812.13 308.261C2259.72 280.578 2501.77 -191.082 2740.57 -456.977" stroke="white" stroke-opacity="0.1" stroke-width="0.8847" stroke-miterlimit="10"/>
<path d="M-902.113 110.944C-759.058 45.4219 -237.327 545.454 30.9649 373.604C299.257 201.783 301.443 -310.773 612.02 -198.243C943.919 -77.9833 1134.02 363.238 1822.43 318.328C2271.25 289.895 2506.84 -209.358 2738.8 -472.227" stroke="white" stroke-opacity="0.1" stroke-width="0.8899" stroke-miterlimit="10"/>
<path d="M-902.203 102.226C-755.824 35.1756 -227.715 541.17 41.2066 376.869C310.128 212.569 306.055 -317.783 616.931 -209.208C949.788 -92.9334 1141.6 374.503 1832.74 328.394C2282.77 299.213 2511.87 -227.634 2737.01 -487.447" stroke="white" stroke-opacity="0.1" stroke-width="0.895" stroke-miterlimit="10"/>
<path d="M-902.293 93.5077C-752.59 24.9293 -218.131 536.916 51.4484 380.135C321.028 223.354 310.667 -324.824 621.843 -220.144C955.658 -107.853 1149.14 385.768 1843.04 338.491C2294.3 308.561 2516.93 -245.879 2735.24 -502.636" stroke="white" stroke-opacity="0.1" stroke-width="0.9002" stroke-miterlimit="10"/>
<path d="M-902.383 84.7894C-749.355 14.683 -208.549 532.661 61.6901 383.401C331.929 234.17 315.279 -331.864 626.754 -231.109C961.528 -122.833 1156.69 397.033 1853.34 348.587C2305.86 317.878 2521.96 -264.125 2733.44 -517.826" stroke="white" stroke-opacity="0.1" stroke-width="0.9053" stroke-miterlimit="10"/>
<path d="M-902.443 76.071C-746.091 4.43666 -198.906 528.377 71.962 386.666C342.83 244.956 319.92 -338.905 631.725 -242.074C967.457 -137.813 1164.33 408.298 1863.73 358.654C2317.48 327.196 2527.11 -282.43 2731.74 -533.076" stroke="white" stroke-opacity="0.1" stroke-width="0.9105" stroke-miterlimit="10"/>
<path d="M-902.533 67.3227C-742.857 -5.80961 -189.323 524.093 82.2037 389.902C353.73 255.711 324.532 -346.005 636.636 -253.07C973.327 -152.823 1171.87 419.502 1874.03 368.69C2329.01 336.483 2532.14 -300.736 2729.97 -548.325" stroke="white" stroke-opacity="0.1" stroke-width="0.9156" stroke-miterlimit="10"/>
<path d="M-902.622 58.6043C-739.623 -16.056 -179.74 519.839 92.4454 393.168C364.631 266.527 329.144 -353.046 641.548 -264.005C979.226 -167.773 1179.45 430.797 1884.33 378.817C2340.54 345.861 2537.2 -318.952 2728.17 -563.485" stroke="white" stroke-opacity="0.1" stroke-width="0.9208" stroke-miterlimit="10"/>
<path d="M-902.712 49.886C-736.388 -26.3023 -170.127 515.554 102.687 396.433C375.531 277.312 333.756 -360.117 646.459 -274.97C985.096 -182.753 1187 442.062 1894.64 388.883C2352.1 355.149 2542.26 -337.227 2726.4 -578.735" stroke="white" stroke-opacity="0.1" stroke-width="0.9259" stroke-miterlimit="10"/>
<path d="M-902.802 41.1676C-733.154 -36.5486 -160.544 511.3 112.929 399.699C386.402 288.098 338.367 -367.187 651.37 -285.936C990.965 -197.763 1194.54 453.297 1904.94 398.95C2363.63 364.466 2547.29 -355.503 2724.61 -593.954" stroke="white" stroke-opacity="0.1" stroke-width="0.931" stroke-miterlimit="10"/>
<path d="M-902.892 32.4493C-729.92 -46.7949 -150.961 507.016 123.171 402.964C397.302 298.913 342.979 -374.288 656.281 -296.901C996.835 -212.773 1202.12 464.562 1915.24 409.016C2375.16 373.784 2552.35 -373.778 2722.84 -609.174" stroke="white" stroke-opacity="0.1" stroke-width="0.9362" stroke-miterlimit="10"/>
<path d="M-902.982 23.701C-726.656 -57.0412 -141.348 502.731 133.412 406.23C408.203 309.699 347.591 -381.388 661.222 -307.866C1002.73 -227.813 1209.7 475.827 1925.57 419.113C2386.72 383.131 2557.42 -392.024 2721.07 -624.364" stroke="white" stroke-opacity="0.1" stroke-width="0.9413" stroke-miterlimit="10"/>
<path d="M-903.072 14.9827C-723.452 -67.3175 -131.765 498.477 143.654 409.466C419.074 320.485 352.173 -388.519 666.134 -318.832C1008.6 -242.853 1217.27 487.092 1935.9 429.18C2398.31 392.419 2562.51 -410.3 2719.34 -639.613" stroke="white" stroke-opacity="0.1" stroke-width="0.9465" stroke-miterlimit="10"/>
<path d="M-903.161 6.26425C-720.217 -77.5339 -122.182 494.193 153.896 412.732C429.974 331.27 356.785 -395.619 671.045 -329.797C1014.47 -257.893 1224.82 498.327 1946.2 439.246C2409.84 401.736 2567.54 -428.575 2717.54 -654.833" stroke="white" stroke-opacity="0.1" stroke-width="0.9516" stroke-miterlimit="10"/>
<path d="M-903.221 -2.45421C-716.923 -87.7803 -112.57 489.938 164.168 415.997C440.875 342.056 361.426 -402.72 675.986 -340.763C1020.37 -272.933 1232.43 509.592 1956.54 449.313C2421.4 411.054 2572.63 -446.881 2715.77 -670.053" stroke="white" stroke-opacity="0.1" stroke-width="0.9568" stroke-miterlimit="10"/>
<path d="M-903.311 -11.1725C-713.689 -98.0266 -102.957 485.684 174.409 419.263C451.775 352.871 366.038 -409.85 680.897 -351.728C1026.21 -287.973 1239.97 520.857 1966.84 459.409C2432.93 420.401 2577.69 -465.126 2714.01 -685.243" stroke="white" stroke-opacity="0.1" stroke-width="0.9619" stroke-miterlimit="10"/>
<path d="M-903.401 -19.9207C-710.455 -108.303 -93.3736 481.37 184.651 422.499C462.676 363.627 370.62 -417.011 685.809 -362.723C1032.08 -303.073 1247.52 532.062 1977.14 469.446C2444.49 429.689 2582.72 -483.432 2712.21 -700.522" stroke="white" stroke-opacity="0.1" stroke-width="0.967" stroke-miterlimit="10"/>
<path d="M-903.491 -28.6392C-707.221 -118.549 -83.7908 477.116 194.893 425.764C473.577 374.413 375.232 -424.141 690.75 -373.659C1037.95 -318.113 1255.09 543.357 1987.47 479.542C2456.05 439.006 2587.81 -501.678 2710.47 -715.712" stroke="white" stroke-opacity="0.1" stroke-width="0.9722" stroke-miterlimit="10"/>
<path d="M-903.581 -37.3576C-703.986 -128.795 -74.178 472.831 205.135 429.03C484.477 385.228 379.813 -431.272 695.661 -384.624C1043.82 -333.213 1262.67 554.622 1997.8 489.609C2467.61 448.324 2592.87 -519.953 2708.71 -730.932" stroke="white" stroke-opacity="0.1" stroke-width="0.9773" stroke-miterlimit="10"/>
<path d="M-903.671 -46.0759C-700.752 -139.042 -64.5949 468.577 215.377 432.295C495.348 396.014 384.426 -438.432 700.573 -395.589C1049.69 -348.282 1270.25 565.857 2008.1 499.705C2479.14 457.672 2597.93 -538.199 2706.94 -746.151" stroke="white" stroke-opacity="0.1" stroke-width="0.9825" stroke-miterlimit="10"/>
<path d="M-903.76 -54.7942C-697.518 -149.288 -55.012 464.323 225.618 435.561C506.248 406.799 389.067 -446.132 705.484 -406.555C1055.62 -364.011 1277.79 577.122 2018.41 509.772C2490.66 466.989 2602.96 -556.474 2705.14 -761.371" stroke="white" stroke-opacity="0.1" stroke-width="0.9876" stroke-miterlimit="10"/>
<path d="M-903.85 -63.5127C-694.283 -159.505 -45.4291 460.038 235.86 438.827C517.149 417.615 393.619 -453.112 710.395 -417.49C1061.46 -378.902 1285.37 588.387 2028.74 519.838C2502.25 476.277 2608.06 -574.75 2703.41 -776.591" stroke="white" stroke-opacity="0.1" stroke-width="0.9928" stroke-miterlimit="10"/>
<path d="M-903.94 -72.261C-691.049 -169.781 -35.8161 455.754 246.102 442.062C528.02 428.371 398.171 -460.123 715.306 -428.485C1067.24 -393.822 1292.92 599.622 2039.01 529.905C2513.75 485.594 2613.06 -593.026 2701.58 -791.81" stroke="white" stroke-opacity="0.1" stroke-width="0.9979" stroke-miterlimit="10"/>
<path d="M-904 -80.9793C-687.785 -180.027 -26.2034 451.5 256.373 445.328C538.95 439.156 402.783 -467.104 720.277 -439.451C1073.11 -408.712 1300.52 610.887 2049.37 540.002C2525.34 494.942 2618.18 -611.301 2699.84 -807" stroke="white" stroke-opacity="0.1" stroke-width="1.0031" stroke-miterlimit="10"/>
<g filter="url(#filter0_d_1_11)">
<rect y="-1" width="400" height="400" rx="6" fill="url(#paint0_linear_1_11)"/>
<rect x="0.5" y="-0.5" width="399" height="399" rx="5.5" stroke="url(#paint1_linear_1_11)" stroke-opacity="0.2"/>
</g>
<g clip-path="url(#clip1_1_11)">
<path d="M304.5 210C283.832 210 263.628 216.217 246.443 227.864C229.258 239.512 215.864 256.067 207.955 275.436C200.045 294.805 197.976 316.118 202.008 336.68C206.04 357.242 215.993 376.129 230.607 390.953C245.222 405.778 263.842 415.873 284.113 419.963C304.384 424.053 325.396 421.954 344.49 413.931C363.585 405.908 379.906 392.322 391.389 374.89C402.871 357.459 409 336.965 409 316C409 287.887 397.99 260.926 378.393 241.047C358.795 221.168 332.215 210 304.5 210ZM304.5 395.5C288.999 395.5 273.846 390.837 260.957 382.102C248.069 373.366 238.023 360.95 232.091 346.423C226.159 331.897 224.607 315.912 227.631 300.49C230.655 285.069 238.12 270.903 249.081 259.785C260.041 248.667 274.007 241.095 289.21 238.028C304.413 234.96 320.172 236.534 334.493 242.552C348.814 248.569 361.055 258.758 369.666 271.832C378.278 284.906 382.875 300.276 382.875 316C382.853 337.078 374.588 357.286 359.895 372.19C345.201 387.094 325.279 395.477 304.5 395.5Z" fill="url(#paint2_linear_1_11)"/>
<path d="M330.756 316H311.031C309.299 316 307.638 315.302 306.413 314.06C305.188 312.817 304.5 311.132 304.5 309.375V289.367C304.501 287.645 304.167 285.939 303.517 284.347C302.868 282.755 301.915 281.308 300.714 280.09C299.513 278.872 298.087 277.906 296.518 277.247C294.949 276.588 293.267 276.249 291.568 276.25H291.307C289.608 276.249 287.926 276.588 286.357 277.247C284.788 277.906 283.362 278.872 282.161 280.09C280.96 281.308 280.007 282.755 279.358 284.347C278.708 285.939 278.374 287.645 278.375 289.367V329.383C278.374 331.105 278.708 332.811 279.358 334.403C280.007 335.995 280.96 337.442 282.161 338.66C283.362 339.878 284.788 340.844 286.357 341.503C287.926 342.162 289.608 342.501 291.307 342.5H330.756C332.454 342.501 334.136 342.162 335.705 341.503C337.275 340.844 338.701 339.878 339.902 338.66C341.103 337.442 342.055 335.995 342.705 334.403C343.354 332.811 343.688 331.105 343.688 329.383V329.118C343.688 327.395 343.354 325.689 342.705 324.097C342.055 322.505 341.103 321.058 339.902 319.84C338.701 318.622 337.275 317.656 335.705 316.997C334.136 316.338 332.454 315.999 330.756 316Z" fill="url(#paint3_linear_1_11)"/>
</g>
<g filter="url(#filter1_d_1_11)">
<rect x="435" y="-1" width="400" height="400" rx="6" fill="url(#paint4_linear_1_11)"/>
<rect x="435.5" y="-0.5" width="399" height="399" rx="5.5" stroke="url(#paint5_linear_1_11)" stroke-opacity="0.2"/>
</g>
</g>
<defs>
<filter id="filter0_d_1_11" x="-80" y="-81" width="560" height="560" filterUnits="userSpaceOnUse" color-interpolation-filters="sRGB">
<feFlood flood-opacity="0" result="BackgroundImageFix"/>
<feColorMatrix in="SourceAlpha" type="matrix" values="0 0 0 0 0 0 0 0 0 0 0 0 0 0 0 0 0 0 127 0" result="hardAlpha"/>
<feOffset/>
<feGaussianBlur stdDeviation="40"/>
<feComposite in2="hardAlpha" operator="out"/>
<feColorMatrix type="matrix" values="0 0 0 0 0.172549 0 0 0 0 0.172549 0 0 0 0 0.176471 0 0 0 0.35 0"/>
<feBlend mode="normal" in2="BackgroundImageFix" result="effect1_dropShadow_1_11"/>
<feBlend mode="normal" in="SourceGraphic" in2="effect1_dropShadow_1_11" result="shape"/>
</filter>
<filter id="filter1_d_1_11" x="355" y="-81" width="560" height="560" filterUnits="userSpaceOnUse" color-interpolation-filters="sRGB">
<feFlood flood-opacity="0" result="BackgroundImageFix"/>
<feColorMatrix in="SourceAlpha" type="matrix" values="0 0 0 0 0 0 0 0 0 0 0 0 0 0 0 0 0 0 127 0" result="hardAlpha"/>
<feOffset/>
<feGaussianBlur stdDeviation="40"/>
<feComposite in2="hardAlpha" operator="out"/>
<feColorMatrix type="matrix" values="0 0 0 0 0.172549 0 0 0 0 0.172549 0 0 0 0 0.176471 0 0 0 0.35 0"/>
<feBlend mode="normal" in2="BackgroundImageFix" result="effect1_dropShadow_1_11"/>
<feBlend mode="normal" in="SourceGraphic" in2="effect1_dropShadow_1_11" result="shape"/>
</filter>
<linearGradient id="paint0_linear_1_11" x1="44.3636" y1="35.6973" x2="351.61" y2="396.234" gradientUnits="userSpaceOnUse">
<stop stop-color="#303134"/>
<stop offset="0.519792" stop-color="#282828"/>
<stop offset="0.927909" stop-color="#282828"/>
</linearGradient>
<linearGradient id="paint1_linear_1_11" x1="5.00001" y1="5.99999" x2="400" y2="399" gradientUnits="userSpaceOnUse">
<stop stop-color="white"/>
<stop offset="1" stop-color="white" stop-opacity="0"/>
</linearGradient>
<linearGradient id="paint2_linear_1_11" x1="238" y1="239" x2="378" y2="385" gradientUnits="userSpaceOnUse">
<stop stop-color="#414141"/>
<stop offset="0.728332" stop-color="#262626"/>
</linearGradient>
<linearGradient id="paint3_linear_1_11" x1="278" y1="276" x2="337" y2="349" gradientUnits="userSpaceOnUse">
<stop stop-color="#404040"/>
<stop offset="1" stop-color="#282828"/>
</linearGradient>
<linearGradient id="paint4_linear_1_11" x1="479.364" y1="35.6973" x2="786.61" y2="396.234" gradientUnits="userSpaceOnUse">
<stop stop-color="#303134"/>
<stop offset="0.519792" stop-color="#282828"/>
<stop offset="0.927909" stop-color="#282828"/>
</linearGradient>
<linearGradient id="paint5_linear_1_11" x1="435" y1="4.99999" x2="835" y2="399" gradientUnits="userSpaceOnUse">
<stop stop-color="white"/>
<stop offset="1" stop-color="white" stop-opacity="0"/>
</linearGradient>
<clipPath id="clip0_1_11">
<rect width="1920" height="4905" fill="white" transform="translate(-325 -1577)"/>
</clipPath>
<clipPath id="clip1_1_11">
<rect width="200" height="189" fill="white" transform="translate(200 210)"/>
</clipPath>
</defs>
</svg>
