<svg width="400" height="400" viewBox="0 0 400 400" fill="none" xmlns="http://www.w3.org/2000/svg">
<g clip-path="url(#clip0_1_11)">
<rect width="1920" height="4905" transform="translate(-1195 -1576)" fill="#161617"/>
<path d="M-1538.89 1173.27C-1104.09 1463.03 -725.538 894.715 -411.443 874.026C41.2182 844.224 161.621 1379.65 382.627 1139.14C603.634 898.634 811.602 688.805 1024.21 1071.82C1236.82 1454.84 1423.53 1250.9 1423.53 1250.9" stroke="white" stroke-opacity="0.1" stroke-width="0.6482" stroke-miterlimit="10"/>
<path d="M1423.11 1241.07C1419.28 1239.57 1225.83 1450.62 1012.95 1076.09C800.058 701.564 598.102 891.051 376.466 1127.11C154.207 1363.27 33.4258 857.301 -422.357 885.942C-737.914 905.877 -1110.89 1442.86 -1537.86 1156.08" stroke="white" stroke-opacity="0.1" stroke-width="0.6553" stroke-miterlimit="10"/>
<path d="M1422.65 1231.3C1414.99 1228.29 1214.77 1446.44 1001.63 1080.41C788.497 714.38 592.553 883.525 370.258 1115.13C146.747 1346.93 25.625 870.407 -433.317 897.907C-750.299 917.068 -1117.71 1422.65 -1536.81 1138.91" stroke="white" stroke-opacity="0.1" stroke-width="0.6623" stroke-miterlimit="10"/>
<path d="M1422.23 1221.5C1410.73 1217 1203.77 1442.25 990.359 1084.71C776.945 727.168 587.011 875.97 364.05 1103.15C139.259 1330.59 17.8152 883.541 -444.277 909.872C-762.675 928.231 -1124.51 1402.48 -1535.78 1121.7" stroke="white" stroke-opacity="0.1" stroke-width="0.6694" stroke-miterlimit="10"/>
<path d="M1421.78 1211.69C1406.48 1205.7 1192.72 1438.03 979.056 1088.99C765.392 739.955 581.969 868.941 357.851 1091.14C132.315 1314.73 10.0516 896.627 -455.237 921.837C-775.059 939.422 -1131.34 1382.3 -1534.72 1104.52" stroke="white" stroke-opacity="0.1" stroke-width="0.6764" stroke-miterlimit="10"/>
<path d="M1421.32 1201.91C1402.19 1194.39 1181.69 1433.86 967.744 1093.31C753.839 752.743 576.517 861.507 351.644 1079.16C124.972 1298.52 2.24191 909.761 -466.189 933.773C-787.435 950.584 -1138.14 1362.1 -1533.67 1087.35" stroke="white" stroke-opacity="0.1" stroke-width="0.6835" stroke-miterlimit="10"/>
<path d="M1420.9 1192.12C1397.94 1183.1 1170.66 1429.66 956.47 1097.61C742.287 765.53 571.093 854.082 345.445 1067.15C117.61 1282.28 -5.55045 922.838 -477.141 945.71C-799.819 961.775 -1144.97 1341.92 -1532.64 1070.13" stroke="white" stroke-opacity="0.1" stroke-width="0.6905" stroke-miterlimit="10"/>
<path d="M1420.44 1182.31C1393.65 1171.79 1159.64 1425.46 945.175 1101.87C730.715 778.281 565.641 846.647 339.246 1055.14C110.248 1266.04 -13.3513 935.944 -488.092 957.646C-812.204 972.966 -1151.76 1321.72 -1531.59 1052.96" stroke="white" stroke-opacity="0.1" stroke-width="0.6976" stroke-miterlimit="10"/>
<path d="M1419.99 1172.51C1389.37 1160.48 1148.58 1421.25 933.872 1106.16C719.154 791.097 560.16 839.205 333.038 1043.16C102.876 1249.83 -21.1524 949.05 -499.052 969.611C-824.609 984.12 -1158.59 1301.54 -1530.56 1035.77" stroke="white" stroke-opacity="0.1" stroke-width="0.7046" stroke-miterlimit="10"/>
<path d="M1419.56 1162.74C1385.1 1149.21 1137.58 1417.08 922.588 1110.48C707.601 803.885 554.699 831.799 326.839 1031.15C95.514 1233.59 -28.9449 962.127 -510.004 981.547C-836.993 995.311 -1165.39 1281.34 -1529.5 1018.57" stroke="white" stroke-opacity="0.1" stroke-width="0.7117" stroke-miterlimit="10"/>
<path d="M1419.11 1152.93C1380.82 1137.91 1126.52 1412.87 911.285 1114.77C696.049 816.672 549.219 824.357 320.64 1019.14C88.123 1217.34 -36.7459 975.232 -520.935 993.521C-849.34 1006.48 -1172.19 1261.17 -1528.45 1001.39" stroke="white" stroke-opacity="0.1" stroke-width="0.7187" stroke-miterlimit="10"/>
<path d="M1418.66 1143.13C1376.56 1126.61 1115.5 1408.67 899.982 1119.06C684.496 829.46 543.738 816.914 314.432 1007.16C80.7321 1201.09 -44.5181 988.347 -531.887 1005.46C-861.753 1017.66 -1179.02 1240.99 -1527.43 984.208" stroke="white" stroke-opacity="0.1" stroke-width="0.7257" stroke-miterlimit="10"/>
<path d="M1418.24 1133.33C1372.31 1115.31 1104.47 1404.47 888.708 1123.36C672.944 842.247 538.228 809.462 308.233 995.154C73.3124 1184.84 -52.3477 1001.44 -542.867 1017.38C-874.129 1028.83 -1185.81 1220.79 -1526.37 967.004" stroke="white" stroke-opacity="0.1" stroke-width="0.7328" stroke-miterlimit="10"/>
<path d="M1417.78 1123.55C1368.03 1104.01 1093.44 1400.29 877.396 1127.67C661.354 855.055 532.719 802.011 302.026 983.173C65.9127 1168.61 -60.1488 1014.55 -553.827 1029.35C-886.514 1040.02 -1192.64 1200.61 -1525.34 949.82" stroke="white" stroke-opacity="0.1" stroke-width="0.7398" stroke-miterlimit="10"/>
<path d="M1417.35 1113.75C1363.77 1092.71 1082.41 1396.09 866.122 1131.97C649.811 867.814 527.209 794.56 295.855 971.173C58.5304 1152.34 -67.8925 1027.67 -564.75 1041.29C-898.89 1051.18 -1199.44 1180.41 -1524.29 932.644" stroke="white" stroke-opacity="0.1" stroke-width="0.7469" stroke-miterlimit="10"/>
<path d="M1416.9 1103.95C1359.49 1081.4 1071.38 1391.92 854.818 1136.26C638.258 880.602 521.708 787.08 289.656 959.164C51.082 1136.07 -75.7221 1040.77 -575.71 1053.26C-911.274 1062.37 -1206.27 1160.23 -1523.23 915.44" stroke="white" stroke-opacity="0.1" stroke-width="0.7539" stroke-miterlimit="10"/>
<path d="M1416.44 1094.17C1355.19 1070.12 1060.32 1387.73 843.515 1140.55C626.714 893.361 516.17 779.62 283.449 947.183C43.6624 1119.81 -83.4944 1053.88 -586.633 1065.2C-923.65 1073.53 -1213.03 1140.04 -1522.18 898.264" stroke="white" stroke-opacity="0.1" stroke-width="0.761" stroke-miterlimit="10"/>
<path d="M1416.02 1084.37C1350.94 1058.83 1049.29 1383.53 832.241 1144.84C615.153 906.177 510.67 772.14 277.25 935.174C36.2141 1103.55 -91.2868 1066.96 -597.585 1077.14C-936.063 1084.72 -1219.89 1119.85 -1521.15 881.08" stroke="white" stroke-opacity="0.1" stroke-width="0.768" stroke-miterlimit="10"/>
<path d="M1415.57 1074.57C1346.65 1047.52 1038.27 1379.33 820.937 1149.13C603.601 918.965 505.103 764.671 271.051 923.165C28.7742 1087.25 -99.0877 1080.07 -608.536 1089.08C-948.411 1095.89 -1226.69 1099.65 -1520.09 863.876" stroke="white" stroke-opacity="0.1" stroke-width="0.7751" stroke-miterlimit="10"/>
<path d="M1415.12 1064.76C1342.4 1036.22 1027.21 1375.12 809.634 1153.42C592.028 931.715 499.544 757.174 264.852 911.156C21.3059 1070.95 -106.88 1093.14 -619.488 1101.01C-960.815 1107.04 -1233.48 1079.46 -1519.06 846.663" stroke="white" stroke-opacity="0.1" stroke-width="0.7821" stroke-miterlimit="10"/>
<path d="M1414.68 1054.99C1338.13 1024.95 1016.21 1370.95 798.351 1157.75C580.467 944.531 493.986 749.676 258.644 899.175C13.8288 1054.67 -114.69 1106.28 -630.456 1113.01C-973.208 1118.26 -1240.32 1059.3 -1518.01 829.516" stroke="white" stroke-opacity="0.1" stroke-width="0.7892" stroke-miterlimit="10"/>
<path d="M1414.23 1045.19C1333.86 1013.62 1005.15 1366.74 787.048 1162.04C568.914 957.319 488.428 742.179 252.436 887.195C6.36056 1038.37 -122.491 1119.38 -641.408 1124.94C-985.584 1129.42 -1247.14 1039.1 -1516.99 812.331" stroke="white" stroke-opacity="0.1" stroke-width="0.7962" stroke-miterlimit="10"/>
<path d="M1413.78 1035.38C1329.6 1002.35 994.127 1362.54 775.745 1166.32C557.362 970.107 482.87 734.682 246.237 875.185C-1.108 1022.06 -130.283 1132.46 -652.36 1136.88C-997.96 1140.58 -1253.94 1018.92 -1515.93 795.127" stroke="white" stroke-opacity="0.1" stroke-width="0.8033" stroke-miterlimit="10"/>
<path d="M1413.35 1025.61C1325.31 991.043 983.094 1358.37 764.433 1170.64C545.781 982.886 477.292 727.147 240.039 863.176C-8.59603 1005.72 -138.084 1145.57 -663.311 1148.81C-1010.36 1151.74 -1260.76 998.716 -1514.9 777.914" stroke="white" stroke-opacity="0.1" stroke-width="0.8103" stroke-miterlimit="10"/>
<path d="M1412.9 1015.81C1321.03 979.737 972.068 1354.17 753.13 1174.93C534.229 995.673 471.705 719.641 233.831 851.196C-16.0932 989.411 -145.856 1158.68 -674.271 1160.78C-1022.76 1162.96 -1267.57 978.545 -1513.84 760.739" stroke="white" stroke-opacity="0.1" stroke-width="0.8173" stroke-miterlimit="10"/>
<path d="M1412.48 1006.01C1316.77 968.439 961.043 1349.96 741.864 1179.2C522.676 1008.46 466.127 712.106 227.632 839.187C-23.5816 973.07 -153.657 1171.79 -685.223 1172.72C-1035.13 1174.12 -1274.37 958.375 -1512.79 743.563" stroke="white" stroke-opacity="0.1" stroke-width="0.8244" stroke-miterlimit="10"/>
<path d="M1412.03 996.204C1312.49 957.133 950.018 1345.76 730.552 1183.51C511.124 1021.25 460.528 704.534 221.424 827.206C-31.0787 956.757 -161.458 1184.89 -696.183 1184.68C-1047.52 1185.31 -1281.2 938.195 -1511.77 726.379" stroke="white" stroke-opacity="0.1" stroke-width="0.8314" stroke-miterlimit="10"/>
<path d="M1411.57 986.427C1308.22 945.864 938.956 1341.58 719.249 1187.8C499.571 1034.04 454.922 696.991 215.225 815.197C-38.587 940.379 -169.259 1198 -707.134 1196.62C-1059.92 1196.46 -1288.02 917.986 -1510.74 709.166" stroke="white" stroke-opacity="0.1" stroke-width="0.8385" stroke-miterlimit="10"/>
<path d="M1411.14 976.63C1303.98 934.537 927.93 1337.38 707.975 1192.1C488.019 1046.82 449.323 689.419 209.055 803.196C-46.0667 924.009 -177.023 1211.08 -718.057 1208.56C-1072.28 1207.66 -1294.82 897.815 -1509.65 691.999" stroke="white" stroke-opacity="0.1" stroke-width="0.8455" stroke-miterlimit="10"/>
<path d="M1410.69 966.824C1299.68 923.26 916.905 1333.17 696.671 1196.39C476.438 1059.6 443.725 681.847 202.847 791.216C-53.5752 907.631 -184.833 1224.22 -729.017 1220.53C-1084.65 1218.83 -1301.62 877.616 -1508.63 674.815" stroke="white" stroke-opacity="0.1" stroke-width="0.8526" stroke-miterlimit="10"/>
<path d="M1410.24 957.018C1295.41 911.925 905.88 1328.97 685.368 1200.68C464.885 1072.39 438.107 674.238 196.62 779.198C-61.1409 891.235 -192.654 1237.29 -739.998 1232.45C-1097.04 1230.02 -1308.45 857.436 -1507.58 657.639" stroke="white" stroke-opacity="0.1" stroke-width="0.8596" stroke-miterlimit="10"/>
<path d="M1409.81 947.249C1291.15 900.656 894.846 1324.8 674.094 1204.97C453.333 1085.18 432.517 666.637 190.449 767.198C-68.6406 874.828 -200.426 1250.4 -750.929 1244.43C-1109.41 1241.18 -1315.24 837.236 -1506.55 640.426" stroke="white" stroke-opacity="0.1" stroke-width="0.8667" stroke-miterlimit="10"/>
<path d="M1409.36 937.444C1286.86 889.35 883.792 1320.59 662.782 1209.29C441.78 1097.97 426.89 659.056 184.242 755.217C-76.1691 858.412 -208.227 1263.51 -761.881 1256.36C-1121.83 1252.36 -1322.07 817.057 -1505.49 623.25" stroke="white" stroke-opacity="0.1" stroke-width="0.8737" stroke-miterlimit="10"/>
<path d="M1408.91 927.638C1282.61 878.052 872.767 1316.39 651.479 1213.58C430.228 1110.75 421.281 651.418 178.043 743.208C-83.6975 841.996 -216.028 1276.61 -772.841 1268.33C-1134.21 1263.55 -1328.87 796.857 -1504.44 606.075" stroke="white" stroke-opacity="0.1" stroke-width="0.8808" stroke-miterlimit="10"/>
<path d="M1408.47 917.869C1278.34 866.783 861.733 1312.21 640.204 1217.88C418.647 1123.53 415.671 643.78 171.835 731.227C-91.2174 825.552 -223.829 1289.72 -783.792 1280.27C-1146.59 1274.72 -1335.7 776.677 -1503.41 588.862" stroke="white" stroke-opacity="0.1" stroke-width="0.8878" stroke-miterlimit="10"/>
<path d="M1408.02 908.063C1274.06 855.477 850.708 1308.01 628.901 1222.16C407.094 1136.32 410.033 636.134 165.636 719.218C-98.7573 809.07 -231.593 1302.8 -794.715 1292.21C-1158.97 1285.91 -1342.5 756.506 -1502.36 571.686" stroke="white" stroke-opacity="0.1" stroke-width="0.8949" stroke-miterlimit="10"/>
<path d="M1407.57 898.257C1269.77 844.17 839.654 1303.8 617.598 1226.45C395.542 1149.11 404.424 628.496 159.437 707.209C-106.268 792.597 -239.394 1315.91 -805.667 1304.15C-1171.35 1297.07 -1349.32 736.298 -1501.33 554.502" stroke="white" stroke-opacity="0.1" stroke-width="0.9019" stroke-miterlimit="10"/>
<path d="M1407.15 888.46C1265.52 832.873 828.657 1299.61 606.323 1230.75C383.99 1161.9 398.802 620.791 153.238 695.2C-113.808 776.115 -247.186 1328.99 -816.618 1316.08C-1183.73 1308.26 -1356.12 716.127 -1500.27 537.298" stroke="white" stroke-opacity="0.1" stroke-width="0.9089" stroke-miterlimit="10"/>
<path d="M1406.69 878.683C1261.23 821.566 817.595 1295.42 595.012 1235.07C372.428 1174.71 393.193 613.154 147.03 683.22C-121.348 759.633 -254.996 1342.12 -827.578 1328.05C-1196.11 1319.42 -1362.92 695.927 -1499.22 520.122" stroke="white" stroke-opacity="0.1" stroke-width="0.916" stroke-miterlimit="10"/>
<path d="M1406.27 868.886C1256.98 810.269 806.57 1291.22 583.709 1239.36C360.847 1187.49 387.572 605.449 140.823 671.239C-128.888 743.151 -262.797 1355.23 -838.539 1340.01C-1208.49 1330.61 -1369.75 675.748 -1498.2 502.938" stroke="white" stroke-opacity="0.1" stroke-width="0.923" stroke-miterlimit="10"/>
<path d="M1405.82 859.08C1252.72 798.971 795.544 1287.02 572.434 1243.65C349.324 1200.29 381.98 597.754 134.652 659.238C-136.381 726.621 -270.569 1368.34 -849.461 1351.96C-1220.9 1341.77 -1376.55 655.577 -1497.13 485.733" stroke="white" stroke-opacity="0.1" stroke-width="0.9301" stroke-miterlimit="10"/>
<path d="M1405.36 849.274C1248.44 787.665 784.519 1282.82 561.131 1247.94C337.742 1213.07 376.367 590.021 128.424 647.221C-143.924 710.044 -278.39 1381.41 -860.442 1363.88C-1233.28 1352.96 -1383.37 635.368 -1496.11 468.549" stroke="white" stroke-opacity="0.1" stroke-width="0.9371" stroke-miterlimit="10"/>
<path d="M1404.93 839.505C1244.18 776.396 773.485 1278.64 549.848 1252.27C326.19 1225.85 370.755 582.289 122.217 635.24C-151.455 693.534 -286.191 1394.51 -871.402 1375.85C-1245.66 1364.12 -1390.18 615.197 -1495.06 451.374" stroke="white" stroke-opacity="0.1" stroke-width="0.9442" stroke-miterlimit="10"/>
<path d="M1404.48 829.7C1239.89 765.089 762.46 1274.44 538.553 1256.53C314.637 1238.64 365.143 574.556 116.047 623.24C-158.94 676.975 -293.963 1407.63 -882.325 1387.79C-1258.04 1375.31 -1397 594.989 -1494 434.169" stroke="white" stroke-opacity="0.1" stroke-width="0.9512" stroke-miterlimit="10"/>
<path d="M1404.03 819.894C1235.64 753.792 751.435 1270.24 527.241 1260.84C303.085 1251.43 359.471 566.398 109.839 611.259C-166.533 659.945 -301.764 1420.73 -893.285 1399.76C-1270.43 1386.5 -1403.8 574.818 -1492.97 416.985" stroke="white" stroke-opacity="0.1" stroke-width="0.9583" stroke-miterlimit="10"/>
<path d="M1403.6 810.125C1231.35 742.486 740.401 1266.07 515.967 1265.14C291.533 1264.22 353.93 558.844 103.64 599.25C-173.976 643.555 -309.537 1433.85 -904.236 1411.7C-1282.8 1397.66 -1410.63 554.638 -1491.92 399.809" stroke="white" stroke-opacity="0.1" stroke-width="0.9653" stroke-miterlimit="10"/>
<path d="M1403.15 800.319C1227.07 731.179 729.347 1261.85 504.663 1269.43C279.98 1277 348.389 551.289 97.4409 587.241C-181.427 627.194 -317.329 1446.93 -915.188 1423.63C-1295.19 1408.85 -1417.42 534.439 -1490.89 382.596" stroke="white" stroke-opacity="0.1" stroke-width="0.9724" stroke-miterlimit="10"/>
<path d="M1944.93 183.249C1419.18 577.283 904.609 -109.789 508.894 -113.864C-61.3802 -119.736 -175.417 560.835 -469.523 274.268C-763.599 -12.2697 -1039.23 -261.177 -1279.55 234.451C-1519.87 730.079 -1768.37 487.074 -1768.37 487.074" stroke="white" stroke-opacity="0.1" stroke-width="0.6687" stroke-miterlimit="10"/>
<path d="M-1768.46 478.355C-1765.14 476.827 -1510.29 725.855 -1269.31 237.716C-1028.33 -250.392 -759.048 -19.2504 -464.582 263.302C-169.577 545.915 -53.7737 -108.501 519.226 -103.798C916.169 -100.472 1424.27 559.038 1943.16 168.03" stroke="white" stroke-opacity="0.1" stroke-width="0.6738" stroke-miterlimit="10"/>
<path d="M-1768.55 469.637C-1761.9 466.581 -1500.71 721.571 -1259.07 240.982C-1017.43 -239.606 -754.496 -26.2311 -459.671 252.337C-163.768 530.995 -46.227 -97.2362 529.528 -93.7309C927.698 -91.1544 1429.3 540.762 1941.39 152.78" stroke="white" stroke-opacity="0.1" stroke-width="0.679" stroke-miterlimit="10"/>
<path d="M-1768.64 460.919C-1758.67 456.335 -1491.09 717.316 -1248.83 244.248C-1006.56 -228.821 -749.944 -33.2117 -454.76 241.372C-157.958 516.105 -38.6506 -85.9713 539.859 -83.6643C939.258 -81.8667 1434.4 522.456 1939.63 137.56" stroke="white" stroke-opacity="0.1" stroke-width="0.6841" stroke-miterlimit="10"/>
<path d="M-1768.73 452.17C-1755.43 446.088 -1481.51 713.002 -1238.58 247.484C-995.656 -218.035 -745.392 -40.2224 -449.848 230.406C-152.118 501.215 -31.1038 -74.7363 550.161 -73.5679C950.817 -72.5193 1439.43 504.211 1937.83 122.371" stroke="white" stroke-opacity="0.1" stroke-width="0.6893" stroke-miterlimit="10"/>
<path d="M-1768.82 443.452C-1752.2 435.842 -1471.93 708.748 -1228.34 250.749C-984.756 -207.249 -741.379 -46.5739 -444.937 219.441C-146.878 486.924 -23.5575 -63.4713 560.462 -63.5013C962.347 -63.2017 1444.49 485.935 1936.06 107.151" stroke="white" stroke-opacity="0.1" stroke-width="0.6944" stroke-miterlimit="10"/>
<path d="M-1768.91 434.734C-1748.93 425.596 -1462.35 704.493 -1218.1 254.015C-973.855 -196.464 -736.917 -53.4347 -439.996 208.476C-141.128 472.124 -15.9508 -52.2063 570.794 -53.4347C973.906 -53.8841 1449.55 467.66 1934.3 91.9013" stroke="white" stroke-opacity="0.1" stroke-width="0.6996" stroke-miterlimit="10"/>
<path d="M-1769 426.015C-1745.7 415.349 -1452.73 700.209 -1207.86 257.28C-962.984 -185.648 -732.455 -60.2956 -435.085 197.51C-135.408 457.353 -8.40446 -40.9713 581.096 -43.3681C985.436 -44.5965 1454.61 449.384 1932.53 76.6815" stroke="white" stroke-opacity="0.1" stroke-width="0.7047" stroke-miterlimit="10"/>
<path d="M-1769.09 417.297C-1742.47 405.103 -1443.15 695.955 -1197.62 260.546C-952.084 -174.863 -727.963 -67.1564 -430.173 186.545C-129.658 442.583 -0.827873 -29.7064 591.427 -33.2716C997.025 -35.249 1459.7 431.138 1930.76 61.4919" stroke="white" stroke-opacity="0.1" stroke-width="0.7099" stroke-miterlimit="10"/>
<path d="M-1769.15 408.578C-1739.2 394.857 -1433.54 691.7 -1187.34 263.812C-941.153 -164.077 -723.471 -74.0173 -425.232 175.609C-123.909 427.813 6.74837 -18.4115 601.729 -23.1752C1008.55 -25.9015 1464.73 412.893 1928.99 46.2721" stroke="white" stroke-opacity="0.1" stroke-width="0.715" stroke-miterlimit="10"/>
<path d="M-1769.24 399.83C-1735.97 384.58 -1423.92 687.386 -1177.1 267.047C-930.253 -153.291 -718.979 -80.9081 -420.321 164.614C-118.159 413.012 14.3251 -7.20646 612.061 -13.1385C1020.11 -16.6139 1469.82 394.587 1927.23 31.0225" stroke="white" stroke-opacity="0.1" stroke-width="0.7201" stroke-miterlimit="10"/>
<path d="M-1769.33 391.112C-1732.73 374.334 -1414.34 683.132 -1166.86 270.313C-919.382 -142.506 -714.487 -87.7689 -415.41 153.649C-112.439 398.212 21.8716 4.05851 622.362 -3.04201C1031.64 -7.26637 1474.85 376.341 1925.46 15.8328" stroke="white" stroke-opacity="0.1" stroke-width="0.7253" stroke-miterlimit="10"/>
<path d="M-1769.42 382.393C-1729.5 364.118 -1404.76 678.848 -1156.62 273.579C-908.481 -131.72 -710.025 -94.6597 -410.468 142.683C-106.659 383.412 29.4482 15.3234 632.694 7.02451C1043.2 2.02119 1479.94 358.036 1923.69 0.613118" stroke="white" stroke-opacity="0.1" stroke-width="0.7304" stroke-miterlimit="10"/>
<path d="M-1769.51 373.675C-1726.27 353.871 -1395.14 674.593 -1146.38 276.844C-897.611 -120.905 -705.503 -101.521 -405.557 131.748C-100.91 368.672 37.0245 26.5885 642.995 17.1211C1054.76 11.3688 1484.98 339.79 1921.9 -14.6066" stroke="white" stroke-opacity="0.1" stroke-width="0.7356" stroke-miterlimit="10"/>
<path d="M-1769.6 364.957C-1723.03 343.625 -1385.56 670.339 -1136.14 280.11C-886.71 -110.119 -701.011 -108.381 -400.646 120.783C-95.13 353.871 44.5712 37.8534 653.297 27.1876C1066.29 20.6863 1490.04 321.515 1920.13 -29.8262" stroke="white" stroke-opacity="0.1" stroke-width="0.7407" stroke-miterlimit="10"/>
<path d="M-1769.69 356.208C-1719.8 333.349 -1375.98 666.025 -1125.89 283.346C-875.81 -99.3335 -696.519 -115.302 -395.735 109.787C-89.3801 339.041 52.148 49.0884 663.599 37.2542C1077.82 30.0039 1495.1 303.239 1918.33 -45.0459" stroke="white" stroke-opacity="0.1" stroke-width="0.7459" stroke-miterlimit="10"/>
<path d="M-1769.78 347.49C-1716.56 323.103 -1366.4 661.77 -1115.65 286.611C-864.909 -88.5479 -691.997 -122.193 -390.823 98.822C-83.6303 324.241 59.6945 60.3234 673.931 47.3207C1089.38 39.2915 1500.16 284.963 1916.6 -60.2656" stroke="white" stroke-opacity="0.1" stroke-width="0.751" stroke-miterlimit="10"/>
<path d="M-1769.87 338.772C-1713.33 312.856 -1356.78 657.516 -1105.41 289.877C-854.038 -77.7623 -687.505 -129.054 -385.912 87.8566C-77.8508 309.441 67.2409 71.5883 684.232 57.3873C1100.94 48.609 1505.22 266.688 1914.8 -75.5153" stroke="white" stroke-opacity="0.1" stroke-width="0.7562" stroke-miterlimit="10"/>
<path d="M-1769.96 330.053C-1710.09 302.61 -1347.2 653.232 -1095.17 293.142C-843.138 -66.9468 -682.983 -135.945 -380.971 76.9212C-72.0411 294.67 74.8472 82.8833 694.564 67.4838C1112.5 57.9565 1510.28 248.442 1913.06 -90.705" stroke="white" stroke-opacity="0.1" stroke-width="0.7613" stroke-miterlimit="10"/>
<path d="M-1770.02 321.335C-1706.8 292.394 -1337.59 648.977 -1084.9 296.408C-832.207 -56.161 -678.431 -142.835 -376.03 65.9559C-66.2314 279.87 82.4239 94.1483 704.895 77.5804C1124.06 67.3041 1515.37 230.197 1911.3 -105.895" stroke="white" stroke-opacity="0.1" stroke-width="0.7664" stroke-miterlimit="10"/>
<path d="M-1770.11 312.616C-1703.57 282.147 -1327.97 644.693 -1074.66 299.674C-821.307 -45.3755 -673.879 -149.726 -371.119 54.9905C-60.4519 265.04 90.0002 105.383 715.197 87.6469C1135.59 76.5916 1520.4 211.921 1909.53 -121.114" stroke="white" stroke-opacity="0.1" stroke-width="0.7716" stroke-miterlimit="10"/>
<path d="M-1770.2 303.868C-1700.33 271.871 -1318.39 640.409 -1064.41 302.91C-810.436 -34.5899 -669.357 -156.647 -366.207 43.9952C-54.6421 250.21 97.5468 116.618 725.498 97.6835C1147.15 85.8793 1525.46 193.585 1907.73 -136.394" stroke="white" stroke-opacity="0.1" stroke-width="0.7767" stroke-miterlimit="10"/>
<path d="M-1770.29 295.15C-1697.1 261.625 -1308.81 636.155 -1054.17 306.175C-799.535 -23.8043 -664.805 -163.538 -361.296 33.0598C-48.8624 235.41 105.093 127.913 735.83 107.78C1158.71 95.2268 1530.55 175.34 1905.97 -151.584" stroke="white" stroke-opacity="0.1" stroke-width="0.7819" stroke-miterlimit="10"/>
<path d="M-1770.38 286.431C-1693.86 251.378 -1299.2 631.87 -1043.93 309.441C-788.665 -12.9888 -660.283 -170.459 -356.385 22.0943C-43.0528 220.609 112.67 139.148 746.132 117.876C1170.24 104.574 1535.59 157.094 1904.2 -166.773" stroke="white" stroke-opacity="0.1" stroke-width="0.787" stroke-miterlimit="10"/>
<path d="M-1770.47 277.713C-1690.63 241.132 -1289.61 627.616 -1033.69 312.706C-777.764 -2.20314 -655.732 -177.379 -351.444 11.0991C-37.2132 205.749 120.247 150.383 756.463 127.913C1181.8 113.832 1540.68 138.789 1902.43 -182.053" stroke="white" stroke-opacity="0.1" stroke-width="0.7922" stroke-miterlimit="10"/>
<path d="M-1770.56 268.995C-1687.39 230.886 -1280.03 623.362 -1023.45 315.972C-766.864 8.5825 -651.18 -184.27 -346.532 0.163811C-31.4335 190.949 127.823 161.678 766.765 138.01C1193.36 123.18 1545.71 120.543 1900.67 -197.243" stroke="white" stroke-opacity="0.1" stroke-width="0.7973" stroke-miterlimit="10"/>
<path d="M-1770.65 260.246C-1684.16 220.639 -1270.45 619.047 -1013.21 319.208C-755.963 19.3381 -646.628 -191.221 -341.621 -10.8317C-25.5939 176.089 135.369 172.883 777.067 148.046C1204.88 132.467 1550.77 102.237 1898.87 -212.492" stroke="white" stroke-opacity="0.1" stroke-width="0.8024" stroke-miterlimit="10"/>
<path d="M-1770.74 251.528C-1680.93 210.393 -1260.83 614.793 -1002.96 322.474C-745.092 30.1538 -642.076 -198.141 -336.71 -21.767C-19.7843 161.259 142.946 184.178 787.368 158.173C1216.41 141.845 1555.8 84.0218 1897.1 -227.652" stroke="white" stroke-opacity="0.1" stroke-width="0.8076" stroke-miterlimit="10"/>
<path d="M-1770.8 242.81C-1677.66 200.147 -1251.22 610.509 -992.691 325.739C-734.162 40.9393 -637.464 -205.062 -331.768 -32.7323C-13.9445 146.428 150.523 195.443 797.7 168.239C1227.97 151.162 1560.89 65.7462 1895.34 -242.902" stroke="white" stroke-opacity="0.1" stroke-width="0.8127" stroke-miterlimit="10"/>
<path d="M-1770.89 234.091C-1674.43 189.9 -1241.64 606.254 -982.45 329.005C-723.261 51.7548 -632.912 -211.983 -326.857 -43.6978C-8.10504 131.568 158.069 206.678 808.031 178.306C1239.56 160.45 1565.98 47.4405 1893.6 -258.122" stroke="white" stroke-opacity="0.1" stroke-width="0.8179" stroke-miterlimit="10"/>
<path d="M-1770.98 225.373C-1671.19 179.654 -1232.03 602 -972.208 332.27C-712.391 62.5404 -628.33 -218.964 -321.916 -54.6631C-2.26548 116.738 165.675 217.943 818.363 188.402C1251.12 169.797 1571.04 29.195 1891.83 -273.311" stroke="white" stroke-opacity="0.1" stroke-width="0.823" stroke-miterlimit="10"/>
<path d="M-1771.07 216.655C-1667.93 169.408 -1222.44 597.716 -961.966 335.536C-701.49 73.326 -623.749 -225.885 -317.005 -65.5986C3.5742 101.908 173.222 229.238 828.665 198.499C1262.65 179.145 1576.1 10.9492 1890.03 -288.501" stroke="white" stroke-opacity="0.1" stroke-width="0.8282" stroke-miterlimit="10"/>
<path d="M-1771.16 207.906C-1664.69 159.131 -1212.86 593.432 -951.724 338.772C-690.589 84.1117 -619.167 -232.835 -312.094 -76.5938C9.41374 86.9878 180.799 240.443 838.966 208.535C1274.18 188.432 1581.13 -7.35629 1888.27 -303.781" stroke="white" stroke-opacity="0.1" stroke-width="0.8333" stroke-miterlimit="10"/>
<path d="M-1771.24 199.188C-1661.46 148.915 -1203.28 589.177 -941.483 342.037C-679.689 94.8972 -614.585 -239.786 -307.182 -87.5591C15.2535 72.1277 188.345 251.708 849.268 218.602C1285.74 197.72 1586.2 -25.6318 1886.47 -319" stroke="white" stroke-opacity="0.1" stroke-width="0.8385" stroke-miterlimit="10"/>
<path d="M-1771.33 190.47C-1658.23 138.669 -1193.66 584.893 -931.241 345.303C-668.818 105.683 -610.003 -246.767 -302.271 -98.5246C21.0932 57.2375 195.892 262.973 859.57 228.699C1297.27 207.067 1591.23 -43.8776 1884.7 -334.19" stroke="white" stroke-opacity="0.1" stroke-width="0.8436" stroke-miterlimit="10"/>
<path d="M-1771.42 181.751C-1654.99 128.422 -1184.08 580.639 -920.999 348.568C-657.918 116.498 -605.421 -253.717 -297.36 -109.49C26.9625 42.3773 203.468 274.238 869.901 238.765C1308.83 216.385 1596.32 -62.1532 1882.94 -349.41" stroke="white" stroke-opacity="0.1" stroke-width="0.8487" stroke-miterlimit="10"/>
<path d="M-1771.51 173.033C-1651.76 118.176 -1174.5 576.354 -910.757 351.834C-647.017 127.284 -600.809 -260.698 -292.419 -120.425C32.832 27.5172 211.045 285.503 880.233 248.862C1320.39 225.733 1601.41 -80.3987 1881.2 -364.629" stroke="white" stroke-opacity="0.1" stroke-width="0.8539" stroke-miterlimit="10"/>
<path d="M-1771.57 164.285C-1648.49 107.9 -1164.85 572.07 -900.486 355.04C-636.116 138.01 -596.198 -267.739 -287.477 -131.451C38.7017 12.5671 218.621 296.738 890.535 258.898C1331.92 234.99 1606.44 -98.7043 1879.4 -379.879" stroke="white" stroke-opacity="0.1" stroke-width="0.859" stroke-miterlimit="10"/>
<path d="M-1771.66 155.566C-1645.26 97.6536 -1155.27 567.816 -890.244 358.306C-625.216 148.795 -591.586 -274.719 -282.566 -142.416C44.5711 -2.35291 226.198 307.973 900.866 268.965C1343.51 244.308 1611.53 -117.01 1877.64 -395.099" stroke="white" stroke-opacity="0.1" stroke-width="0.8642" stroke-miterlimit="10"/>
<path d="M-1771.75 146.848C-1642.03 87.4072 -1145.69 563.532 -880.002 361.571C-614.315 159.611 -587.004 -281.7 -277.655 -153.381C50.4406 -17.273 233.774 319.208 911.168 279.031C1355.04 253.625 1616.56 -135.286 1875.87 -410.348" stroke="white" stroke-opacity="0.1" stroke-width="0.8693" stroke-miterlimit="10"/>
<path d="M-1771.84 138.13C-1638.79 77.161 -1136.08 559.277 -869.761 364.837C-603.415 170.426 -582.392 -288.711 -272.744 -164.317C56.3102 -32.1631 241.321 330.503 921.469 289.128C1366.57 262.973 1621.62 -153.531 1874.07 -425.538" stroke="white" stroke-opacity="0.1" stroke-width="0.8745" stroke-miterlimit="10"/>
<path d="M-1771.93 129.411C-1635.56 66.9446 -1126.49 555.023 -859.519 368.103C-592.544 181.212 -577.781 -295.721 -267.803 -175.282C62.1797 -47.0831 248.897 341.768 931.831 299.195C1378.16 272.29 1626.71 -171.807 1872.37 -440.758" stroke="white" stroke-opacity="0.1" stroke-width="0.8796" stroke-miterlimit="10"/>
<path d="M-1772.02 120.663C-1632.32 56.6683 -1116.91 550.709 -849.277 371.338C-581.644 191.968 -573.169 -302.762 -262.891 -186.277C68.0493 -62.0332 256.474 353.003 942.133 309.261C1389.72 281.578 1631.77 -190.082 1870.57 -455.977" stroke="white" stroke-opacity="0.1" stroke-width="0.8847" stroke-miterlimit="10"/>
<path d="M-1772.11 111.944C-1629.06 46.4219 -1107.33 546.454 -839.035 374.604C-570.743 202.783 -568.557 -309.773 -257.98 -197.243C73.9188 -76.9833 264.02 364.238 952.434 319.328C1401.25 290.895 1636.84 -208.358 1868.8 -471.227" stroke="white" stroke-opacity="0.1" stroke-width="0.8899" stroke-miterlimit="10"/>
<path d="M-1772.2 103.226C-1625.82 36.1756 -1097.71 542.17 -828.793 377.869C-559.872 213.569 -563.945 -316.783 -253.069 -208.208C79.7885 -91.9334 271.597 375.503 962.736 329.394C1412.77 300.213 1641.87 -226.634 1867.01 -486.447" stroke="white" stroke-opacity="0.1" stroke-width="0.895" stroke-miterlimit="10"/>
<path d="M-1772.29 94.5077C-1622.59 25.9293 -1088.13 537.916 -818.552 381.135C-548.972 224.354 -559.333 -323.824 -248.157 -219.144C85.6581 -106.853 279.143 386.768 973.038 339.491C1424.3 309.561 1646.93 -244.879 1865.24 -501.636" stroke="white" stroke-opacity="0.1" stroke-width="0.9002" stroke-miterlimit="10"/>
<path d="M-1772.38 85.7894C-1619.36 15.683 -1078.55 533.661 -808.31 384.401C-538.071 235.17 -554.721 -330.864 -243.246 -230.109C91.5276 -121.833 286.69 398.033 983.339 349.587C1435.86 318.878 1651.96 -263.125 1863.44 -516.826" stroke="white" stroke-opacity="0.1" stroke-width="0.9053" stroke-miterlimit="10"/>
<path d="M-1772.44 77.071C-1616.09 5.43666 -1068.91 529.377 -798.038 387.666C-527.17 245.956 -550.08 -337.905 -238.275 -241.074C97.4573 -136.813 294.327 409.298 993.731 359.654C1447.48 328.196 1657.11 -281.43 1861.74 -532.076" stroke="white" stroke-opacity="0.1" stroke-width="0.9105" stroke-miterlimit="10"/>
<path d="M-1772.53 68.3227C-1612.86 -4.80961 -1059.32 525.093 -787.796 390.902C-516.27 256.711 -545.468 -345.005 -233.364 -252.07C103.327 -151.823 301.873 420.502 1004.03 369.69C1459.01 337.483 1662.14 -299.736 1859.97 -547.325" stroke="white" stroke-opacity="0.1" stroke-width="0.9156" stroke-miterlimit="10"/>
<path d="M-1772.62 59.6043C-1609.62 -15.056 -1049.74 520.839 -777.555 394.168C-505.369 267.527 -540.856 -352.046 -228.452 -263.005C109.226 -166.773 309.45 431.797 1014.33 379.817C1470.54 346.861 1667.2 -317.952 1858.17 -562.485" stroke="white" stroke-opacity="0.1" stroke-width="0.9208" stroke-miterlimit="10"/>
<path d="M-1772.71 50.886C-1606.39 -25.3023 -1040.13 516.554 -767.313 397.433C-494.469 278.312 -536.244 -359.117 -223.541 -273.97C115.096 -181.753 316.996 443.062 1024.64 389.883C1482.1 356.149 1672.26 -336.227 1856.4 -577.735" stroke="white" stroke-opacity="0.1" stroke-width="0.9259" stroke-miterlimit="10"/>
<path d="M-1772.8 42.1676C-1603.15 -35.5486 -1030.54 512.3 -757.071 400.699C-483.598 289.098 -531.633 -366.187 -218.63 -284.936C120.965 -196.763 324.543 454.297 1034.94 399.95C1493.63 365.466 1677.29 -354.503 1854.61 -592.954" stroke="white" stroke-opacity="0.1" stroke-width="0.931" stroke-miterlimit="10"/>
<path d="M-1772.89 33.4493C-1599.92 -45.7949 -1020.96 508.016 -746.829 403.964C-472.698 299.913 -527.021 -373.288 -213.719 -295.901C126.835 -211.773 332.119 465.562 1045.24 410.016C1505.16 374.784 1682.35 -372.778 1852.84 -608.174" stroke="white" stroke-opacity="0.1" stroke-width="0.9362" stroke-miterlimit="10"/>
<path d="M-1772.98 24.701C-1596.66 -56.0412 -1011.35 503.731 -736.588 407.23C-461.797 310.699 -522.409 -380.388 -208.778 -306.866C132.734 -226.813 339.696 476.827 1055.57 420.113C1516.72 384.131 1687.42 -391.024 1851.07 -623.364" stroke="white" stroke-opacity="0.1" stroke-width="0.9413" stroke-miterlimit="10"/>
<path d="M-1773.07 15.9827C-1593.45 -66.3175 -1001.77 499.477 -726.346 410.466C-450.926 321.485 -517.827 -387.519 -203.866 -317.832C138.604 -241.853 347.272 488.092 1065.9 430.18C1528.31 393.419 1692.51 -409.3 1849.34 -638.613" stroke="white" stroke-opacity="0.1" stroke-width="0.9465" stroke-miterlimit="10"/>
<path d="M-1773.16 7.26425C-1590.22 -76.5339 -992.182 495.193 -716.104 413.732C-440.026 332.27 -513.215 -394.619 -198.955 -328.797C144.473 -256.893 354.819 499.327 1076.2 440.246C1539.84 402.736 1697.54 -427.575 1847.54 -653.833" stroke="white" stroke-opacity="0.1" stroke-width="0.9516" stroke-miterlimit="10"/>
<path d="M-1773.22 -1.45421C-1586.92 -86.7803 -982.57 490.938 -705.832 416.997C-429.125 343.056 -508.574 -401.72 -194.014 -339.763C150.373 -271.933 362.425 510.592 1086.54 450.313C1551.4 412.054 1702.63 -445.881 1845.77 -669.053" stroke="white" stroke-opacity="0.1" stroke-width="0.9568" stroke-miterlimit="10"/>
<path d="M-1773.31 -10.1725C-1583.69 -97.0266 -972.957 486.684 -695.591 420.263C-418.225 353.871 -503.962 -408.85 -189.103 -350.728C156.212 -286.973 369.972 521.857 1096.84 460.409C1562.93 421.401 1707.69 -464.126 1844.01 -684.243" stroke="white" stroke-opacity="0.1" stroke-width="0.9619" stroke-miterlimit="10"/>
<path d="M-1773.4 -18.9207C-1580.45 -107.303 -963.374 482.37 -685.349 423.499C-407.324 364.627 -499.38 -416.011 -184.191 -361.723C162.082 -302.073 377.518 533.062 1107.14 470.446C1574.49 430.689 1712.72 -482.432 1842.21 -699.522" stroke="white" stroke-opacity="0.1" stroke-width="0.967" stroke-miterlimit="10"/>
<path d="M-1773.49 -27.6392C-1577.22 -117.549 -953.791 478.116 -675.107 426.764C-396.423 375.413 -494.768 -423.141 -179.25 -372.659C167.951 -317.113 385.095 544.357 1117.47 480.542C1586.05 440.006 1717.81 -500.678 1840.47 -714.712" stroke="white" stroke-opacity="0.1" stroke-width="0.9722" stroke-miterlimit="10"/>
<path d="M-1773.58 -36.3576C-1573.99 -127.795 -944.178 473.831 -664.865 430.03C-385.523 386.228 -490.187 -430.272 -174.339 -383.624C173.821 -332.213 392.671 555.622 1127.8 490.609C1597.61 449.324 1722.87 -518.953 1838.71 -729.932" stroke="white" stroke-opacity="0.1" stroke-width="0.9773" stroke-miterlimit="10"/>
<path d="M-1773.67 -45.0759C-1570.75 -138.042 -934.595 469.577 -654.623 433.295C-374.652 397.014 -485.574 -437.432 -169.427 -394.589C179.691 -347.282 400.248 566.857 1138.1 500.705C1609.14 458.672 1727.93 -537.199 1836.94 -745.151" stroke="white" stroke-opacity="0.1" stroke-width="0.9825" stroke-miterlimit="10"/>
<path d="M-1773.76 -53.7942C-1567.52 -148.288 -925.012 465.323 -644.382 436.561C-363.752 407.799 -480.933 -445.132 -164.516 -405.555C185.62 -363.011 407.794 578.122 1148.41 510.772C1620.66 467.989 1732.96 -555.474 1835.14 -760.371" stroke="white" stroke-opacity="0.1" stroke-width="0.9876" stroke-miterlimit="10"/>
<path d="M-1773.85 -62.5127C-1564.28 -158.505 -915.429 461.038 -634.14 439.827C-352.851 418.615 -476.381 -452.112 -159.605 -416.49C191.46 -377.902 415.371 589.387 1158.74 520.838C1632.25 477.277 1738.06 -573.75 1833.41 -775.591" stroke="white" stroke-opacity="0.1" stroke-width="0.9928" stroke-miterlimit="10"/>
<path d="M-1773.94 -71.261C-1561.05 -168.781 -905.816 456.754 -623.898 443.062C-341.98 429.371 -471.829 -459.123 -154.694 -427.485C197.239 -392.822 422.917 600.622 1169.01 530.905C1643.75 486.594 1743.06 -592.026 1831.58 -790.81" stroke="white" stroke-opacity="0.1" stroke-width="0.9979" stroke-miterlimit="10"/>
<path d="M-1774 -79.9793C-1557.79 -179.027 -896.203 452.5 -613.627 446.328C-331.05 440.156 -467.217 -466.104 -149.723 -438.451C203.109 -407.712 430.524 611.887 1179.37 541.002C1655.34 495.942 1748.18 -610.301 1829.84 -806" stroke="white" stroke-opacity="0.1" stroke-width="1.0031" stroke-miterlimit="10"/>
<g filter="url(#filter0_d_1_11)">
<rect x="-435" width="400" height="400" rx="6" fill="url(#paint0_linear_1_11)"/>
<rect x="-434.5" y="0.5" width="399" height="399" rx="5.5" stroke="url(#paint1_linear_1_11)" stroke-opacity="0.2"/>
</g>
<g filter="url(#filter1_d_1_11)">
<rect width="400" height="400" rx="6" fill="url(#paint2_linear_1_11)"/>
<rect x="0.5" y="0.5" width="399" height="399" rx="5.5" stroke="url(#paint3_linear_1_11)" stroke-opacity="0.2"/>
</g>
<g clip-path="url(#clip1_1_11)">
<path fill-rule="evenodd" clip-rule="evenodd" d="M388.329 286.432C388.329 243.97 354.706 211 313.373 211C272.04 211 238.416 243.97 238.416 284.5C225.963 290.769 217 302.308 217 316V337C217 345.354 220.385 353.366 226.409 359.274C232.433 365.181 240.604 368.5 249.124 368.5H259.832C262.672 368.5 265.396 367.394 267.404 365.425C269.412 363.455 270.54 360.785 270.54 358V295C270.54 292.215 269.412 289.545 267.404 287.575C265.396 285.606 262.672 284.5 259.832 284.5C259.832 270.576 265.473 257.223 275.514 247.377C285.555 237.531 299.173 232 313.373 232C327.573 232 341.191 237.531 351.232 247.377C361.272 257.223 366.913 270.576 366.913 284.5C364.073 284.5 361.35 285.606 359.341 287.575C357.333 289.545 356.205 292.215 356.205 295V358C356.205 360.785 357.333 363.455 359.341 365.425C361.35 367.394 364.073 368.5 366.913 368.5V379H339.158C336.952 372.9 331.063 368.5 324.081 368.5H302.665C298.405 368.5 294.319 370.159 291.307 373.113C288.295 376.067 286.603 380.073 286.603 384.25C286.603 388.427 288.295 392.433 291.307 395.387C294.319 398.341 298.405 400 302.665 400H366.913C372.593 400 378.04 397.788 382.057 393.849C386.073 389.911 388.329 384.57 388.329 379V366.579C394.58 364.425 399.996 360.424 403.831 355.126C407.666 349.829 409.733 343.496 409.746 337V316C409.734 309.505 407.668 303.173 403.832 297.877C399.996 292.581 394.58 288.583 388.329 286.432L142.043 862L388.329 286.432Z" fill="url(#paint4_linear_1_11)"/>
</g>
<g filter="url(#filter2_d_1_11)">
<rect y="-432" width="400" height="400" rx="6" fill="url(#paint5_linear_1_11)"/>
</g>
</g>
<defs>
<filter id="filter0_d_1_11" x="-515" y="-80" width="560" height="560" filterUnits="userSpaceOnUse" color-interpolation-filters="sRGB">
<feFlood flood-opacity="0" result="BackgroundImageFix"/>
<feColorMatrix in="SourceAlpha" type="matrix" values="0 0 0 0 0 0 0 0 0 0 0 0 0 0 0 0 0 0 127 0" result="hardAlpha"/>
<feOffset/>
<feGaussianBlur stdDeviation="40"/>
<feComposite in2="hardAlpha" operator="out"/>
<feColorMatrix type="matrix" values="0 0 0 0 0.172549 0 0 0 0 0.172549 0 0 0 0 0.176471 0 0 0 0.35 0"/>
<feBlend mode="normal" in2="BackgroundImageFix" result="effect1_dropShadow_1_11"/>
<feBlend mode="normal" in="SourceGraphic" in2="effect1_dropShadow_1_11" result="shape"/>
</filter>
<filter id="filter1_d_1_11" x="-80" y="-80" width="560" height="560" filterUnits="userSpaceOnUse" color-interpolation-filters="sRGB">
<feFlood flood-opacity="0" result="BackgroundImageFix"/>
<feColorMatrix in="SourceAlpha" type="matrix" values="0 0 0 0 0 0 0 0 0 0 0 0 0 0 0 0 0 0 127 0" result="hardAlpha"/>
<feOffset/>
<feGaussianBlur stdDeviation="40"/>
<feComposite in2="hardAlpha" operator="out"/>
<feColorMatrix type="matrix" values="0 0 0 0 0.172549 0 0 0 0 0.172549 0 0 0 0 0.176471 0 0 0 0.35 0"/>
<feBlend mode="normal" in2="BackgroundImageFix" result="effect1_dropShadow_1_11"/>
<feBlend mode="normal" in="SourceGraphic" in2="effect1_dropShadow_1_11" result="shape"/>
</filter>
<filter id="filter2_d_1_11" x="-150" y="-582" width="700" height="700" filterUnits="userSpaceOnUse" color-interpolation-filters="sRGB">
<feFlood flood-opacity="0" result="BackgroundImageFix"/>
<feColorMatrix in="SourceAlpha" type="matrix" values="0 0 0 0 0 0 0 0 0 0 0 0 0 0 0 0 0 0 127 0" result="hardAlpha"/>
<feOffset/>
<feGaussianBlur stdDeviation="75"/>
<feComposite in2="hardAlpha" operator="out"/>
<feColorMatrix type="matrix" values="0 0 0 0 0.231373 0 0 0 0 0.372549 0 0 0 0 0.588235 0 0 0 0.35 0"/>
<feBlend mode="normal" in2="BackgroundImageFix" result="effect1_dropShadow_1_11"/>
<feBlend mode="normal" in="SourceGraphic" in2="effect1_dropShadow_1_11" result="shape"/>
</filter>
<linearGradient id="paint0_linear_1_11" x1="-390.636" y1="36.6973" x2="-83.3902" y2="397.234" gradientUnits="userSpaceOnUse">
<stop stop-color="#303134"/>
<stop offset="0.519792" stop-color="#282828"/>
<stop offset="0.927909" stop-color="#282828"/>
</linearGradient>
<linearGradient id="paint1_linear_1_11" x1="-435" y1="5.99999" x2="-35" y2="400" gradientUnits="userSpaceOnUse">
<stop stop-color="white"/>
<stop offset="1" stop-color="white" stop-opacity="0"/>
</linearGradient>
<linearGradient id="paint2_linear_1_11" x1="44.3636" y1="36.6973" x2="351.61" y2="397.234" gradientUnits="userSpaceOnUse">
<stop stop-color="#303134"/>
<stop offset="0.519792" stop-color="#282828"/>
<stop offset="0.927909" stop-color="#282828"/>
</linearGradient>
<linearGradient id="paint3_linear_1_11" x1="7.99999" y1="7.00001" x2="382" y2="406" gradientUnits="userSpaceOnUse">
<stop stop-color="white"/>
<stop offset="1" stop-color="white" stop-opacity="0"/>
</linearGradient>
<linearGradient id="paint4_linear_1_11" x1="251.651" y1="251.576" x2="370.844" y2="404.825" gradientUnits="userSpaceOnUse">
<stop stop-color="#3C3C3C"/>
<stop offset="1" stop-color="#262626"/>
</linearGradient>
<linearGradient id="paint5_linear_1_11" x1="44.3636" y1="-395.303" x2="351.61" y2="-34.7663" gradientUnits="userSpaceOnUse">
<stop stop-color="#527791"/>
<stop offset="0.519792" stop-color="#325597"/>
<stop offset="0.927909" stop-color="#193895"/>
</linearGradient>
<clipPath id="clip0_1_11">
<rect width="1920" height="4905" fill="white" transform="translate(-1195 -1576)"/>
</clipPath>
<clipPath id="clip1_1_11">
<rect width="183" height="189" fill="white" transform="translate(217 211)"/>
</clipPath>
</defs>
</svg>
