<svg width="400" height="400" viewBox="0 0 400 400" fill="none" xmlns="http://www.w3.org/2000/svg">
<g clip-path="url(#clip0_1_11)">
<rect width="1920" height="4905" transform="translate(-1195 -1144)" fill="#161617"/>
<path d="M1403.15 1232.32C1227.07 1163.18 729.347 1693.85 504.663 1701.43C279.98 1709 348.389 983.289 97.4409 1019.24C-181.427 1059.19 -317.329 1878.93 -915.188 1855.63C-1295.19 1840.85 -1417.42 966.439 -1490.89 814.596" stroke="white" stroke-opacity="0.1" stroke-width="0.9724" stroke-miterlimit="10"/>
<path d="M1944.93 615.249C1419.18 1009.28 904.609 322.211 508.894 318.136C-61.3802 312.264 -175.417 992.835 -469.523 706.268C-763.599 419.73 -1039.23 170.823 -1279.55 666.451C-1519.87 1162.08 -1768.37 919.074 -1768.37 919.074" stroke="white" stroke-opacity="0.1" stroke-width="0.6687" stroke-miterlimit="10"/>
<path d="M-1768.46 910.355C-1765.14 908.827 -1510.29 1157.85 -1269.31 669.716C-1028.33 181.608 -759.048 412.75 -464.582 695.302C-169.577 977.915 -53.7737 323.499 519.226 328.202C916.169 331.528 1424.27 991.038 1943.16 600.03" stroke="white" stroke-opacity="0.1" stroke-width="0.6738" stroke-miterlimit="10"/>
<path d="M-1768.55 901.637C-1761.9 898.581 -1500.71 1153.57 -1259.07 672.982C-1017.43 192.394 -754.496 405.769 -459.671 684.337C-163.768 962.995 -46.227 334.764 529.528 338.269C927.698 340.846 1429.3 972.762 1941.39 584.78" stroke="white" stroke-opacity="0.1" stroke-width="0.679" stroke-miterlimit="10"/>
<path d="M-1768.64 892.919C-1758.67 888.335 -1491.09 1149.32 -1248.83 676.248C-1006.56 203.179 -749.944 398.788 -454.76 673.372C-157.958 948.105 -38.6506 346.029 539.859 348.336C939.258 350.133 1434.4 954.456 1939.63 569.56" stroke="white" stroke-opacity="0.1" stroke-width="0.6841" stroke-miterlimit="10"/>
<path d="M-1768.73 884.17C-1755.43 878.088 -1481.51 1145 -1238.58 679.484C-995.656 213.965 -745.392 391.778 -449.848 662.406C-152.118 933.215 -31.1038 357.264 550.161 358.432C950.817 359.481 1439.43 936.211 1937.83 554.371" stroke="white" stroke-opacity="0.1" stroke-width="0.6893" stroke-miterlimit="10"/>
<path d="M-1768.82 875.452C-1752.2 867.842 -1471.93 1140.75 -1228.34 682.749C-984.756 224.751 -741.379 385.426 -444.937 651.441C-146.878 918.924 -23.5575 368.529 560.462 368.499C962.347 368.798 1444.49 917.935 1936.06 539.151" stroke="white" stroke-opacity="0.1" stroke-width="0.6944" stroke-miterlimit="10"/>
<path d="M-1768.91 866.734C-1748.93 857.596 -1462.35 1136.49 -1218.1 686.015C-973.855 235.536 -736.917 378.565 -439.996 640.476C-141.128 904.124 -15.9508 379.794 570.794 378.565C973.906 378.116 1449.55 899.66 1934.3 523.901" stroke="white" stroke-opacity="0.1" stroke-width="0.6996" stroke-miterlimit="10"/>
<path d="M-1769 858.015C-1745.7 847.349 -1452.73 1132.21 -1207.86 689.28C-962.984 246.352 -732.455 371.704 -435.085 629.51C-135.408 889.353 -8.40446 391.029 581.096 388.632C985.436 387.404 1454.61 881.384 1932.53 508.682" stroke="white" stroke-opacity="0.1" stroke-width="0.7047" stroke-miterlimit="10"/>
<path d="M-1769.09 849.297C-1742.47 837.103 -1443.15 1127.95 -1197.62 692.546C-952.084 257.137 -727.963 364.844 -430.173 618.545C-129.658 874.583 -0.827873 402.294 591.427 398.728C997.025 396.751 1459.7 863.138 1930.76 493.492" stroke="white" stroke-opacity="0.1" stroke-width="0.7099" stroke-miterlimit="10"/>
<path d="M-1769.15 840.578C-1739.2 826.857 -1433.54 1123.7 -1187.34 695.812C-941.153 267.923 -723.471 357.983 -425.232 607.609C-123.909 859.813 6.74837 413.588 601.729 408.825C1008.55 406.098 1464.73 844.893 1928.99 478.272" stroke="white" stroke-opacity="0.1" stroke-width="0.715" stroke-miterlimit="10"/>
<path d="M-1769.24 831.83C-1735.97 816.58 -1423.92 1119.39 -1177.1 699.047C-930.253 278.709 -718.979 351.092 -420.321 596.614C-118.159 845.012 14.3251 424.794 612.061 418.861C1020.11 415.386 1469.82 826.587 1927.23 463.022" stroke="white" stroke-opacity="0.1" stroke-width="0.7201" stroke-miterlimit="10"/>
<path d="M-1769.33 823.112C-1732.73 806.334 -1414.34 1115.13 -1166.86 702.313C-919.382 289.494 -714.487 344.231 -415.41 585.649C-112.439 830.212 21.8716 436.059 622.362 428.958C1031.64 424.734 1474.85 808.341 1925.46 447.833" stroke="white" stroke-opacity="0.1" stroke-width="0.7253" stroke-miterlimit="10"/>
<path d="M-1769.42 814.393C-1729.5 796.118 -1404.76 1110.85 -1156.62 705.579C-908.481 300.28 -710.025 337.34 -410.468 574.683C-106.659 815.412 29.4482 447.323 632.694 439.025C1043.2 434.021 1479.94 790.036 1923.69 432.613" stroke="white" stroke-opacity="0.1" stroke-width="0.7304" stroke-miterlimit="10"/>
<path d="M-1769.51 805.675C-1726.27 785.871 -1395.14 1106.59 -1146.38 708.844C-897.611 311.095 -705.503 330.479 -405.557 563.748C-100.91 800.672 37.0245 458.588 642.995 449.121C1054.76 443.369 1484.98 771.79 1921.9 417.393" stroke="white" stroke-opacity="0.1" stroke-width="0.7356" stroke-miterlimit="10"/>
<path d="M-1769.6 796.957C-1723.03 775.625 -1385.56 1102.34 -1136.14 712.11C-886.71 321.881 -701.011 323.619 -400.646 552.783C-95.13 785.871 44.5712 469.853 653.297 459.188C1066.29 452.686 1490.04 753.515 1920.13 402.174" stroke="white" stroke-opacity="0.1" stroke-width="0.7407" stroke-miterlimit="10"/>
<path d="M-1769.69 788.208C-1719.8 765.349 -1375.98 1098.02 -1125.89 715.346C-875.81 332.667 -696.519 316.698 -395.735 541.787C-89.3801 771.041 52.148 481.088 663.599 469.254C1077.82 462.004 1495.1 735.239 1918.33 386.954" stroke="white" stroke-opacity="0.1" stroke-width="0.7459" stroke-miterlimit="10"/>
<path d="M-1769.78 779.49C-1716.56 755.103 -1366.4 1093.77 -1115.65 718.611C-864.909 343.452 -691.997 309.807 -390.823 530.822C-83.6303 756.241 59.6945 492.323 673.931 479.321C1089.38 471.291 1500.16 716.963 1916.6 371.734" stroke="white" stroke-opacity="0.1" stroke-width="0.751" stroke-miterlimit="10"/>
<path d="M-1769.87 770.772C-1713.33 744.856 -1356.78 1089.52 -1105.41 721.877C-854.038 354.238 -687.505 302.946 -385.912 519.857C-77.8508 741.441 67.2409 503.588 684.232 489.387C1100.94 480.609 1505.22 698.688 1914.8 356.485" stroke="white" stroke-opacity="0.1" stroke-width="0.7562" stroke-miterlimit="10"/>
<path d="M-1769.96 762.053C-1710.09 734.61 -1347.2 1085.23 -1095.17 725.142C-843.138 365.053 -682.983 296.055 -380.971 508.921C-72.0411 726.67 74.8472 514.883 694.564 499.484C1112.5 489.957 1510.28 680.442 1913.06 341.295" stroke="white" stroke-opacity="0.1" stroke-width="0.7613" stroke-miterlimit="10"/>
<path d="M-1770.02 753.335C-1706.8 724.394 -1337.59 1080.98 -1084.9 728.408C-832.207 375.839 -678.431 289.165 -376.03 497.956C-66.2314 711.87 82.4239 526.148 704.895 509.58C1124.06 499.304 1515.37 662.197 1911.3 326.105" stroke="white" stroke-opacity="0.1" stroke-width="0.7664" stroke-miterlimit="10"/>
<path d="M-1770.11 744.616C-1703.57 714.147 -1327.97 1076.69 -1074.66 731.674C-821.307 386.625 -673.879 282.274 -371.119 486.99C-60.4519 697.04 90.0002 537.383 715.197 519.647C1135.59 508.592 1520.4 643.921 1909.53 310.886" stroke="white" stroke-opacity="0.1" stroke-width="0.7716" stroke-miterlimit="10"/>
<path d="M-1770.2 735.868C-1700.33 703.871 -1318.39 1072.41 -1064.41 734.91C-810.436 397.41 -669.357 275.353 -366.207 475.995C-54.6421 682.21 97.5468 548.618 725.498 529.684C1147.15 517.879 1525.46 625.585 1907.73 295.606" stroke="white" stroke-opacity="0.1" stroke-width="0.7767" stroke-miterlimit="10"/>
<path d="M-1770.29 727.15C-1697.1 693.625 -1308.81 1068.15 -1054.17 738.175C-799.535 408.196 -664.805 268.462 -361.296 465.06C-48.8624 667.41 105.093 559.913 735.83 539.78C1158.71 527.227 1530.55 607.34 1905.97 280.416" stroke="white" stroke-opacity="0.1" stroke-width="0.7819" stroke-miterlimit="10"/>
<path d="M-1770.38 718.431C-1693.86 683.378 -1299.2 1063.87 -1043.93 741.441C-788.665 419.011 -660.283 261.541 -356.385 454.094C-43.0528 652.609 112.67 571.148 746.132 549.876C1170.24 536.574 1535.59 589.094 1904.2 265.227" stroke="white" stroke-opacity="0.1" stroke-width="0.787" stroke-miterlimit="10"/>
<path d="M-1770.47 709.713C-1690.63 673.132 -1289.61 1059.62 -1033.69 744.706C-777.764 429.797 -655.732 254.621 -351.444 443.099C-37.2132 637.749 120.247 582.383 756.463 559.913C1181.8 545.832 1540.68 570.789 1902.43 249.947" stroke="white" stroke-opacity="0.1" stroke-width="0.7922" stroke-miterlimit="10"/>
<path d="M-1770.56 700.995C-1687.39 662.886 -1280.03 1055.36 -1023.45 747.972C-766.864 440.582 -651.18 247.73 -346.532 432.164C-31.4335 622.949 127.823 593.678 766.765 570.01C1193.36 555.18 1545.71 552.543 1900.67 234.757" stroke="white" stroke-opacity="0.1" stroke-width="0.7973" stroke-miterlimit="10"/>
<path d="M-1770.65 692.246C-1684.16 652.639 -1270.45 1051.05 -1013.21 751.208C-755.963 451.338 -646.628 240.779 -341.621 421.168C-25.5939 608.089 135.369 604.883 777.067 580.046C1204.88 564.467 1550.77 534.237 1898.87 219.508" stroke="white" stroke-opacity="0.1" stroke-width="0.8024" stroke-miterlimit="10"/>
<path d="M-1770.74 683.528C-1680.93 642.393 -1260.83 1046.79 -1002.96 754.474C-745.092 462.154 -642.076 233.859 -336.71 410.233C-19.7843 593.259 142.946 616.178 787.368 590.173C1216.41 573.845 1555.8 516.022 1897.1 204.348" stroke="white" stroke-opacity="0.1" stroke-width="0.8076" stroke-miterlimit="10"/>
<path d="M-1770.8 674.81C-1677.66 632.147 -1251.22 1042.51 -992.691 757.739C-734.162 472.939 -637.464 226.938 -331.768 399.268C-13.9445 578.428 150.523 627.443 797.7 600.239C1227.97 583.162 1560.89 497.746 1895.34 189.098" stroke="white" stroke-opacity="0.1" stroke-width="0.8127" stroke-miterlimit="10"/>
<path d="M-1770.89 666.091C-1674.43 621.9 -1241.64 1038.25 -982.45 761.005C-723.261 483.755 -632.912 220.017 -326.857 388.302C-8.10504 563.568 158.069 638.678 808.031 610.306C1239.56 592.45 1565.98 479.44 1893.6 173.878" stroke="white" stroke-opacity="0.1" stroke-width="0.8179" stroke-miterlimit="10"/>
<path d="M-1770.98 657.373C-1671.19 611.654 -1232.03 1034 -972.208 764.27C-712.391 494.54 -628.33 213.036 -321.916 377.337C-2.26548 548.738 165.675 649.943 818.363 620.402C1251.12 601.797 1571.04 461.195 1891.83 158.689" stroke="white" stroke-opacity="0.1" stroke-width="0.823" stroke-miterlimit="10"/>
<path d="M-1771.07 648.655C-1667.93 601.408 -1222.44 1029.72 -961.966 767.536C-701.49 505.326 -623.749 206.115 -317.005 366.401C3.5742 533.908 173.222 661.238 828.665 630.499C1262.65 611.145 1576.1 442.949 1890.03 143.499" stroke="white" stroke-opacity="0.1" stroke-width="0.8282" stroke-miterlimit="10"/>
<path d="M-1771.16 639.906C-1664.69 591.131 -1212.86 1025.43 -951.724 770.772C-690.589 516.112 -619.167 199.165 -312.094 355.406C9.41374 518.988 180.799 672.443 838.966 640.535C1274.18 620.432 1581.13 424.644 1888.27 128.219" stroke="white" stroke-opacity="0.1" stroke-width="0.8333" stroke-miterlimit="10"/>
<path d="M-1771.24 631.188C-1661.46 580.915 -1203.28 1021.18 -941.483 774.037C-679.689 526.897 -614.585 192.214 -307.182 344.441C15.2535 504.128 188.345 683.708 849.268 650.602C1285.74 629.72 1586.2 406.368 1886.47 113" stroke="white" stroke-opacity="0.1" stroke-width="0.8385" stroke-miterlimit="10"/>
<path d="M-1771.33 622.47C-1658.23 570.669 -1193.66 1016.89 -931.241 777.303C-668.818 537.683 -610.003 185.233 -302.271 333.475C21.0932 489.237 195.892 694.973 859.57 660.699C1297.27 639.067 1591.23 388.122 1884.7 97.8101" stroke="white" stroke-opacity="0.1" stroke-width="0.8436" stroke-miterlimit="10"/>
<path d="M-1771.42 613.751C-1654.99 560.422 -1184.08 1012.64 -920.999 780.568C-657.918 548.498 -605.421 178.283 -297.36 322.51C26.9625 474.377 203.468 706.238 869.901 670.765C1308.83 648.385 1596.32 369.847 1882.94 82.5903" stroke="white" stroke-opacity="0.1" stroke-width="0.8487" stroke-miterlimit="10"/>
<path d="M-1771.51 605.033C-1651.76 550.176 -1174.5 1008.35 -910.757 783.834C-647.017 559.284 -600.809 171.302 -292.419 311.575C32.832 459.517 211.045 717.503 880.233 680.862C1320.39 657.733 1601.41 351.601 1881.2 67.3707" stroke="white" stroke-opacity="0.1" stroke-width="0.8539" stroke-miterlimit="10"/>
<path d="M-1771.57 596.285C-1648.49 539.9 -1164.85 1004.07 -900.486 787.04C-636.116 570.01 -596.198 164.261 -287.477 300.549C38.7017 444.567 218.621 728.738 890.535 690.898C1331.92 666.99 1606.44 333.296 1879.4 52.1211" stroke="white" stroke-opacity="0.1" stroke-width="0.859" stroke-miterlimit="10"/>
<path d="M-1771.66 587.566C-1645.26 529.654 -1155.27 999.816 -890.244 790.306C-625.216 580.795 -591.586 157.281 -282.566 289.584C44.5711 429.647 226.198 739.973 900.866 700.965C1343.51 676.308 1611.53 314.99 1877.64 36.9014" stroke="white" stroke-opacity="0.1" stroke-width="0.8642" stroke-miterlimit="10"/>
<path d="M-1771.75 578.848C-1642.03 519.407 -1145.69 995.532 -880.002 793.571C-614.315 591.611 -587.004 150.3 -277.655 278.619C50.4406 414.727 233.774 751.208 911.168 711.031C1355.04 685.625 1616.56 296.714 1875.87 21.6517" stroke="white" stroke-opacity="0.1" stroke-width="0.8693" stroke-miterlimit="10"/>
<path d="M-1771.84 570.13C-1638.79 509.161 -1136.08 991.277 -869.761 796.837C-603.415 602.426 -582.392 143.289 -272.744 267.683C56.3102 399.837 241.321 762.503 921.469 721.128C1366.57 694.973 1621.62 278.469 1874.07 6.46216" stroke="white" stroke-opacity="0.1" stroke-width="0.8745" stroke-miterlimit="10"/>
<path d="M-1771.93 561.411C-1635.56 498.945 -1126.49 987.023 -859.519 800.103C-592.544 613.212 -577.781 136.279 -267.803 256.718C62.1797 384.917 248.897 773.768 931.831 731.195C1378.16 704.29 1626.71 260.193 1872.37 -8.75757" stroke="white" stroke-opacity="0.1" stroke-width="0.8796" stroke-miterlimit="10"/>
<path d="M-1772.02 552.663C-1632.32 488.668 -1116.91 982.709 -849.277 803.338C-581.644 623.968 -573.169 129.238 -262.891 245.723C68.0493 369.967 256.474 785.003 942.133 741.261C1389.72 713.578 1631.77 241.918 1870.57 -23.9773" stroke="white" stroke-opacity="0.1" stroke-width="0.8847" stroke-miterlimit="10"/>
<path d="M-1772.11 543.944C-1629.06 478.422 -1107.33 978.454 -839.035 806.604C-570.743 634.783 -568.557 122.227 -257.98 234.757C73.9188 355.017 264.02 796.238 952.434 751.328C1401.25 722.895 1636.84 223.642 1868.8 -39.2269" stroke="white" stroke-opacity="0.1" stroke-width="0.8899" stroke-miterlimit="10"/>
<path d="M-1772.2 535.226C-1625.82 468.176 -1097.71 974.17 -828.793 809.869C-559.872 645.569 -563.945 115.217 -253.069 223.792C79.7885 340.067 271.597 807.503 962.736 761.394C1412.77 732.213 1641.87 205.366 1867.01 -54.4467" stroke="white" stroke-opacity="0.1" stroke-width="0.895" stroke-miterlimit="10"/>
<path d="M-1772.29 526.508C-1622.59 457.929 -1088.13 969.916 -818.552 813.135C-548.972 656.354 -559.333 108.176 -248.157 212.856C85.6581 325.147 279.143 818.768 973.038 771.491C1424.3 741.561 1646.93 187.121 1865.24 -69.6364" stroke="white" stroke-opacity="0.1" stroke-width="0.9002" stroke-miterlimit="10"/>
<path d="M-1772.38 517.789C-1619.36 447.683 -1078.55 965.661 -808.31 816.401C-538.071 667.17 -554.721 101.136 -243.246 201.891C91.5276 310.167 286.69 830.033 983.339 781.587C1435.86 750.878 1651.96 168.875 1863.44 -84.826" stroke="white" stroke-opacity="0.1" stroke-width="0.9053" stroke-miterlimit="10"/>
<path d="M-1772.44 509.071C-1616.09 437.437 -1068.91 961.377 -798.038 819.666C-527.17 677.956 -550.08 94.095 -238.275 190.926C97.4573 295.187 294.327 841.298 993.731 791.654C1447.48 760.196 1657.11 150.57 1861.74 -100.076" stroke="white" stroke-opacity="0.1" stroke-width="0.9105" stroke-miterlimit="10"/>
<path d="M-1772.53 500.323C-1612.86 427.19 -1059.32 957.093 -787.796 822.902C-516.27 688.711 -545.468 86.9946 -233.364 179.93C103.327 280.177 301.873 852.502 1004.03 801.69C1459.01 769.483 1662.14 132.264 1859.97 -115.325" stroke="white" stroke-opacity="0.1" stroke-width="0.9156" stroke-miterlimit="10"/>
<path d="M-1772.62 491.604C-1609.62 416.944 -1049.74 952.839 -777.555 826.168C-505.369 699.527 -540.856 79.954 -228.452 168.995C109.226 265.227 309.45 863.797 1014.33 811.817C1470.54 778.861 1667.2 114.048 1858.17 -130.485" stroke="white" stroke-opacity="0.1" stroke-width="0.9208" stroke-miterlimit="10"/>
<path d="M-1772.71 482.886C-1606.39 406.698 -1040.13 948.554 -767.313 829.433C-494.469 710.312 -536.244 72.8834 -223.541 158.03C115.096 250.247 316.996 875.062 1024.64 821.883C1482.1 788.149 1672.26 95.7728 1856.4 -145.735" stroke="white" stroke-opacity="0.1" stroke-width="0.9259" stroke-miterlimit="10"/>
<path d="M-1772.8 474.168C-1603.15 396.451 -1030.54 944.3 -757.071 832.699C-483.598 721.098 -531.633 65.8128 -218.63 147.064C120.965 235.237 324.543 886.297 1034.94 831.95C1493.63 797.466 1677.29 77.4972 1854.61 -160.954" stroke="white" stroke-opacity="0.1" stroke-width="0.931" stroke-miterlimit="10"/>
<path d="M-1772.89 465.449C-1599.92 386.205 -1020.96 940.016 -746.829 835.964C-472.698 731.913 -527.021 58.7123 -213.719 136.099C126.835 220.227 332.119 897.562 1045.24 842.016C1505.16 806.784 1682.35 59.2217 1852.84 -176.174" stroke="white" stroke-opacity="0.1" stroke-width="0.9362" stroke-miterlimit="10"/>
<path d="M-1772.98 456.701C-1596.66 375.959 -1011.35 935.731 -736.588 839.23C-461.797 742.699 -522.409 51.6118 -208.778 125.134C132.734 205.187 339.696 908.827 1055.57 852.113C1516.72 816.131 1687.42 40.976 1851.07 -191.364" stroke="white" stroke-opacity="0.1" stroke-width="0.9413" stroke-miterlimit="10"/>
<path d="M-1773.07 447.983C-1593.45 365.683 -1001.77 931.477 -726.346 842.466C-450.926 753.485 -517.827 44.4813 -203.866 114.168C138.604 190.147 347.272 920.092 1065.9 862.18C1528.31 825.419 1692.51 22.7004 1849.34 -206.613" stroke="white" stroke-opacity="0.1" stroke-width="0.9465" stroke-miterlimit="10"/>
<path d="M-1773.16 439.264C-1590.22 355.466 -992.182 927.193 -716.104 845.732C-440.026 764.27 -513.215 37.3808 -198.955 103.203C144.473 175.107 354.819 931.327 1076.2 872.246C1539.84 834.736 1697.54 4.42478 1847.54 -221.833" stroke="white" stroke-opacity="0.1" stroke-width="0.9516" stroke-miterlimit="10"/>
<path d="M-1773.22 430.546C-1586.92 345.22 -982.57 922.938 -705.832 848.997C-429.125 775.056 -508.574 30.2802 -194.014 92.2374C150.373 160.067 362.425 942.592 1086.54 882.313C1551.4 844.054 1702.63 -13.8808 1845.77 -237.053" stroke="white" stroke-opacity="0.1" stroke-width="0.9568" stroke-miterlimit="10"/>
<path d="M-1773.31 421.827C-1583.69 334.973 -972.957 918.684 -695.591 852.263C-418.225 785.871 -503.962 23.1498 -189.103 81.2722C156.212 145.027 369.972 953.857 1096.84 892.409C1562.93 853.401 1707.69 -32.1264 1844.01 -252.243" stroke="white" stroke-opacity="0.1" stroke-width="0.9619" stroke-miterlimit="10"/>
<path d="M-1773.4 413.079C-1580.45 324.697 -963.374 914.37 -685.349 855.499C-407.324 796.627 -499.38 15.9894 -184.191 70.2769C162.082 129.927 377.518 965.062 1107.14 902.446C1574.49 862.689 1712.72 -50.4319 1842.21 -267.522" stroke="white" stroke-opacity="0.1" stroke-width="0.967" stroke-miterlimit="10"/>
<path d="M-1773.49 404.361C-1577.22 314.451 -953.791 910.116 -675.107 858.764C-396.423 807.413 -494.768 8.85883 -179.25 59.3414C167.951 114.887 385.095 976.357 1117.47 912.542C1586.05 872.006 1717.81 -68.6777 1840.47 -282.712" stroke="white" stroke-opacity="0.1" stroke-width="0.9722" stroke-miterlimit="10"/>
<path d="M-1773.58 395.642C-1573.99 304.205 -944.178 905.831 -664.865 862.03C-385.523 818.228 -490.187 1.72837 -174.339 48.3761C173.821 99.7874 392.671 987.622 1127.8 922.609C1597.61 881.324 1722.87 -86.9532 1838.71 -297.932" stroke="white" stroke-opacity="0.1" stroke-width="0.9773" stroke-miterlimit="10"/>
<path d="M-1773.67 386.924C-1570.75 293.958 -934.595 901.577 -654.623 865.295C-374.652 829.014 -485.574 -5.4321 -169.427 37.4107C179.691 84.7175 400.248 998.857 1138.1 932.705C1609.14 890.672 1727.93 -105.199 1836.94 -313.151" stroke="white" stroke-opacity="0.1" stroke-width="0.9825" stroke-miterlimit="10"/>
<path d="M-1773.76 378.206C-1567.52 283.712 -925.012 897.323 -644.382 868.561C-363.752 839.799 -480.933 -13.1317 -164.516 26.4454C185.62 68.9886 407.794 1010.12 1148.41 942.772C1620.66 899.989 1732.96 -123.474 1835.14 -328.371" stroke="white" stroke-opacity="0.1" stroke-width="0.9876" stroke-miterlimit="10"/>
<path d="M-1773.85 369.487C-1564.28 273.495 -915.429 893.038 -634.14 871.827C-352.851 850.615 -476.381 -20.1125 -159.605 15.51C191.46 54.0984 415.371 1021.39 1158.74 952.838C1632.25 909.277 1738.06 -141.75 1833.41 -343.591" stroke="white" stroke-opacity="0.1" stroke-width="0.9928" stroke-miterlimit="10"/>
<path d="M-1773.94 360.739C-1561.05 263.219 -905.816 888.754 -623.898 875.062C-341.98 861.371 -471.829 -27.1232 -154.694 4.51456C197.239 39.1783 422.917 1032.62 1169.01 962.905C1643.75 918.594 1743.06 -160.026 1831.58 -358.81" stroke="white" stroke-opacity="0.1" stroke-width="0.9979" stroke-miterlimit="10"/>
<path d="M-1774 352.021C-1557.79 252.973 -896.203 884.5 -613.627 878.328C-331.05 872.156 -467.217 -34.1038 -149.723 -6.45074C203.109 24.2882 430.524 1043.89 1179.37 973.002C1655.34 927.942 1748.18 -178.301 1829.84 -374" stroke="white" stroke-opacity="0.1" stroke-width="1.0031" stroke-miterlimit="10"/>
<g opacity="0.2" filter="url(#filter0_f_1_11)">
</g>
<g filter="url(#filter1_d_1_11)">
<rect x="-435" y="432" width="400" height="400" rx="6" fill="url(#paint0_linear_1_11)"/>
<rect x="-434.5" y="432.5" width="399" height="399" rx="5.5" stroke="url(#paint1_linear_1_11)" stroke-opacity="0.2"/>
</g>
<g filter="url(#filter2_d_1_11)">
<rect y="432" width="400" height="400" rx="6" fill="url(#paint2_linear_1_11)"/>
<rect x="0.5" y="432.5" width="399" height="399" rx="5.5" stroke="url(#paint3_linear_1_11)" stroke-opacity="0.2"/>
</g>
<g filter="url(#filter3_d_1_11)">
<rect width="400" height="400" rx="6" fill="url(#paint4_linear_1_11)"/>
</g>
<g clip-path="url(#clip1_1_11)">
<path d="M333.204 264.36C317.929 254.989 293.253 254.989 278.067 264.36C262.882 273.731 262.973 288.965 278.248 298.336C293.524 307.707 318.2 307.707 333.385 298.336C348.57 288.917 348.48 273.731 333.204 264.36ZM326.199 279.113C324.888 279.546 323.578 280.027 322.267 280.459C321.454 280.699 320.957 280.747 320.595 280.555C320.414 280.411 320.233 280.219 320.053 279.93C319.194 278.441 317.883 277.143 316.121 276.086C315.895 275.942 315.624 275.798 315.352 275.653C314.765 275.317 314.223 275.077 313.499 274.884C310.969 274.26 308.709 275.269 309.025 276.951C309.161 277.816 309.613 278.585 310.155 279.402C311.059 280.747 312.053 282.093 312.686 283.535C314.81 288.052 310.2 292.521 302.789 292.954C300.122 293.098 297.591 292.762 295.241 291.945C294.202 291.608 293.433 291.608 292.665 292.185C291.897 292.714 291.038 293.194 290.225 293.675C289.501 294.107 288.733 294.155 288.01 293.723C287.468 293.434 286.971 293.098 286.428 292.81C286.067 292.569 285.705 292.377 285.344 292.137C284.575 291.656 284.666 291.176 285.389 290.695C285.976 290.311 286.564 289.974 287.106 289.59C288.417 288.773 288.417 288.725 287.332 287.812C285.976 286.658 284.756 285.457 283.988 284.111C283.4 283.054 283.536 282.814 285.118 282.237C286.293 281.853 287.423 281.42 288.598 281.036C289.456 280.747 289.953 280.699 290.315 280.892C290.541 281.036 290.677 281.228 290.857 281.564C291.626 283.102 292.936 284.448 294.518 285.745C294.789 285.986 295.106 286.178 295.377 286.37C296.235 286.899 297.23 287.283 298.36 287.572C301.297 288.292 303.918 287.043 303.647 285.073C303.557 284.4 303.24 283.823 302.834 283.198C301.839 281.612 300.529 280.123 299.851 278.441C298.766 275.75 299.263 273.299 302.743 271.376C306.72 269.214 311.149 269.07 315.85 270.415C317.793 270.992 317.748 270.992 319.239 270.079C319.736 269.742 320.233 269.454 320.731 269.166C321.86 268.493 322.267 268.493 323.397 269.166C323.759 269.358 324.075 269.598 324.436 269.79C326.832 271.232 326.832 271.232 324.482 272.722C322.809 273.731 322.809 273.731 324.21 274.933C325.295 275.846 326.154 276.807 326.787 277.864C327.284 278.393 327.103 278.825 326.199 279.113ZM353.587 310.735C349.384 313.33 342.559 313.33 338.311 310.735C334.108 308.14 334.063 303.911 338.266 301.316C342.469 298.721 349.293 298.721 353.541 301.316C357.79 303.911 357.835 308.14 353.587 310.735ZM273.141 261.332C268.938 263.928 262.114 263.928 257.866 261.332C253.617 258.737 253.617 254.508 257.821 251.913C262.024 249.318 268.848 249.318 273.096 251.913C277.299 254.508 277.344 258.737 273.141 261.332ZM410.757 290.599L290.315 216.639C283.355 212.362 272.057 212.362 265.142 216.639L200.56 256.527C193.645 260.804 193.69 267.772 200.65 272.049L321.092 346.009C328.052 350.286 339.35 350.286 346.265 346.009L410.802 306.122C417.762 301.844 417.717 294.876 410.757 290.599ZM347.576 331.928C346.807 331.159 345.904 330.438 344.819 329.766C337.769 325.44 326.335 325.44 319.33 329.766C318.787 330.102 318.335 330.438 317.838 330.823L224.332 273.395C225.236 273.01 226.094 272.578 226.908 272.097C233.913 267.772 233.868 260.756 226.817 256.431C226.049 255.95 225.236 255.518 224.377 255.181L262.927 231.345C263.515 231.874 264.193 232.354 264.961 232.835C272.011 237.16 283.445 237.16 290.451 232.835C291.264 232.354 291.942 231.825 292.575 231.249L386.397 288.821C385.132 289.302 384.002 289.83 382.917 290.503C375.912 294.828 375.912 301.892 383.008 306.218C384.093 306.89 385.313 307.419 386.578 307.9L347.576 331.928ZM197.487 286.851C200.56 285.169 205.305 285.409 208.243 287.235L334.153 364.511L402.215 322.413C405.153 320.587 409.989 320.587 412.971 322.413C415.954 324.239 415.954 327.219 413.017 329.045L340.661 373.738C337.136 375.948 331.351 375.948 327.781 373.738L325.25 372.2L323.487 371.095L197.261 293.627C194.187 291.752 194.233 288.629 197.487 286.851ZM413.107 353.217L340.751 397.91C337.226 400.121 331.442 400.121 327.871 397.91L325.386 396.372L323.578 395.267L197.351 317.799C194.278 315.925 194.368 312.801 197.622 311.023C200.65 309.341 205.441 309.582 208.378 311.408L334.244 388.683L402.306 346.634C405.288 344.807 410.079 344.807 413.062 346.634C416.045 348.412 416.09 351.391 413.107 353.217Z" fill="url(#paint5_linear_1_11)"/>
</g>
</g>
<defs>
<filter id="filter0_f_1_11" x="-311" y="-1167" width="1145" height="1326" filterUnits="userSpaceOnUse" color-interpolation-filters="sRGB">
<feFlood flood-opacity="0" result="BackgroundImageFix"/>
<feBlend mode="normal" in="SourceGraphic" in2="BackgroundImageFix" result="shape"/>
<feGaussianBlur stdDeviation="120.5" result="effect1_foregroundBlur_1_11"/>
</filter>
<filter id="filter1_d_1_11" x="-515" y="352" width="560" height="560" filterUnits="userSpaceOnUse" color-interpolation-filters="sRGB">
<feFlood flood-opacity="0" result="BackgroundImageFix"/>
<feColorMatrix in="SourceAlpha" type="matrix" values="0 0 0 0 0 0 0 0 0 0 0 0 0 0 0 0 0 0 127 0" result="hardAlpha"/>
<feOffset/>
<feGaussianBlur stdDeviation="40"/>
<feComposite in2="hardAlpha" operator="out"/>
<feColorMatrix type="matrix" values="0 0 0 0 0.172549 0 0 0 0 0.172549 0 0 0 0 0.176471 0 0 0 0.35 0"/>
<feBlend mode="normal" in2="BackgroundImageFix" result="effect1_dropShadow_1_11"/>
<feBlend mode="normal" in="SourceGraphic" in2="effect1_dropShadow_1_11" result="shape"/>
</filter>
<filter id="filter2_d_1_11" x="-80" y="352" width="560" height="560" filterUnits="userSpaceOnUse" color-interpolation-filters="sRGB">
<feFlood flood-opacity="0" result="BackgroundImageFix"/>
<feColorMatrix in="SourceAlpha" type="matrix" values="0 0 0 0 0 0 0 0 0 0 0 0 0 0 0 0 0 0 127 0" result="hardAlpha"/>
<feOffset/>
<feGaussianBlur stdDeviation="40"/>
<feComposite in2="hardAlpha" operator="out"/>
<feColorMatrix type="matrix" values="0 0 0 0 0.172549 0 0 0 0 0.172549 0 0 0 0 0.176471 0 0 0 0.35 0"/>
<feBlend mode="normal" in2="BackgroundImageFix" result="effect1_dropShadow_1_11"/>
<feBlend mode="normal" in="SourceGraphic" in2="effect1_dropShadow_1_11" result="shape"/>
</filter>
<filter id="filter3_d_1_11" x="-150" y="-150" width="700" height="700" filterUnits="userSpaceOnUse" color-interpolation-filters="sRGB">
<feFlood flood-opacity="0" result="BackgroundImageFix"/>
<feColorMatrix in="SourceAlpha" type="matrix" values="0 0 0 0 0 0 0 0 0 0 0 0 0 0 0 0 0 0 127 0" result="hardAlpha"/>
<feOffset/>
<feGaussianBlur stdDeviation="75"/>
<feComposite in2="hardAlpha" operator="out"/>
<feColorMatrix type="matrix" values="0 0 0 0 0.231373 0 0 0 0 0.372549 0 0 0 0 0.588235 0 0 0 0.35 0"/>
<feBlend mode="normal" in2="BackgroundImageFix" result="effect1_dropShadow_1_11"/>
<feBlend mode="normal" in="SourceGraphic" in2="effect1_dropShadow_1_11" result="shape"/>
</filter>
<linearGradient id="paint0_linear_1_11" x1="-390.636" y1="468.697" x2="-83.3902" y2="829.234" gradientUnits="userSpaceOnUse">
<stop stop-color="#303134"/>
<stop offset="0.519792" stop-color="#282828"/>
<stop offset="0.927909" stop-color="#282828"/>
</linearGradient>
<linearGradient id="paint1_linear_1_11" x1="-435" y1="438" x2="-35" y2="832" gradientUnits="userSpaceOnUse">
<stop stop-color="white"/>
<stop offset="1" stop-color="white" stop-opacity="0"/>
</linearGradient>
<linearGradient id="paint2_linear_1_11" x1="44.3636" y1="468.697" x2="351.61" y2="829.234" gradientUnits="userSpaceOnUse">
<stop stop-color="#303134"/>
<stop offset="0.519792" stop-color="#282828"/>
<stop offset="0.927909" stop-color="#282828"/>
</linearGradient>
<linearGradient id="paint3_linear_1_11" x1="7.99999" y1="439" x2="382" y2="838" gradientUnits="userSpaceOnUse">
<stop stop-color="white"/>
<stop offset="1" stop-color="white" stop-opacity="0"/>
</linearGradient>
<linearGradient id="paint4_linear_1_11" x1="44.3636" y1="36.6973" x2="351.61" y2="397.234" gradientUnits="userSpaceOnUse">
<stop stop-color="#527791"/>
<stop offset="0.519792" stop-color="#325597"/>
<stop offset="0.927909" stop-color="#193895"/>
</linearGradient>
<linearGradient id="paint5_linear_1_11" x1="214" y1="256" x2="378" y2="386" gradientUnits="userSpaceOnUse">
<stop stop-color="#5577CD"/>
<stop offset="1" stop-color="#5577CD"/>
</linearGradient>
<clipPath id="clip0_1_11">
<rect width="1920" height="4905" fill="white" transform="translate(-1195 -1144)"/>
</clipPath>
<clipPath id="clip1_1_11">
<rect width="211" height="211" fill="white" transform="translate(189 189)"/>
</clipPath>
</defs>
</svg>
