<svg width="400" height="399" viewBox="0 0 400 399" fill="none" xmlns="http://www.w3.org/2000/svg">
<g clip-path="url(#clip0_1_11)">
<rect width="1920" height="4905" transform="translate(-760 -1577)" fill="#161617"/>
<path d="M-1103.89 1172.27C-669.085 1462.03 -290.538 893.715 23.5572 873.026C476.218 843.224 596.621 1378.65 817.627 1138.14C1038.63 897.634 1246.6 687.805 1459.21 1070.82C1671.82 1453.84 1858.53 1249.9 1858.53 1249.9" stroke="white" stroke-opacity="0.1" stroke-width="0.6482" stroke-miterlimit="10"/>
<path d="M1858.11 1240.07C1854.28 1238.57 1660.83 1449.62 1447.95 1075.09C1235.06 700.564 1033.1 890.051 811.466 1126.11C589.207 1362.27 468.426 856.301 12.643 884.942C-302.914 904.877 -675.887 1441.86 -1102.86 1155.08" stroke="white" stroke-opacity="0.1" stroke-width="0.6553" stroke-miterlimit="10"/>
<path d="M1857.65 1230.3C1849.99 1227.29 1649.77 1445.44 1436.63 1079.41C1223.5 713.38 1027.55 882.525 805.258 1114.13C581.747 1345.93 460.625 869.407 1.68293 896.907C-315.299 916.068 -682.709 1421.65 -1101.81 1137.91" stroke="white" stroke-opacity="0.1" stroke-width="0.6623" stroke-miterlimit="10"/>
<path d="M1857.23 1220.5C1845.73 1216 1638.77 1441.25 1425.36 1083.71C1211.94 726.168 1022.01 874.97 799.05 1102.15C574.259 1329.59 452.815 882.541 -9.27738 908.872C-327.675 927.231 -689.512 1401.48 -1100.78 1120.7" stroke="white" stroke-opacity="0.1" stroke-width="0.6694" stroke-miterlimit="10"/>
<path d="M1856.78 1210.69C1841.48 1204.7 1627.72 1437.03 1414.06 1087.99C1200.39 738.955 1016.97 867.941 792.851 1090.14C567.315 1313.73 445.052 895.627 -20.2375 920.837C-340.059 938.422 -696.343 1381.3 -1099.72 1103.52" stroke="white" stroke-opacity="0.1" stroke-width="0.6764" stroke-miterlimit="10"/>
<path d="M1856.32 1200.91C1837.19 1193.39 1616.69 1432.86 1402.74 1092.31C1188.84 751.743 1011.52 860.507 786.644 1078.16C559.972 1297.52 437.242 908.761 -31.189 932.773C-352.435 949.584 -703.136 1361.1 -1098.67 1086.35" stroke="white" stroke-opacity="0.1" stroke-width="0.6835" stroke-miterlimit="10"/>
<path d="M1855.9 1191.12C1832.94 1182.1 1605.66 1428.66 1391.47 1096.61C1177.29 764.53 1006.09 853.082 780.445 1066.15C552.61 1281.28 429.45 921.838 -42.1406 944.71C-364.819 960.775 -709.967 1340.92 -1097.64 1069.13" stroke="white" stroke-opacity="0.1" stroke-width="0.6905" stroke-miterlimit="10"/>
<path d="M1855.44 1181.31C1828.65 1170.79 1594.64 1424.46 1380.18 1100.87C1165.72 777.281 1000.64 845.647 774.246 1054.14C545.248 1265.04 421.649 934.944 -53.092 956.646C-377.204 971.966 -716.761 1320.72 -1096.59 1051.96" stroke="white" stroke-opacity="0.1" stroke-width="0.6976" stroke-miterlimit="10"/>
<path d="M1854.99 1171.51C1824.37 1159.48 1583.58 1420.25 1368.87 1105.16C1154.15 790.097 995.16 838.205 768.038 1042.16C537.876 1248.83 413.848 948.05 -64.0522 968.611C-389.609 983.12 -723.592 1300.54 -1095.56 1034.77" stroke="white" stroke-opacity="0.1" stroke-width="0.7046" stroke-miterlimit="10"/>
<path d="M1854.56 1161.74C1820.1 1148.21 1572.58 1416.08 1357.59 1109.48C1142.6 802.885 989.699 830.799 761.839 1030.15C530.514 1232.59 406.055 961.127 -75.0039 980.547C-401.993 994.311 -730.385 1280.34 -1094.5 1017.57" stroke="white" stroke-opacity="0.1" stroke-width="0.7117" stroke-miterlimit="10"/>
<path d="M1854.11 1151.93C1815.82 1136.91 1561.52 1411.87 1346.29 1113.77C1131.05 815.672 984.219 823.357 755.64 1018.14C523.123 1216.34 398.254 974.232 -85.9353 992.521C-414.34 1005.48 -737.187 1260.17 -1093.45 1000.39" stroke="white" stroke-opacity="0.1" stroke-width="0.7187" stroke-miterlimit="10"/>
<path d="M1853.66 1142.13C1811.56 1125.61 1550.5 1407.67 1334.98 1118.06C1119.5 828.46 978.738 815.914 749.432 1006.16C515.732 1200.09 390.482 987.347 -96.8868 1004.46C-426.753 1016.66 -744.018 1239.99 -1092.43 983.208" stroke="white" stroke-opacity="0.1" stroke-width="0.7257" stroke-miterlimit="10"/>
<path d="M1853.24 1132.33C1807.31 1114.31 1539.47 1403.47 1323.71 1122.36C1107.94 841.247 973.228 808.462 743.233 994.154C508.312 1183.84 382.652 1000.44 -107.867 1016.38C-439.129 1027.83 -750.812 1219.79 -1091.37 966.004" stroke="white" stroke-opacity="0.1" stroke-width="0.7328" stroke-miterlimit="10"/>
<path d="M1852.78 1122.55C1803.03 1103.01 1528.44 1399.29 1312.4 1126.67C1096.35 854.055 967.719 801.011 737.026 982.173C500.913 1167.61 374.851 1013.55 -118.827 1028.35C-451.514 1039.02 -757.643 1199.61 -1090.34 948.82" stroke="white" stroke-opacity="0.1" stroke-width="0.7398" stroke-miterlimit="10"/>
<path d="M1852.35 1112.75C1798.77 1091.71 1517.41 1395.09 1301.12 1130.97C1084.81 866.814 962.209 793.56 730.855 970.173C493.53 1151.34 367.108 1026.67 -129.75 1040.29C-463.89 1050.18 -764.436 1179.41 -1089.29 931.644" stroke="white" stroke-opacity="0.1" stroke-width="0.7469" stroke-miterlimit="10"/>
<path d="M1851.9 1102.95C1794.49 1080.4 1506.38 1390.92 1289.82 1135.26C1073.26 879.602 956.708 786.08 724.656 958.164C486.082 1135.07 359.278 1039.77 -140.71 1052.26C-476.274 1061.37 -771.267 1159.23 -1088.23 914.44" stroke="white" stroke-opacity="0.1" stroke-width="0.7539" stroke-miterlimit="10"/>
<path d="M1851.44 1093.17C1790.19 1069.12 1495.32 1386.73 1278.52 1139.55C1061.71 892.361 951.17 778.62 718.449 946.183C478.662 1118.81 351.506 1052.88 -151.633 1064.2C-488.65 1072.53 -778.032 1139.04 -1087.18 897.264" stroke="white" stroke-opacity="0.1" stroke-width="0.761" stroke-miterlimit="10"/>
<path d="M1851.02 1083.37C1785.94 1057.83 1484.29 1382.53 1267.24 1143.84C1050.15 905.177 945.67 771.14 712.25 934.174C471.214 1102.55 343.713 1065.96 -162.585 1076.14C-501.063 1083.72 -784.892 1118.85 -1086.15 880.08" stroke="white" stroke-opacity="0.1" stroke-width="0.768" stroke-miterlimit="10"/>
<path d="M1850.57 1073.57C1781.65 1046.52 1473.27 1378.33 1255.94 1148.13C1038.6 917.965 940.103 763.671 706.051 922.165C463.774 1086.25 335.912 1079.07 -173.536 1088.08C-513.411 1094.89 -791.685 1098.65 -1085.09 862.876" stroke="white" stroke-opacity="0.1" stroke-width="0.7751" stroke-miterlimit="10"/>
<path d="M1850.12 1063.76C1777.4 1035.22 1462.21 1374.12 1244.63 1152.42C1027.03 930.715 934.544 756.174 699.852 910.156C456.306 1069.95 328.12 1092.14 -184.488 1100.01C-525.815 1106.04 -798.479 1078.46 -1084.06 845.663" stroke="white" stroke-opacity="0.1" stroke-width="0.7821" stroke-miterlimit="10"/>
<path d="M1849.68 1053.99C1773.13 1023.95 1451.21 1369.95 1233.35 1156.75C1015.47 943.531 928.986 748.676 693.644 898.175C448.829 1053.67 320.31 1105.28 -195.456 1112.01C-538.208 1117.26 -805.318 1058.3 -1083.01 828.516" stroke="white" stroke-opacity="0.1" stroke-width="0.7892" stroke-miterlimit="10"/>
<path d="M1849.23 1044.19C1768.86 1012.62 1440.15 1365.74 1222.05 1161.04C1003.91 956.319 923.428 741.179 687.436 886.195C441.361 1037.37 312.509 1118.38 -206.408 1123.94C-550.584 1128.42 -812.141 1038.1 -1081.99 811.331" stroke="white" stroke-opacity="0.1" stroke-width="0.7962" stroke-miterlimit="10"/>
<path d="M1848.78 1034.38C1764.6 1001.35 1429.13 1361.54 1210.74 1165.32C992.362 969.107 917.87 733.682 681.237 874.185C433.892 1021.06 304.717 1131.46 -217.36 1135.88C-562.96 1139.58 -818.943 1017.92 -1080.93 794.127" stroke="white" stroke-opacity="0.1" stroke-width="0.8033" stroke-miterlimit="10"/>
<path d="M1848.35 1024.61C1760.31 990.043 1418.09 1357.37 1199.43 1169.64C980.781 981.886 912.292 726.147 675.039 862.176C426.404 1004.72 296.916 1144.57 -228.311 1147.81C-575.364 1150.74 -825.765 997.716 -1079.9 776.914" stroke="white" stroke-opacity="0.1" stroke-width="0.8103" stroke-miterlimit="10"/>
<path d="M1847.9 1014.81C1756.03 978.737 1407.07 1353.17 1188.13 1173.93C969.229 994.673 906.705 718.641 668.831 850.196C418.907 988.411 289.144 1157.68 -239.271 1159.78C-587.758 1161.96 -832.567 977.545 -1078.84 759.739" stroke="white" stroke-opacity="0.1" stroke-width="0.8173" stroke-miterlimit="10"/>
<path d="M1847.48 1005.01C1751.77 967.439 1396.04 1348.96 1176.86 1178.2C957.676 1007.46 901.127 711.106 662.632 838.187C411.418 972.07 281.343 1170.79 -250.223 1171.72C-600.134 1173.12 -839.369 957.375 -1077.79 742.563" stroke="white" stroke-opacity="0.1" stroke-width="0.8244" stroke-miterlimit="10"/>
<path d="M1847.03 995.204C1747.49 956.133 1385.02 1344.76 1165.55 1182.51C946.124 1020.25 895.528 703.534 656.424 826.206C403.921 955.757 273.542 1183.89 -261.183 1183.68C-612.518 1184.31 -846.2 937.195 -1076.77 725.379" stroke="white" stroke-opacity="0.1" stroke-width="0.8314" stroke-miterlimit="10"/>
<path d="M1846.57 985.427C1743.22 944.864 1373.96 1340.58 1154.25 1186.8C934.571 1033.04 889.922 695.991 650.225 814.197C396.413 939.379 265.741 1197 -272.134 1195.62C-624.923 1195.46 -853.023 916.986 -1075.74 708.166" stroke="white" stroke-opacity="0.1" stroke-width="0.8385" stroke-miterlimit="10"/>
<path d="M1846.14 975.63C1738.98 933.537 1362.93 1336.38 1142.97 1191.1C923.019 1045.82 884.323 688.419 644.055 802.196C388.933 923.009 257.977 1210.08 -283.057 1207.56C-637.278 1206.66 -859.825 896.815 -1074.65 690.999" stroke="white" stroke-opacity="0.1" stroke-width="0.8455" stroke-miterlimit="10"/>
<path d="M1845.69 965.824C1734.68 922.26 1351.9 1332.17 1131.67 1195.39C911.438 1058.6 878.725 680.847 637.847 790.216C381.425 906.631 250.167 1223.22 -294.017 1219.53C-649.654 1217.83 -866.618 876.616 -1073.63 673.815" stroke="white" stroke-opacity="0.1" stroke-width="0.8526" stroke-miterlimit="10"/>
<path d="M1845.24 956.018C1730.41 910.925 1340.88 1327.97 1120.37 1199.68C899.885 1071.39 873.107 673.238 631.62 778.198C373.859 890.235 242.346 1236.29 -304.998 1231.45C-662.039 1229.02 -873.449 856.436 -1072.58 656.639" stroke="white" stroke-opacity="0.1" stroke-width="0.8596" stroke-miterlimit="10"/>
<path d="M1844.81 946.249C1726.15 899.656 1329.85 1323.8 1109.09 1203.97C888.333 1084.18 867.517 665.637 625.449 766.198C366.359 873.828 234.574 1249.4 -315.929 1243.43C-674.415 1240.18 -880.243 836.236 -1071.55 639.426" stroke="white" stroke-opacity="0.1" stroke-width="0.8667" stroke-miterlimit="10"/>
<path d="M1844.36 936.444C1721.86 888.35 1318.79 1319.59 1097.78 1208.29C876.78 1096.97 861.89 658.056 619.242 754.217C358.831 857.412 226.773 1262.51 -326.881 1255.36C-686.828 1251.36 -887.074 816.057 -1070.49 622.25" stroke="white" stroke-opacity="0.1" stroke-width="0.8737" stroke-miterlimit="10"/>
<path d="M1843.91 926.638C1717.61 877.052 1307.77 1315.39 1086.48 1212.58C865.228 1109.75 856.281 650.418 613.043 742.208C351.302 840.996 218.972 1275.61 -337.841 1267.33C-699.212 1262.55 -893.867 795.857 -1069.44 605.075" stroke="white" stroke-opacity="0.1" stroke-width="0.8808" stroke-miterlimit="10"/>
<path d="M1843.47 916.869C1713.34 865.783 1296.73 1311.21 1075.2 1216.88C853.647 1122.53 850.671 642.78 606.835 730.227C343.783 824.552 211.171 1288.72 -348.792 1279.27C-711.588 1273.72 -900.698 775.677 -1068.41 587.862" stroke="white" stroke-opacity="0.1" stroke-width="0.8878" stroke-miterlimit="10"/>
<path d="M1843.02 907.063C1709.06 854.477 1285.71 1307.01 1063.9 1221.16C842.094 1135.32 845.033 635.134 600.636 718.218C336.243 808.07 203.407 1301.8 -359.715 1291.21C-723.973 1284.91 -907.5 755.506 -1067.36 570.686" stroke="white" stroke-opacity="0.1" stroke-width="0.8949" stroke-miterlimit="10"/>
<path d="M1842.57 897.257C1704.77 843.17 1274.65 1302.8 1052.6 1225.45C830.542 1148.11 839.424 627.496 594.437 706.209C328.732 791.597 195.606 1314.91 -370.667 1303.15C-736.349 1296.07 -914.323 735.298 -1066.33 553.502" stroke="white" stroke-opacity="0.1" stroke-width="0.9019" stroke-miterlimit="10"/>
<path d="M1842.15 887.46C1700.52 831.873 1263.66 1298.61 1041.32 1229.75C818.99 1160.9 833.802 619.791 588.238 694.2C321.192 775.115 187.814 1327.99 -381.618 1315.08C-748.733 1307.26 -921.125 715.127 -1065.27 536.298" stroke="white" stroke-opacity="0.1" stroke-width="0.9089" stroke-miterlimit="10"/>
<path d="M1841.69 877.683C1696.23 820.566 1252.59 1294.42 1030.01 1234.07C807.428 1173.71 828.193 612.154 582.03 682.22C313.652 758.633 180.004 1341.12 -392.578 1327.05C-761.109 1318.42 -927.918 694.927 -1064.22 519.122" stroke="white" stroke-opacity="0.1" stroke-width="0.916" stroke-miterlimit="10"/>
<path d="M1841.27 867.886C1691.98 809.269 1241.57 1290.22 1018.71 1238.36C795.847 1186.49 822.572 604.449 575.823 670.239C306.112 742.151 172.203 1354.23 -403.539 1339.01C-773.494 1329.61 -934.749 674.748 -1063.2 501.938" stroke="white" stroke-opacity="0.1" stroke-width="0.923" stroke-miterlimit="10"/>
<path d="M1840.82 858.08C1687.72 797.971 1230.54 1286.02 1007.43 1242.65C784.324 1199.29 816.98 596.754 569.652 658.238C298.619 725.621 164.431 1367.34 -414.461 1350.96C-785.898 1340.77 -941.551 654.577 -1062.13 484.733" stroke="white" stroke-opacity="0.1" stroke-width="0.9301" stroke-miterlimit="10"/>
<path d="M1840.36 848.274C1683.44 786.665 1219.52 1281.82 996.131 1246.94C772.742 1212.07 811.367 589.021 563.424 646.221C291.076 709.044 156.61 1380.41 -425.442 1362.88C-798.283 1351.96 -948.374 634.368 -1061.11 467.549" stroke="white" stroke-opacity="0.1" stroke-width="0.9371" stroke-miterlimit="10"/>
<path d="M1839.93 838.505C1679.18 775.396 1208.49 1277.64 984.848 1251.27C761.19 1224.85 805.755 581.289 557.217 634.24C283.545 692.534 148.809 1393.51 -436.402 1374.85C-810.659 1363.12 -955.176 614.197 -1060.06 450.374" stroke="white" stroke-opacity="0.1" stroke-width="0.9442" stroke-miterlimit="10"/>
<path d="M1839.48 828.7C1674.89 764.089 1197.46 1273.44 973.553 1255.53C749.637 1237.64 800.143 573.556 551.047 622.24C276.06 675.975 141.037 1406.63 -447.325 1386.79C-823.043 1374.31 -961.998 593.989 -1059 433.169" stroke="white" stroke-opacity="0.1" stroke-width="0.9512" stroke-miterlimit="10"/>
<path d="M1839.03 818.894C1670.64 752.792 1186.43 1269.24 962.241 1259.84C738.085 1250.43 794.471 565.398 544.839 610.259C268.467 658.945 133.236 1419.73 -458.285 1398.76C-835.428 1385.5 -968.8 573.818 -1057.97 415.985" stroke="white" stroke-opacity="0.1" stroke-width="0.9583" stroke-miterlimit="10"/>
<path d="M1838.6 809.125C1666.35 741.486 1175.4 1265.07 950.967 1264.14C726.533 1263.22 788.93 557.844 538.64 598.25C261.024 642.555 125.463 1432.85 -469.236 1410.7C-847.804 1396.66 -975.631 553.638 -1056.92 398.809" stroke="white" stroke-opacity="0.1" stroke-width="0.9653" stroke-miterlimit="10"/>
<path d="M1838.15 799.319C1662.07 730.179 1164.35 1260.85 939.663 1268.43C714.98 1276 783.389 550.289 532.441 586.241C253.573 626.194 117.671 1445.93 -480.188 1422.63C-860.188 1407.85 -982.425 533.439 -1055.89 381.596" stroke="white" stroke-opacity="0.1" stroke-width="0.9724" stroke-miterlimit="10"/>
<path d="M2379.93 182.249C1854.18 576.283 1339.61 -110.789 943.894 -114.864C373.62 -120.736 259.583 559.835 -34.5232 273.268C-328.599 -13.2697 -604.229 -262.177 -844.551 233.451C-1084.87 729.079 -1333.37 486.074 -1333.37 486.074" stroke="white" stroke-opacity="0.1" stroke-width="0.6687" stroke-miterlimit="10"/>
<path d="M-1333.46 477.355C-1330.14 475.827 -1075.29 724.855 -834.309 236.716C-593.328 -251.392 -324.048 -20.2504 -29.5819 262.302C265.423 544.915 381.226 -109.501 954.226 -104.798C1351.17 -101.472 1859.27 558.038 2378.16 167.03" stroke="white" stroke-opacity="0.1" stroke-width="0.6738" stroke-miterlimit="10"/>
<path d="M-1333.55 468.637C-1326.9 465.581 -1065.71 720.571 -824.067 239.982C-582.427 -240.606 -319.496 -27.2311 -24.6707 251.337C271.232 529.995 388.773 -98.2362 964.528 -94.7309C1362.7 -92.1544 1864.3 539.762 2376.39 151.78" stroke="white" stroke-opacity="0.1" stroke-width="0.679" stroke-miterlimit="10"/>
<path d="M-1333.64 459.919C-1323.67 455.335 -1056.09 716.316 -813.825 243.248C-571.557 -229.821 -314.944 -34.2117 -19.7595 240.372C277.042 515.105 396.349 -86.9713 974.859 -84.6643C1374.26 -82.8667 1869.4 521.456 2374.63 136.56" stroke="white" stroke-opacity="0.1" stroke-width="0.6841" stroke-miterlimit="10"/>
<path d="M-1333.73 451.17C-1320.43 445.088 -1046.51 712.002 -803.584 246.484C-560.656 -219.035 -310.392 -41.2224 -14.8482 229.406C282.882 500.215 403.896 -75.7363 985.161 -74.5679C1385.82 -73.5193 1874.43 503.211 2372.83 121.371" stroke="white" stroke-opacity="0.1" stroke-width="0.6893" stroke-miterlimit="10"/>
<path d="M-1333.82 442.452C-1317.2 434.842 -1036.93 707.748 -793.342 249.749C-549.756 -208.249 -306.379 -47.5739 -9.93696 218.441C288.122 485.924 411.443 -64.4713 995.462 -64.5013C1397.35 -64.2017 1879.49 484.935 2371.06 106.151" stroke="white" stroke-opacity="0.1" stroke-width="0.6944" stroke-miterlimit="10"/>
<path d="M-1333.91 433.734C-1313.93 424.596 -1027.35 703.493 -783.1 253.015C-538.855 -197.464 -301.917 -54.4347 -4.99568 207.476C293.872 471.124 419.049 -53.2063 1005.79 -54.4347C1408.91 -54.8841 1884.55 466.66 2369.3 90.9013" stroke="white" stroke-opacity="0.1" stroke-width="0.6996" stroke-miterlimit="10"/>
<path d="M-1334 425.015C-1310.7 414.349 -1017.73 699.209 -772.858 256.28C-527.984 -186.648 -297.455 -61.2956 -0.0845902 196.51C299.592 456.353 426.596 -41.9713 1016.1 -44.3681C1420.44 -45.5965 1889.61 448.384 2367.53 75.6815" stroke="white" stroke-opacity="0.1" stroke-width="0.7047" stroke-miterlimit="10"/>
<path d="M-1334.09 416.297C-1307.47 404.103 -1008.15 694.955 -762.616 259.546C-517.084 -175.863 -292.963 -68.1564 4.82671 185.545C305.342 441.583 434.172 -30.7064 1026.43 -34.2716C1432.03 -36.249 1894.7 430.138 2365.76 60.4919" stroke="white" stroke-opacity="0.1" stroke-width="0.7099" stroke-miterlimit="10"/>
<path d="M-1334.15 407.578C-1304.2 393.857 -998.536 690.7 -752.345 262.812C-506.153 -165.077 -288.471 -75.0173 9.7678 174.609C311.091 426.813 441.748 -19.4115 1036.73 -24.1752C1443.55 -26.9015 1899.73 411.893 2363.99 45.2721" stroke="white" stroke-opacity="0.1" stroke-width="0.715" stroke-miterlimit="10"/>
<path d="M-1334.24 398.83C-1300.97 383.58 -988.924 686.386 -742.103 266.047C-495.253 -154.291 -283.979 -81.9081 14.6792 163.614C316.841 412.012 449.325 -8.20646 1047.06 -14.1385C1455.11 -17.6139 1904.82 393.587 2362.23 30.0225" stroke="white" stroke-opacity="0.1" stroke-width="0.7201" stroke-miterlimit="10"/>
<path d="M-1334.33 390.112C-1297.73 373.334 -979.341 682.132 -731.861 269.313C-484.382 -143.506 -279.487 -88.7689 19.5903 152.649C322.561 397.212 456.872 3.05851 1057.36 -4.04201C1466.64 -8.26637 1909.85 375.341 2360.46 14.8328" stroke="white" stroke-opacity="0.1" stroke-width="0.7253" stroke-miterlimit="10"/>
<path d="M-1334.42 381.393C-1294.5 363.118 -969.758 677.848 -721.62 272.579C-473.481 -132.72 -275.025 -95.6597 24.5317 141.683C328.341 382.412 464.448 14.3234 1067.69 6.02451C1478.2 1.02119 1914.94 357.036 2358.69 -0.386882" stroke="white" stroke-opacity="0.1" stroke-width="0.7304" stroke-miterlimit="10"/>
<path d="M-1334.51 372.675C-1291.27 352.871 -960.145 673.593 -711.378 275.844C-462.611 -121.905 -270.503 -102.521 29.4428 130.748C334.09 367.672 472.024 25.5885 1078 16.1211C1489.76 10.3688 1919.98 338.79 2356.9 -15.6066" stroke="white" stroke-opacity="0.1" stroke-width="0.7356" stroke-miterlimit="10"/>
<path d="M-1334.6 363.957C-1288.03 342.625 -950.562 669.339 -701.136 279.11C-451.71 -111.119 -266.011 -109.381 34.3542 119.783C339.87 352.871 479.571 36.8534 1088.3 26.1876C1501.29 19.6863 1925.04 320.515 2355.13 -30.8262" stroke="white" stroke-opacity="0.1" stroke-width="0.7407" stroke-miterlimit="10"/>
<path d="M-1334.69 355.208C-1284.8 332.349 -940.979 665.025 -690.894 282.346C-440.81 -100.333 -261.519 -116.302 39.2655 108.787C345.62 338.041 487.148 48.0884 1098.6 36.2542C1512.82 29.0039 1930.1 302.239 2353.33 -46.0459" stroke="white" stroke-opacity="0.1" stroke-width="0.7459" stroke-miterlimit="10"/>
<path d="M-1334.78 346.49C-1281.56 322.103 -931.396 660.77 -680.652 285.611C-429.909 -89.5479 -256.997 -123.193 44.1768 97.822C351.37 323.241 494.694 59.3234 1108.93 46.3207C1524.38 38.2915 1935.16 283.963 2351.6 -61.2656" stroke="white" stroke-opacity="0.1" stroke-width="0.751" stroke-miterlimit="10"/>
<path d="M-1334.87 337.772C-1278.33 311.856 -921.783 656.516 -670.411 288.877C-419.038 -78.7623 -252.505 -130.054 49.0878 86.8566C357.149 308.441 502.241 70.5883 1119.23 56.3873C1535.94 47.609 1940.22 265.688 2349.8 -76.5153" stroke="white" stroke-opacity="0.1" stroke-width="0.7562" stroke-miterlimit="10"/>
<path d="M-1334.96 329.053C-1275.09 301.61 -912.2 652.232 -660.169 292.142C-408.138 -67.9468 -247.983 -136.945 54.0291 75.9212C362.959 293.67 509.847 81.8833 1129.56 66.4838C1547.5 56.9565 1945.28 247.442 2348.06 -91.705" stroke="white" stroke-opacity="0.1" stroke-width="0.7613" stroke-miterlimit="10"/>
<path d="M-1335.02 320.335C-1271.8 291.394 -902.587 647.977 -649.897 295.408C-397.207 -57.161 -243.431 -143.835 58.9703 64.9559C368.769 278.87 517.424 93.1483 1139.9 76.5804C1559.06 66.3041 1950.37 229.197 2346.3 -106.895" stroke="white" stroke-opacity="0.1" stroke-width="0.7664" stroke-miterlimit="10"/>
<path d="M-1335.11 311.616C-1268.57 281.147 -892.974 643.693 -639.656 298.674C-386.307 -46.3755 -238.879 -150.726 63.8814 53.9905C374.548 264.04 525 104.383 1150.2 86.6469C1570.59 75.5916 1955.4 210.921 2344.53 -122.114" stroke="white" stroke-opacity="0.1" stroke-width="0.7716" stroke-miterlimit="10"/>
<path d="M-1335.2 302.868C-1265.33 270.871 -883.391 639.409 -629.414 301.91C-375.436 -35.5899 -234.357 -157.647 68.7928 42.9952C380.358 249.21 532.547 115.618 1160.5 96.6835C1582.15 84.8793 1960.46 192.585 2342.73 -137.394" stroke="white" stroke-opacity="0.1" stroke-width="0.7767" stroke-miterlimit="10"/>
<path d="M-1335.29 294.15C-1262.1 260.625 -873.808 635.155 -619.172 305.175C-364.535 -24.8043 -229.805 -164.538 73.704 32.0598C386.138 234.41 540.093 126.913 1170.83 106.78C1593.71 94.2268 1965.55 174.34 2340.97 -152.584" stroke="white" stroke-opacity="0.1" stroke-width="0.7819" stroke-miterlimit="10"/>
<path d="M-1335.38 285.431C-1258.86 250.378 -864.196 630.87 -608.93 308.441C-353.665 -13.9888 -225.283 -171.459 78.6153 21.0943C391.947 219.609 547.67 138.148 1181.13 116.876C1605.24 103.574 1970.59 156.094 2339.2 -167.773" stroke="white" stroke-opacity="0.1" stroke-width="0.787" stroke-miterlimit="10"/>
<path d="M-1335.47 276.713C-1255.63 240.132 -854.613 626.616 -598.688 311.706C-342.764 -3.20314 -220.732 -178.379 83.5565 10.0991C397.787 204.749 555.247 149.383 1191.46 126.913C1616.8 112.832 1975.68 137.789 2337.43 -183.053" stroke="white" stroke-opacity="0.1" stroke-width="0.7922" stroke-miterlimit="10"/>
<path d="M-1335.56 267.995C-1252.39 229.886 -845.03 622.362 -588.447 314.972C-331.864 7.5825 -216.18 -185.27 88.4677 -0.836189C403.566 189.949 562.823 160.678 1201.77 137.01C1628.36 122.18 1980.71 119.543 2335.67 -198.243" stroke="white" stroke-opacity="0.1" stroke-width="0.7973" stroke-miterlimit="10"/>
<path d="M-1335.65 259.246C-1249.16 219.639 -835.447 618.047 -578.205 318.208C-320.963 18.3381 -211.628 -192.221 93.379 -11.8317C409.406 175.089 570.369 171.883 1212.07 147.046C1639.88 131.467 1985.77 101.237 2333.87 -213.492" stroke="white" stroke-opacity="0.1" stroke-width="0.8024" stroke-miterlimit="10"/>
<path d="M-1335.74 250.528C-1245.93 209.393 -825.834 613.793 -567.963 321.474C-310.092 29.1538 -207.076 -199.141 98.2902 -22.767C415.216 160.259 577.946 183.178 1222.37 157.173C1651.41 140.845 1990.8 83.0218 2332.1 -228.652" stroke="white" stroke-opacity="0.1" stroke-width="0.8076" stroke-miterlimit="10"/>
<path d="M-1335.8 241.81C-1242.66 199.147 -816.221 609.509 -557.691 324.739C-299.162 39.9393 -202.464 -206.062 103.232 -33.7323C421.056 145.428 585.523 194.443 1232.7 167.239C1662.97 150.162 1995.89 64.7462 2330.34 -243.902" stroke="white" stroke-opacity="0.1" stroke-width="0.8127" stroke-miterlimit="10"/>
<path d="M-1335.89 233.091C-1239.43 188.9 -806.638 605.254 -547.45 328.005C-288.261 50.7548 -197.912 -212.983 108.143 -44.6978C426.895 130.568 593.069 205.678 1243.03 177.306C1674.56 159.45 2000.98 46.4405 2328.6 -259.122" stroke="white" stroke-opacity="0.1" stroke-width="0.8179" stroke-miterlimit="10"/>
<path d="M-1335.98 224.373C-1236.19 178.654 -797.025 601 -537.208 331.27C-277.391 61.5404 -193.33 -219.964 113.084 -55.6631C432.735 115.738 600.675 216.943 1253.36 187.402C1686.12 168.797 2006.04 28.195 2326.83 -274.311" stroke="white" stroke-opacity="0.1" stroke-width="0.823" stroke-miterlimit="10"/>
<path d="M-1336.07 215.655C-1232.93 168.408 -787.442 596.716 -526.966 334.536C-266.49 72.326 -188.749 -226.885 117.995 -66.5986C438.574 100.908 608.222 228.238 1263.66 197.499C1697.65 178.145 2011.1 9.94922 2325.03 -289.501" stroke="white" stroke-opacity="0.1" stroke-width="0.8282" stroke-miterlimit="10"/>
<path d="M-1336.16 206.906C-1229.69 158.131 -777.859 592.432 -516.724 337.772C-255.589 83.1117 -184.167 -233.835 122.906 -77.5938C444.414 85.9878 615.799 239.443 1273.97 207.535C1709.18 187.432 2016.13 -8.35629 2323.27 -304.781" stroke="white" stroke-opacity="0.1" stroke-width="0.8333" stroke-miterlimit="10"/>
<path d="M-1336.24 198.188C-1226.46 147.915 -768.276 588.177 -506.483 341.037C-244.689 93.8972 -179.585 -240.786 127.818 -88.5591C450.253 71.1277 623.345 250.708 1284.27 217.602C1720.74 196.72 2021.2 -26.6318 2321.47 -320" stroke="white" stroke-opacity="0.1" stroke-width="0.8385" stroke-miterlimit="10"/>
<path d="M-1336.33 189.47C-1223.23 137.669 -758.663 583.893 -496.241 344.303C-233.818 104.683 -175.003 -247.767 132.729 -99.5246C456.093 56.2375 630.892 261.973 1294.57 227.699C1732.27 206.067 2026.23 -44.8776 2319.7 -335.19" stroke="white" stroke-opacity="0.1" stroke-width="0.8436" stroke-miterlimit="10"/>
<path d="M-1336.42 180.751C-1219.99 127.422 -749.081 579.639 -485.999 347.568C-222.918 115.498 -170.421 -254.717 137.64 -110.49C461.963 41.3773 638.468 273.238 1304.9 237.765C1743.83 215.385 2031.32 -63.1532 2317.94 -350.41" stroke="white" stroke-opacity="0.1" stroke-width="0.8487" stroke-miterlimit="10"/>
<path d="M-1336.51 172.033C-1216.76 117.176 -739.498 575.354 -475.757 350.834C-212.017 126.284 -165.809 -261.698 142.581 -121.425C467.832 26.5172 646.045 284.503 1315.23 247.862C1755.39 224.733 2036.41 -81.3987 2316.2 -365.629" stroke="white" stroke-opacity="0.1" stroke-width="0.8539" stroke-miterlimit="10"/>
<path d="M-1336.57 163.285C-1213.49 106.9 -729.855 571.07 -465.486 354.04C-201.116 137.01 -161.198 -268.739 147.523 -132.451C473.702 11.5671 653.621 295.738 1325.53 257.898C1766.92 233.99 2041.44 -99.7043 2314.4 -380.879" stroke="white" stroke-opacity="0.1" stroke-width="0.859" stroke-miterlimit="10"/>
<path d="M-1336.66 154.566C-1210.26 96.6536 -720.272 566.816 -455.244 357.306C-190.216 147.795 -156.586 -275.719 152.434 -143.416C479.571 -3.35291 661.198 306.973 1335.87 267.965C1778.51 243.308 2046.53 -118.01 2312.64 -396.099" stroke="white" stroke-opacity="0.1" stroke-width="0.8642" stroke-miterlimit="10"/>
<path d="M-1336.75 145.848C-1207.03 86.4072 -710.689 562.532 -445.002 360.571C-179.315 158.611 -152.004 -282.7 157.345 -154.381C485.441 -18.273 668.774 318.208 1346.17 278.031C1790.04 252.625 2051.56 -136.286 2310.87 -411.348" stroke="white" stroke-opacity="0.1" stroke-width="0.8693" stroke-miterlimit="10"/>
<path d="M-1336.84 137.13C-1203.79 76.161 -701.076 558.277 -434.761 363.837C-168.415 169.426 -147.392 -289.711 162.256 -165.317C491.31 -33.1631 676.321 329.503 1356.47 288.128C1801.57 261.973 2056.62 -154.531 2309.07 -426.538" stroke="white" stroke-opacity="0.1" stroke-width="0.8745" stroke-miterlimit="10"/>
<path d="M-1336.93 128.411C-1200.56 65.9446 -691.493 554.023 -424.519 367.103C-157.544 180.212 -142.781 -296.721 167.197 -176.282C497.18 -48.0831 683.897 340.768 1366.83 298.195C1813.16 271.29 2061.71 -172.807 2307.37 -441.758" stroke="white" stroke-opacity="0.1" stroke-width="0.8796" stroke-miterlimit="10"/>
<path d="M-1337.02 119.663C-1197.32 55.6683 -681.91 549.709 -414.277 370.338C-146.644 190.968 -138.169 -303.762 172.109 -187.277C503.049 -63.0332 691.474 352.003 1377.13 308.261C1824.72 280.578 2066.77 -191.082 2305.57 -456.977" stroke="white" stroke-opacity="0.1" stroke-width="0.8847" stroke-miterlimit="10"/>
<path d="M-1337.11 110.944C-1194.06 45.4219 -672.327 545.454 -404.035 373.604C-135.743 201.783 -133.557 -310.773 177.02 -198.243C508.919 -77.9833 699.02 363.238 1387.43 318.328C1836.25 289.895 2071.84 -209.358 2303.8 -472.227" stroke="white" stroke-opacity="0.1" stroke-width="0.8899" stroke-miterlimit="10"/>
<path d="M-1337.2 102.226C-1190.82 35.1756 -662.715 541.17 -393.793 376.869C-124.872 212.569 -128.945 -317.783 181.931 -209.208C514.788 -92.9334 706.597 374.503 1397.74 328.394C1847.77 299.213 2076.87 -227.634 2302.01 -487.447" stroke="white" stroke-opacity="0.1" stroke-width="0.895" stroke-miterlimit="10"/>
<path d="M-1337.29 93.5077C-1187.59 24.9293 -653.131 536.916 -383.552 380.135C-113.972 223.354 -124.333 -324.824 186.843 -220.144C520.658 -107.853 714.143 385.768 1408.04 338.491C1859.3 308.561 2081.93 -245.879 2300.24 -502.636" stroke="white" stroke-opacity="0.1" stroke-width="0.9002" stroke-miterlimit="10"/>
<path d="M-1337.38 84.7894C-1184.36 14.683 -643.549 532.661 -373.31 383.401C-103.071 234.17 -119.721 -331.864 191.754 -231.109C526.528 -122.833 721.69 397.033 1418.34 348.587C1870.86 317.878 2086.96 -264.125 2298.44 -517.826" stroke="white" stroke-opacity="0.1" stroke-width="0.9053" stroke-miterlimit="10"/>
<path d="M-1337.44 76.071C-1181.09 4.43666 -633.906 528.377 -363.038 386.666C-92.1704 244.956 -115.08 -338.905 196.725 -242.074C532.457 -137.813 729.327 408.298 1428.73 358.654C1882.48 327.196 2092.11 -282.43 2296.74 -533.076" stroke="white" stroke-opacity="0.1" stroke-width="0.9105" stroke-miterlimit="10"/>
<path d="M-1337.53 67.3227C-1177.86 -5.80961 -624.323 524.093 -352.796 389.902C-81.2698 255.711 -110.468 -346.005 201.636 -253.07C538.327 -152.823 736.873 419.502 1439.03 368.69C1894.01 336.483 2097.14 -300.736 2294.97 -548.325" stroke="white" stroke-opacity="0.1" stroke-width="0.9156" stroke-miterlimit="10"/>
<path d="M-1337.62 58.6043C-1174.62 -16.056 -614.74 519.839 -342.555 393.168C-70.3693 266.527 -105.856 -353.046 206.548 -264.005C544.226 -167.773 744.45 430.797 1449.33 378.817C1905.54 345.861 2102.2 -318.952 2293.17 -563.485" stroke="white" stroke-opacity="0.1" stroke-width="0.9208" stroke-miterlimit="10"/>
<path d="M-1337.71 49.886C-1171.39 -26.3023 -605.127 515.554 -332.313 396.433C-59.4688 277.312 -101.244 -360.117 211.459 -274.97C550.096 -182.753 751.996 442.062 1459.64 388.883C1917.1 355.149 2107.26 -337.227 2291.4 -578.735" stroke="white" stroke-opacity="0.1" stroke-width="0.9259" stroke-miterlimit="10"/>
<path d="M-1337.8 41.1676C-1168.15 -36.5486 -595.544 511.3 -322.071 399.699C-48.5982 288.098 -96.6327 -367.187 216.37 -285.936C555.965 -197.763 759.543 453.297 1469.94 398.95C1928.63 364.466 2112.29 -355.503 2289.61 -593.954" stroke="white" stroke-opacity="0.1" stroke-width="0.931" stroke-miterlimit="10"/>
<path d="M-1337.89 32.4493C-1164.92 -46.7949 -585.961 507.016 -311.829 402.964C-37.6976 298.913 -92.0208 -374.288 221.281 -296.901C561.835 -212.773 767.119 464.562 1480.24 409.016C1940.16 373.784 2117.35 -373.778 2287.84 -609.174" stroke="white" stroke-opacity="0.1" stroke-width="0.9362" stroke-miterlimit="10"/>
<path d="M-1337.98 23.701C-1161.66 -57.0412 -576.348 502.731 -301.588 406.23C-26.7969 309.699 -87.4092 -381.388 226.222 -307.866C567.734 -227.813 774.696 475.827 1490.57 419.113C1951.72 383.131 2122.42 -392.024 2286.07 -624.364" stroke="white" stroke-opacity="0.1" stroke-width="0.9413" stroke-miterlimit="10"/>
<path d="M-1338.07 14.9827C-1158.45 -67.3175 -566.765 498.477 -291.346 409.466C-15.9264 320.485 -82.8272 -388.519 231.134 -318.832C573.604 -242.853 782.272 487.092 1500.9 429.18C1963.31 392.419 2127.51 -410.3 2284.34 -639.613" stroke="white" stroke-opacity="0.1" stroke-width="0.9465" stroke-miterlimit="10"/>
<path d="M-1338.16 6.26425C-1155.22 -77.5339 -557.182 494.193 -281.104 412.732C-5.02583 331.27 -78.2155 -395.619 236.045 -329.797C579.473 -257.893 789.819 498.327 1511.2 439.246C1974.84 401.736 2132.54 -428.575 2282.54 -654.833" stroke="white" stroke-opacity="0.1" stroke-width="0.9516" stroke-miterlimit="10"/>
<path d="M-1338.22 -2.45421C-1151.92 -87.7803 -547.57 489.938 -270.832 415.997C5.87475 342.056 -73.5737 -402.72 240.986 -340.763C585.373 -272.933 797.425 509.592 1521.54 449.313C1986.4 411.054 2137.63 -446.881 2280.77 -670.053" stroke="white" stroke-opacity="0.1" stroke-width="0.9568" stroke-miterlimit="10"/>
<path d="M-1338.31 -11.1725C-1148.69 -98.0266 -537.957 485.684 -260.591 419.263C16.7754 352.871 -68.9619 -409.85 245.897 -351.728C591.212 -287.973 804.972 520.857 1531.84 459.409C1997.93 420.401 2142.69 -465.126 2279.01 -685.243" stroke="white" stroke-opacity="0.1" stroke-width="0.9619" stroke-miterlimit="10"/>
<path d="M-1338.4 -19.9207C-1145.45 -108.303 -528.374 481.37 -250.349 422.499C27.6761 363.627 -64.38 -417.011 250.809 -362.723C597.082 -303.073 812.518 532.062 1542.14 469.446C2009.49 429.689 2147.72 -483.432 2277.21 -700.522" stroke="white" stroke-opacity="0.1" stroke-width="0.967" stroke-miterlimit="10"/>
<path d="M-1338.49 -28.6392C-1142.22 -118.549 -518.791 477.116 -240.107 425.764C38.5765 374.413 -59.7684 -424.141 255.75 -373.659C602.951 -318.113 820.095 543.357 1552.47 479.542C2021.05 439.006 2152.81 -501.678 2275.47 -715.712" stroke="white" stroke-opacity="0.1" stroke-width="0.9722" stroke-miterlimit="10"/>
<path d="M-1338.58 -37.3576C-1138.99 -128.795 -509.178 472.831 -229.865 429.03C49.477 385.228 -55.1866 -431.272 260.661 -384.624C608.821 -333.213 827.671 554.622 1562.8 489.609C2032.61 448.324 2157.87 -519.953 2273.71 -730.932" stroke="white" stroke-opacity="0.1" stroke-width="0.9773" stroke-miterlimit="10"/>
<path d="M-1338.67 -46.0759C-1135.75 -139.042 -499.595 468.577 -219.623 432.295C60.3479 396.014 -50.5745 -438.432 265.573 -395.589C614.691 -348.282 835.248 565.857 1573.1 499.705C2044.14 457.672 2162.93 -538.199 2271.94 -746.151" stroke="white" stroke-opacity="0.1" stroke-width="0.9825" stroke-miterlimit="10"/>
<path d="M-1338.76 -54.7942C-1132.52 -149.288 -490.012 464.323 -209.382 435.561C71.2484 406.799 -45.9329 -446.132 270.484 -406.555C620.62 -364.011 842.794 577.122 1583.41 509.772C2055.66 466.989 2167.96 -556.474 2270.14 -761.371" stroke="white" stroke-opacity="0.1" stroke-width="0.9876" stroke-miterlimit="10"/>
<path d="M-1338.85 -63.5127C-1129.28 -159.505 -480.429 460.038 -199.14 438.827C82.149 417.615 -41.381 -453.112 275.395 -417.49C626.46 -378.902 850.371 588.387 1593.74 519.838C2067.25 476.277 2173.06 -574.75 2268.41 -776.591" stroke="white" stroke-opacity="0.1" stroke-width="0.9928" stroke-miterlimit="10"/>
<path d="M-1338.94 -72.261C-1126.05 -169.781 -470.816 455.754 -188.898 442.062C93.0197 428.371 -36.829 -460.123 280.306 -428.485C632.239 -393.822 857.917 599.622 1604.01 529.905C2078.75 485.594 2178.06 -593.026 2266.58 -791.81" stroke="white" stroke-opacity="0.1" stroke-width="0.9979" stroke-miterlimit="10"/>
<path d="M-1339 -80.9793C-1122.79 -180.027 -461.203 451.5 -178.627 445.328C103.95 439.156 -32.2173 -467.104 285.277 -439.451C638.109 -408.712 865.524 610.887 1614.37 540.002C2090.34 494.942 2183.18 -611.301 2264.84 -807" stroke="white" stroke-opacity="0.1" stroke-width="1.0031" stroke-miterlimit="10"/>
<g filter="url(#filter0_d_1_11)">
<rect x="-435" y="-1" width="400" height="400" rx="6" fill="url(#paint0_linear_1_11)"/>
<rect x="-434.5" y="-0.5" width="399" height="399" rx="5.5" stroke="url(#paint1_linear_1_11)" stroke-opacity="0.2"/>
</g>
<g filter="url(#filter1_d_1_11)">
<rect y="-1" width="400" height="400" rx="6" fill="url(#paint2_linear_1_11)"/>
<rect x="0.5" y="-0.5" width="399" height="399" rx="5.5" stroke="url(#paint3_linear_1_11)" stroke-opacity="0.2"/>
</g>
<g clip-path="url(#clip1_1_11)">
<path d="M389.738 280.687L367.868 252.042C365.562 249.019 362.015 247.25 358.26 247.25H324.463C320.709 247.25 317.161 249.019 314.855 252.042L292.985 280.687C294.5 303.602 305.307 322.711 323.106 330.434V330.428C328.65 332.824 334.765 334.165 341.362 334.165C347.958 334.165 354.073 332.824 359.617 330.422V330.428C377.416 322.711 388.217 303.602 389.738 280.687ZM323.106 296.916C319.747 296.916 317.021 294.135 317.021 290.708C317.021 287.281 319.747 284.499 323.106 284.499C326.465 284.499 329.191 287.281 329.191 290.708C329.191 294.135 326.465 296.916 323.106 296.916ZM359.617 296.916C356.258 296.916 353.532 294.135 353.532 290.708C353.532 287.281 356.258 284.499 359.617 284.499C362.976 284.499 365.702 287.281 365.702 290.708C365.702 294.135 362.976 296.916 359.617 296.916ZM292.681 270.978V241.041C292.681 227.327 303.579 216.208 317.021 216.208H365.702C379.144 216.208 390.043 227.327 390.043 241.041V270.978L372.67 248.231C369.213 243.692 363.895 241.041 358.26 241.041H324.457C318.822 241.041 313.504 243.692 310.048 248.231L292.681 270.978ZM412.637 387.401L410.58 377.748C408.931 368.516 402.45 361.109 393.821 358.477L365.002 347.762L359.769 352.381C354.652 356.919 348.08 359.427 341.264 359.427C334.473 359.427 327.926 356.937 322.82 352.405L317.636 347.836L289.097 358.415C280.292 361.116 273.793 368.522 272.15 377.76L270.349 387.817C268.985 395.441 274.724 402.456 282.318 402.456H400.74C408.505 402.456 414.286 395.143 412.637 387.401ZM390.043 383.832C390.043 387.259 387.316 390.04 383.957 390.04H365.702C362.343 390.04 359.617 387.259 359.617 383.832V377.623C359.617 374.196 362.343 371.415 365.702 371.415H383.957C387.316 371.415 390.043 374.196 390.043 377.623V383.832ZM341.362 340.374C347.891 340.374 353.994 339.225 359.617 337.152V344.304L355.783 347.693C347.763 354.802 334.826 354.82 326.812 347.718L323.106 344.453V337.158C328.729 339.225 334.832 340.374 341.362 340.374ZM365.702 377.623H383.957V383.832H365.702V377.623Z" fill="url(#paint4_linear_1_11)"/>
</g>
<g filter="url(#filter2_d_1_11)">
<rect x="435" y="-1" width="400" height="400" rx="6" fill="url(#paint5_linear_1_11)"/>
<rect x="435.5" y="-0.5" width="399" height="399" rx="5.5" stroke="url(#paint6_linear_1_11)" stroke-opacity="0.2"/>
</g>
<g filter="url(#filter3_d_1_11)">
<rect x="435" y="-433" width="400" height="400" rx="6" fill="url(#paint7_linear_1_11)"/>
</g>
</g>
<defs>
<filter id="filter0_d_1_11" x="-515" y="-81" width="560" height="560" filterUnits="userSpaceOnUse" color-interpolation-filters="sRGB">
<feFlood flood-opacity="0" result="BackgroundImageFix"/>
<feColorMatrix in="SourceAlpha" type="matrix" values="0 0 0 0 0 0 0 0 0 0 0 0 0 0 0 0 0 0 127 0" result="hardAlpha"/>
<feOffset/>
<feGaussianBlur stdDeviation="40"/>
<feComposite in2="hardAlpha" operator="out"/>
<feColorMatrix type="matrix" values="0 0 0 0 0.172549 0 0 0 0 0.172549 0 0 0 0 0.176471 0 0 0 0.35 0"/>
<feBlend mode="normal" in2="BackgroundImageFix" result="effect1_dropShadow_1_11"/>
<feBlend mode="normal" in="SourceGraphic" in2="effect1_dropShadow_1_11" result="shape"/>
</filter>
<filter id="filter1_d_1_11" x="-80" y="-81" width="560" height="560" filterUnits="userSpaceOnUse" color-interpolation-filters="sRGB">
<feFlood flood-opacity="0" result="BackgroundImageFix"/>
<feColorMatrix in="SourceAlpha" type="matrix" values="0 0 0 0 0 0 0 0 0 0 0 0 0 0 0 0 0 0 127 0" result="hardAlpha"/>
<feOffset/>
<feGaussianBlur stdDeviation="40"/>
<feComposite in2="hardAlpha" operator="out"/>
<feColorMatrix type="matrix" values="0 0 0 0 0.172549 0 0 0 0 0.172549 0 0 0 0 0.176471 0 0 0 0.35 0"/>
<feBlend mode="normal" in2="BackgroundImageFix" result="effect1_dropShadow_1_11"/>
<feBlend mode="normal" in="SourceGraphic" in2="effect1_dropShadow_1_11" result="shape"/>
</filter>
<filter id="filter2_d_1_11" x="355" y="-81" width="560" height="560" filterUnits="userSpaceOnUse" color-interpolation-filters="sRGB">
<feFlood flood-opacity="0" result="BackgroundImageFix"/>
<feColorMatrix in="SourceAlpha" type="matrix" values="0 0 0 0 0 0 0 0 0 0 0 0 0 0 0 0 0 0 127 0" result="hardAlpha"/>
<feOffset/>
<feGaussianBlur stdDeviation="40"/>
<feComposite in2="hardAlpha" operator="out"/>
<feColorMatrix type="matrix" values="0 0 0 0 0.172549 0 0 0 0 0.172549 0 0 0 0 0.176471 0 0 0 0.35 0"/>
<feBlend mode="normal" in2="BackgroundImageFix" result="effect1_dropShadow_1_11"/>
<feBlend mode="normal" in="SourceGraphic" in2="effect1_dropShadow_1_11" result="shape"/>
</filter>
<filter id="filter3_d_1_11" x="285" y="-583" width="700" height="700" filterUnits="userSpaceOnUse" color-interpolation-filters="sRGB">
<feFlood flood-opacity="0" result="BackgroundImageFix"/>
<feColorMatrix in="SourceAlpha" type="matrix" values="0 0 0 0 0 0 0 0 0 0 0 0 0 0 0 0 0 0 127 0" result="hardAlpha"/>
<feOffset/>
<feGaussianBlur stdDeviation="75"/>
<feComposite in2="hardAlpha" operator="out"/>
<feColorMatrix type="matrix" values="0 0 0 0 0.231373 0 0 0 0 0.372549 0 0 0 0 0.588235 0 0 0 0.35 0"/>
<feBlend mode="normal" in2="BackgroundImageFix" result="effect1_dropShadow_1_11"/>
<feBlend mode="normal" in="SourceGraphic" in2="effect1_dropShadow_1_11" result="shape"/>
</filter>
<linearGradient id="paint0_linear_1_11" x1="-390.636" y1="35.6973" x2="-83.3902" y2="396.234" gradientUnits="userSpaceOnUse">
<stop stop-color="#303134"/>
<stop offset="0.519792" stop-color="#282828"/>
<stop offset="0.927909" stop-color="#282828"/>
</linearGradient>
<linearGradient id="paint1_linear_1_11" x1="-430" y1="5.99999" x2="-35" y2="399" gradientUnits="userSpaceOnUse">
<stop stop-color="white"/>
<stop offset="1" stop-color="white" stop-opacity="0"/>
</linearGradient>
<linearGradient id="paint2_linear_1_11" x1="44.3636" y1="35.6973" x2="351.61" y2="396.234" gradientUnits="userSpaceOnUse">
<stop stop-color="#303134"/>
<stop offset="0.519792" stop-color="#282828"/>
<stop offset="0.927909" stop-color="#282828"/>
</linearGradient>
<linearGradient id="paint3_linear_1_11" x1="5.05656e-06" y1="4.99999" x2="400" y2="399" gradientUnits="userSpaceOnUse">
<stop stop-color="white"/>
<stop offset="1" stop-color="white" stop-opacity="0"/>
</linearGradient>
<linearGradient id="paint4_linear_1_11" x1="233" y1="239" x2="378" y2="402" gradientUnits="userSpaceOnUse">
<stop stop-color="#414141"/>
<stop offset="1" stop-color="#262626"/>
</linearGradient>
<linearGradient id="paint5_linear_1_11" x1="479.364" y1="35.6973" x2="786.61" y2="396.234" gradientUnits="userSpaceOnUse">
<stop stop-color="#303134"/>
<stop offset="0.519792" stop-color="#282828"/>
<stop offset="0.927909" stop-color="#282828"/>
</linearGradient>
<linearGradient id="paint6_linear_1_11" x1="443" y1="6.00001" x2="817" y2="405" gradientUnits="userSpaceOnUse">
<stop stop-color="white"/>
<stop offset="1" stop-color="white" stop-opacity="0"/>
</linearGradient>
<linearGradient id="paint7_linear_1_11" x1="479.364" y1="-396.303" x2="786.61" y2="-35.7663" gradientUnits="userSpaceOnUse">
<stop stop-color="#527791"/>
<stop offset="0.519792" stop-color="#325597"/>
<stop offset="0.927909" stop-color="#193895"/>
</linearGradient>
<clipPath id="clip0_1_11">
<rect width="1920" height="4905" fill="white" transform="translate(-760 -1577)"/>
</clipPath>
<clipPath id="clip1_1_11">
<rect width="156" height="189" fill="white" transform="translate(244 210)"/>
</clipPath>
</defs>
</svg>
