<svg width="35" height="41" viewBox="0 0 35 41" fill="none" xmlns="http://www.w3.org/2000/svg">
<g filter="url(#filter0_d_1_767)">
<mask id="path-1-outside-1_1_767" maskUnits="userSpaceOnUse" x="3" y="2" width="29" height="35" fill="black">
<rect fill="white" x="3" y="2" width="29" height="35"/>
<path fill-rule="evenodd" clip-rule="evenodd" d="M11.4753 22.4118L9.74732 19.7821C8.56745 17.9866 6.05426 17.3315 4.13189 18.3158L4.57982 18.0865C4.10275 18.3307 3.87399 18.9397 4.07041 19.4459L6.4623 25.6097C6.84148 26.5868 7.80991 27.9688 8.6124 28.663C8.6124 28.663 13.4242 32.6298 13.4242 34.1171V36H21.22L23.169 32.1176L25.1179 36H27.0669V34.1171C27.0669 32.6298 30.0075 27.9454 30.0075 27.9454C30.5488 27.0349 31 25.4307 31 24.3657V16.5335C30.9647 14.7994 29.4848 13.3941 27.6588 13.3941C26.7452 13.3941 26.0053 14.0968 26.0053 14.9643V15.5916C26.0053 13.8575 24.5254 12.4522 22.6993 12.4522C21.7858 12.4522 21.0458 13.1549 21.0458 14.0224V14.6497C21.0458 12.9156 19.5659 11.5103 17.7399 11.5103C16.8263 11.5103 16.0864 12.2129 16.0864 13.0804V13.7078C16.0864 13.4291 16.0565 13.2075 15.9987 13.032L15.4944 4.94353C15.4262 3.84977 14.5006 3 13.4242 3C12.3403 3 11.4753 3.86893 11.4753 4.9408V12.7059V22.4118ZM25.1532 20.4706H27.1021V28.2353H25.1532V20.4706ZM21.2553 20.4706H23.2042V28.2353H21.2553V20.4706ZM17.3574 20.4706H19.3063V28.2353H17.3574V20.4706Z"/>
</mask>
<path fill-rule="evenodd" clip-rule="evenodd" d="M11.4753 22.4118L9.74732 19.7821C8.56745 17.9866 6.05426 17.3315 4.13189 18.3158L4.57982 18.0865C4.10275 18.3307 3.87399 18.9397 4.07041 19.4459L6.4623 25.6097C6.84148 26.5868 7.80991 27.9688 8.6124 28.663C8.6124 28.663 13.4242 32.6298 13.4242 34.1171V36H21.22L23.169 32.1176L25.1179 36H27.0669V34.1171C27.0669 32.6298 30.0075 27.9454 30.0075 27.9454C30.5488 27.0349 31 25.4307 31 24.3657V16.5335C30.9647 14.7994 29.4848 13.3941 27.6588 13.3941C26.7452 13.3941 26.0053 14.0968 26.0053 14.9643V15.5916C26.0053 13.8575 24.5254 12.4522 22.6993 12.4522C21.7858 12.4522 21.0458 13.1549 21.0458 14.0224V14.6497C21.0458 12.9156 19.5659 11.5103 17.7399 11.5103C16.8263 11.5103 16.0864 12.2129 16.0864 13.0804V13.7078C16.0864 13.4291 16.0565 13.2075 15.9987 13.032L15.4944 4.94353C15.4262 3.84977 14.5006 3 13.4242 3C12.3403 3 11.4753 3.86893 11.4753 4.9408V12.7059V22.4118ZM25.1532 20.4706H27.1021V28.2353H25.1532V20.4706ZM21.2553 20.4706H23.2042V28.2353H21.2553V20.4706ZM17.3574 20.4706H19.3063V28.2353H17.3574V20.4706Z" fill="white"/>
<path d="M11.4753 22.4118L10.6396 22.9609L12.4753 25.7546V22.4118H11.4753ZM9.74732 19.7821L10.583 19.233L9.74732 19.7821ZM4.07041 19.4459L3.13815 19.8077H3.13815L4.07041 19.4459ZM6.4623 25.6097L7.39457 25.2479H7.39457L6.4623 25.6097ZM8.6124 28.663L7.95816 29.4193L7.96713 29.427L7.97629 29.4346L8.6124 28.663ZM13.4242 36H12.4242V37H13.4242V36ZM21.22 36V37H21.8369L22.1137 36.4486L21.22 36ZM23.169 32.1176L24.0627 31.669L23.169 29.8887L22.2752 31.669L23.169 32.1176ZM25.1179 36L24.2242 36.4486L24.501 37H25.1179V36ZM27.0669 36V37H28.0669V36H27.0669ZM30.0075 27.9454L30.8544 28.4771L30.8609 28.4668L30.8671 28.4564L30.0075 27.9454ZM31 16.5335H32V16.5233L31.9998 16.5132L31 16.5335ZM15.9987 13.032L15.0006 13.0942L15.0086 13.2225L15.0488 13.3446L15.9987 13.032ZM15.4944 4.94353L14.4963 5.00577L15.4944 4.94353ZM11.4753 4.9408H10.4753H11.4753ZM27.1021 20.4706H28.1021V19.4706H27.1021V20.4706ZM27.1021 28.2353V29.2353H28.1021V28.2353H27.1021ZM25.1532 28.2353H24.1532V29.2353H25.1532V28.2353ZM23.2042 20.4706H24.2042V19.4706H23.2042V20.4706ZM23.2042 28.2353V29.2353H24.2042V28.2353H23.2042ZM21.2553 28.2353H20.2553V29.2353H21.2553V28.2353ZM19.3063 20.4706H20.3063V19.4706H19.3063V20.4706ZM19.3063 28.2353V29.2353H20.3063V28.2353H19.3063ZM17.3574 28.2353H16.3574V29.2353H17.3574V28.2353ZM12.311 21.8626L10.583 19.233L8.9116 20.3313L10.6396 22.9609L12.311 21.8626ZM10.583 19.233C9.12005 17.0065 6.0484 16.211 3.67612 17.4257L4.58767 19.2059C6.06012 18.4519 8.01486 18.9666 8.9116 20.3313L10.583 19.233ZM4.58767 19.2059L5.03559 18.9766L4.12405 17.1964L3.67612 17.4257L4.58767 19.2059ZM4.12405 17.1964C3.18299 17.6782 2.75954 18.8321 3.13815 19.8077L5.00268 19.0842C5.00113 19.0802 4.99502 19.0561 5.00889 19.0191C5.02282 18.9819 5.04089 18.9738 5.03559 18.9765L4.12405 17.1964ZM3.13815 19.8077L5.53003 25.9715L7.39457 25.2479L5.00268 19.0842L3.13815 19.8077ZM5.53003 25.9715C5.96776 27.0994 7.03107 28.6173 7.95816 29.4193L9.26664 27.9067C8.58876 27.3203 7.71521 26.0742 7.39457 25.2479L5.53003 25.9715ZM8.6124 28.663C7.97629 29.4346 7.97624 29.4345 7.97621 29.4345C7.97622 29.4345 7.97621 29.4345 7.97623 29.4345C7.97629 29.4346 7.97641 29.4347 7.97661 29.4348C7.97701 29.4352 7.97769 29.4357 7.97866 29.4365C7.98059 29.4381 7.98365 29.4407 7.98781 29.4441C7.99614 29.451 8.00884 29.4616 8.02563 29.4756C8.05922 29.5036 8.10915 29.5455 8.17307 29.5996C8.30096 29.7078 8.48461 29.8649 8.70535 30.0583C9.14787 30.4459 9.73471 30.9751 10.3188 31.5469C10.9073 32.123 11.4719 32.7219 11.8825 33.2507C12.0883 33.5158 12.2379 33.7411 12.3319 33.9203C12.4364 34.1195 12.4242 34.172 12.4242 34.1171H14.4242C14.4242 33.6904 14.2616 33.2936 14.103 32.9912C13.9339 32.6688 13.7076 32.3402 13.4623 32.0242C12.9706 31.3909 12.3323 30.7192 11.7179 30.1177C11.099 29.5119 10.4828 28.9565 10.0231 28.5538C9.79278 28.352 9.6005 28.1875 9.46524 28.0731C9.39759 28.0158 9.34414 27.971 9.30724 27.9402C9.28879 27.9248 9.27448 27.9129 9.26459 27.9047C9.25965 27.9006 9.25581 27.8974 9.25312 27.8952C9.25177 27.8941 9.25071 27.8932 9.24994 27.8925C9.24956 27.8922 9.24924 27.892 9.24901 27.8918C9.24889 27.8917 9.24876 27.8916 9.2487 27.8915C9.2486 27.8914 9.24851 27.8914 8.6124 28.663ZM12.4242 34.1171V36H14.4242V34.1171H12.4242ZM13.4242 37H21.22V35H13.4242V37ZM22.1137 36.4486L24.0627 32.5663L22.2752 31.669L20.3263 35.5514L22.1137 36.4486ZM22.2752 32.5663L24.2242 36.4486L26.0116 35.5514L24.0627 31.669L22.2752 32.5663ZM25.1179 37H27.0669V35H25.1179V37ZM28.0669 36V34.1171H26.0669V36H28.0669ZM28.0669 34.1171C28.0669 33.9735 28.1666 33.575 28.4466 32.9167C28.7047 32.3097 29.0557 31.6158 29.4164 30.9499C29.7755 30.2871 30.1358 29.6675 30.407 29.2127C30.5423 28.9857 30.6549 28.8006 30.7334 28.6728C30.7726 28.6089 30.8033 28.5593 30.8239 28.5261C30.8343 28.5094 30.8421 28.4969 30.8472 28.4886C30.8498 28.4845 30.8517 28.4815 30.8529 28.4795C30.8535 28.4786 30.854 28.4779 30.8542 28.4775C30.8543 28.4773 30.8544 28.4771 30.8545 28.4771C30.8545 28.477 30.8545 28.4771 30.8545 28.477C30.8545 28.4771 30.8544 28.4771 30.0075 27.9454C29.1606 27.4138 29.1605 27.4138 29.1604 27.4139C29.1604 27.414 29.1603 27.4141 29.1603 27.4142C29.1601 27.4144 29.1599 27.4147 29.1597 27.4151C29.1593 27.4158 29.1586 27.4168 29.1578 27.4181C29.1562 27.4207 29.1539 27.4244 29.1509 27.4292C29.1449 27.4388 29.1362 27.4527 29.125 27.4707C29.1026 27.5068 29.0701 27.5594 29.0289 27.6265C28.9465 27.7606 28.8294 27.9531 28.6891 28.1885C28.4089 28.6585 28.034 29.303 27.6579 29.9972C27.2835 30.6883 26.8994 31.4443 26.6061 32.134C26.3347 32.7723 26.0669 33.5171 26.0669 34.1171H28.0669ZM30.8671 28.4564C31.197 27.9015 31.4746 27.1835 31.6701 26.4818C31.8653 25.7807 32 25.0187 32 24.3657H30C30 24.7778 29.9091 25.3504 29.7434 25.9452C29.5779 26.5394 29.3594 27.0788 29.1479 27.4344L30.8671 28.4564ZM32 24.3657V16.5335H30V24.3657H32ZM31.9998 16.5132C31.9527 14.1991 29.9928 12.3941 27.6588 12.3941V14.3941C28.9769 14.3941 29.9767 15.3997 30.0002 16.5538L31.9998 16.5132ZM27.6588 12.3941C26.2423 12.3941 25.0053 13.4964 25.0053 14.9643H27.0053C27.0053 14.6971 27.2482 14.3941 27.6588 14.3941V12.3941ZM25.0053 14.9643V15.5916H27.0053V14.9643H25.0053ZM27.0053 15.5916C27.0053 13.2572 25.0283 11.4522 22.6993 11.4522V13.4522C24.0225 13.4522 25.0053 14.4579 25.0053 15.5916H27.0053ZM22.6993 11.4522C21.2829 11.4522 20.0458 12.5545 20.0458 14.0224H22.0458C22.0458 13.7552 22.2887 13.4522 22.6993 13.4522V11.4522ZM20.0458 14.0224V14.6497H22.0458V14.0224H20.0458ZM22.0458 14.6497C22.0458 12.3152 20.0689 10.5103 17.7399 10.5103V12.5103C19.063 12.5103 20.0458 13.516 20.0458 14.6497H22.0458ZM17.7399 10.5103C16.3234 10.5103 15.0864 11.6126 15.0864 13.0804H17.0864C17.0864 12.8133 17.3293 12.5103 17.7399 12.5103V10.5103ZM15.0864 13.0804V13.7078H17.0864V13.0804H15.0864ZM17.0864 13.7078C17.0864 13.365 17.0506 13.0293 16.9486 12.7194L15.0488 13.3446C15.0624 13.3858 15.0864 13.4931 15.0864 13.7078H17.0864ZM16.9968 12.9697L16.4924 4.8813L14.4963 5.00577L15.0006 13.0942L16.9968 12.9697ZM16.4924 4.8813C16.3909 3.2535 15.0217 2 13.4242 2V4C13.9795 4 14.4614 4.44604 14.4963 5.00577L16.4924 4.8813ZM13.4242 2C11.7895 2 10.4753 3.31521 10.4753 4.9408H12.4753C12.4753 4.42265 12.8912 4 13.4242 4V2ZM10.4753 4.9408V12.7059H12.4753V4.9408H10.4753ZM10.4753 12.7059V22.4118H12.4753V12.7059H10.4753ZM25.1532 21.4706H27.1021V19.4706H25.1532V21.4706ZM26.1021 20.4706V28.2353H28.1021V20.4706H26.1021ZM27.1021 27.2353H25.1532V29.2353H27.1021V27.2353ZM26.1532 28.2353V20.4706H24.1532V28.2353H26.1532ZM21.2553 21.4706H23.2042V19.4706H21.2553V21.4706ZM22.2042 20.4706V28.2353H24.2042V20.4706H22.2042ZM23.2042 27.2353H21.2553V29.2353H23.2042V27.2353ZM22.2553 28.2353V20.4706H20.2553V28.2353H22.2553ZM17.3574 21.4706H19.3063V19.4706H17.3574V21.4706ZM18.3063 20.4706V28.2353H20.3063V20.4706H18.3063ZM19.3063 27.2353H17.3574V29.2353H19.3063V27.2353ZM18.3574 28.2353V20.4706H16.3574V28.2353H18.3574Z" fill="black" fill-opacity="0.8" mask="url(#path-1-outside-1_1_767)"/>
</g>
<defs>
<filter id="filter0_d_1_767" x="0.000110626" y="0" width="34.9999" height="41" filterUnits="userSpaceOnUse" color-interpolation-filters="sRGB">
<feFlood flood-opacity="0" result="BackgroundImageFix"/>
<feColorMatrix in="SourceAlpha" type="matrix" values="0 0 0 0 0 0 0 0 0 0 0 0 0 0 0 0 0 0 127 0" result="hardAlpha"/>
<feOffset dy="1"/>
<feGaussianBlur stdDeviation="1.5"/>
<feColorMatrix type="matrix" values="0 0 0 0 0 0 0 0 0 0 0 0 0 0 0 0 0 0 0.2 0"/>
<feBlend mode="normal" in2="BackgroundImageFix" result="effect1_dropShadow_1_767"/>
<feBlend mode="normal" in="SourceGraphic" in2="effect1_dropShadow_1_767" result="shape"/>
</filter>
</defs>
</svg>
