<svg width="1920" height="764" viewBox="0 0 1920 764" fill="none" xmlns="http://www.w3.org/2000/svg">
<g clip-path="url(#clip0_1_11)">
<rect width="1920" height="4905" transform="translate(0 -2124)" fill="#161617"/>
<path d="M133.875 156.25C136.642 156.25 138.642 156.967 139.875 158.4C141.125 159.817 141.75 162.1 141.75 165.25C141.75 168.4 141.125 170.692 139.875 172.125C138.642 173.542 136.642 174.25 133.875 174.25C131.125 174.25 129.125 173.542 127.875 172.125C126.625 170.692 126 168.4 126 165.25C126 162.1 126.625 159.817 127.875 158.4C129.125 156.967 131.125 156.25 133.875 156.25ZM129.75 165.25C129.75 167.15 130.083 168.542 130.75 169.425C131.417 170.308 132.458 170.75 133.875 170.75C135.342 170.75 136.392 170.317 137.025 169.45C137.675 168.583 138 167.183 138 165.25C138 163.3 137.675 161.9 137.025 161.05C136.392 160.183 135.342 159.75 133.875 159.75C132.458 159.75 131.417 160.192 130.75 161.075C130.083 161.942 129.75 163.333 129.75 165.25ZM143.249 168.675H146.999C146.999 169.392 147.266 169.917 147.799 170.25C148.332 170.583 149.174 170.75 150.324 170.75C152.524 170.75 153.624 170.067 153.624 168.7C153.624 167.983 153.332 167.475 152.749 167.175C152.166 166.858 151.216 166.7 149.899 166.7H149.124V163.45H150.049C151.249 163.45 152.107 163.308 152.624 163.025C153.157 162.725 153.424 162.242 153.424 161.575C153.424 160.925 153.182 160.458 152.699 160.175C152.232 159.892 151.474 159.75 150.424 159.75C149.357 159.75 148.582 159.9 148.099 160.2C147.616 160.5 147.374 160.975 147.374 161.625H143.624C143.624 159.742 144.157 158.375 145.224 157.525C146.307 156.675 148.041 156.25 150.424 156.25C152.791 156.25 154.507 156.633 155.574 157.4C156.641 158.167 157.174 159.408 157.174 161.125C157.174 162.975 156.499 164.292 155.149 165.075C156.632 165.858 157.374 167.225 157.374 169.175C157.374 170.942 156.816 172.233 155.699 173.05C154.582 173.85 152.791 174.25 150.324 174.25C147.857 174.25 146.057 173.808 144.924 172.925C143.807 172.042 143.249 170.625 143.249 168.675Z" fill="url(#paint0_linear_1_11)"/>
<path d="M-343.886 625.269C90.915 915.032 469.462 346.715 783.557 326.026C1236.22 296.224 1356.62 831.647 1577.63 591.141C1798.63 350.634 2006.6 140.805 2219.21 523.824C2431.82 906.843 2618.53 702.898 2618.53 702.898" stroke="white" stroke-opacity="0.1" stroke-width="0.6482" stroke-miterlimit="10"/>
<path d="M2618.11 693.072C2614.28 691.572 2420.83 902.621 2207.95 528.092C1995.06 153.564 1793.1 343.051 1571.47 579.111C1349.21 815.266 1228.43 309.301 772.643 337.942C457.086 357.877 84.1127 894.861 -342.862 608.085" stroke="white" stroke-opacity="0.1" stroke-width="0.6553" stroke-miterlimit="10"/>
<path d="M2617.65 683.295C2609.99 680.294 2409.77 898.439 2196.63 532.409C1983.5 166.38 1787.55 335.525 1565.26 567.131C1341.75 798.933 1220.62 322.407 761.683 349.907C444.701 369.068 77.2906 874.652 -341.81 590.909" stroke="white" stroke-opacity="0.1" stroke-width="0.6623" stroke-miterlimit="10"/>
<path d="M2617.23 673.498C2605.73 668.997 2398.77 894.245 2185.36 536.706C1971.94 179.168 1782.01 327.97 1559.05 555.15C1334.26 782.592 1212.82 335.541 750.723 361.872C432.325 380.231 70.4882 854.481 -340.777 573.696" stroke="white" stroke-opacity="0.1" stroke-width="0.6694" stroke-miterlimit="10"/>
<path d="M2616.78 663.692C2601.48 657.699 2387.72 890.035 2174.06 540.995C1960.39 191.955 1776.97 320.941 1552.85 543.141C1327.31 766.728 1205.05 348.627 739.763 373.837C419.941 391.422 63.6574 834.302 -339.725 556.521" stroke="white" stroke-opacity="0.1" stroke-width="0.6764" stroke-miterlimit="10"/>
<path d="M2616.32 653.915C2597.19 646.393 2376.69 885.861 2162.74 545.312C1948.84 204.743 1771.52 313.507 1546.64 531.161C1319.97 750.525 1197.24 361.761 728.811 385.773C407.565 402.584 56.8638 814.102 -338.672 539.345" stroke="white" stroke-opacity="0.1" stroke-width="0.6835" stroke-miterlimit="10"/>
<path d="M2615.9 644.118C2592.94 635.095 2365.66 881.659 2151.47 549.609C1937.29 217.53 1766.09 306.082 1540.44 519.152C1312.61 734.285 1189.45 374.838 717.859 397.71C395.181 413.775 50.0329 793.922 -337.64 522.132" stroke="white" stroke-opacity="0.1" stroke-width="0.6905" stroke-miterlimit="10"/>
<path d="M2615.44 634.312C2588.65 623.789 2354.64 877.457 2140.18 553.869C1925.72 230.281 1760.64 298.647 1534.25 507.142C1305.25 718.044 1181.65 387.944 706.908 409.646C382.796 424.966 43.2395 773.723 -336.588 504.957" stroke="white" stroke-opacity="0.1" stroke-width="0.6976" stroke-miterlimit="10"/>
<path d="M2614.99 624.506C2584.37 612.482 2343.58 873.246 2128.87 558.157C1914.15 243.097 1755.16 291.205 1528.04 495.162C1297.88 701.832 1173.85 401.05 695.948 421.611C370.391 436.12 36.4085 753.543 -335.564 487.772" stroke="white" stroke-opacity="0.1" stroke-width="0.7046" stroke-miterlimit="10"/>
<path d="M2614.56 614.737C2580.1 601.213 2332.58 869.081 2117.59 562.483C1902.6 255.885 1749.7 283.799 1521.84 483.153C1290.51 685.592 1166.06 414.127 684.996 433.547C358.007 447.311 29.6148 733.343 -334.503 470.568" stroke="white" stroke-opacity="0.1" stroke-width="0.7117" stroke-miterlimit="10"/>
<path d="M2614.11 604.931C2575.82 589.907 2321.52 864.87 2106.29 566.771C1891.05 268.672 1744.22 276.357 1515.64 471.143C1283.12 669.342 1158.25 427.232 674.065 445.521C345.66 458.482 22.8126 713.172 -333.45 453.392" stroke="white" stroke-opacity="0.1" stroke-width="0.7187" stroke-miterlimit="10"/>
<path d="M2613.66 595.126C2571.56 578.609 2310.5 860.668 2094.98 571.06C1879.5 281.46 1738.74 268.914 1509.43 459.163C1275.73 653.093 1150.48 440.347 663.113 457.457C333.247 469.664 15.9818 692.992 -332.426 436.208" stroke="white" stroke-opacity="0.1" stroke-width="0.7257" stroke-miterlimit="10"/>
<path d="M2613.24 585.328C2567.31 567.312 2299.47 856.466 2083.71 575.357C1867.94 294.247 1733.23 261.462 1503.23 447.154C1268.31 636.835 1142.65 453.444 652.133 469.384C320.871 480.826 9.18823 672.793 -331.365 419.004" stroke="white" stroke-opacity="0.1" stroke-width="0.7328" stroke-miterlimit="10"/>
<path d="M2612.78 575.551C2563.03 556.005 2288.44 852.292 2072.4 579.674C1856.35 307.055 1727.72 254.011 1497.03 435.173C1260.91 620.615 1134.85 466.549 641.173 481.349C308.486 492.017 2.35734 652.613 -330.342 401.82" stroke="white" stroke-opacity="0.1" stroke-width="0.7398" stroke-miterlimit="10"/>
<path d="M2612.35 565.754C2558.77 544.708 2277.41 848.09 2061.12 583.971C1844.81 319.814 1722.21 246.56 1490.86 423.173C1253.53 604.337 1127.11 479.672 630.25 493.294C296.11 503.18 -4.43626 632.413 -329.289 384.644" stroke="white" stroke-opacity="0.1" stroke-width="0.7469" stroke-miterlimit="10"/>
<path d="M2611.9 555.948C2554.49 533.402 2266.38 843.917 2049.82 588.259C1833.26 332.602 1716.71 239.08 1484.66 411.164C1246.08 588.071 1119.28 492.769 619.29 505.259C283.726 514.37 -11.2671 612.234 -328.228 367.44" stroke="white" stroke-opacity="0.1" stroke-width="0.7539" stroke-miterlimit="10"/>
<path d="M2611.44 546.171C2550.19 522.124 2255.32 839.734 2038.52 592.547C1821.71 345.361 1711.17 231.62 1478.45 399.183C1238.66 571.813 1111.51 505.884 608.367 517.204C271.35 525.533 -18.032 592.043 -327.175 350.264" stroke="white" stroke-opacity="0.1" stroke-width="0.761" stroke-miterlimit="10"/>
<path d="M2611.02 536.374C2545.94 510.826 2244.29 835.532 2027.24 596.845C1810.15 358.177 1705.67 224.14 1472.25 387.174C1231.21 555.546 1103.71 518.961 597.415 529.14C258.937 536.715 -24.8916 571.854 -326.152 333.08" stroke="white" stroke-opacity="0.1" stroke-width="0.768" stroke-miterlimit="10"/>
<path d="M2610.57 526.568C2541.65 499.52 2233.27 831.33 2015.94 601.133C1798.6 370.965 1700.1 216.671 1466.05 375.165C1223.77 539.251 1095.91 532.066 586.464 541.076C246.589 547.886 -31.6851 551.655 -325.091 315.876" stroke="white" stroke-opacity="0.1" stroke-width="0.7751" stroke-miterlimit="10"/>
<path d="M2610.12 516.762C2537.4 488.222 2222.21 827.119 2004.63 605.421C1787.03 383.715 1694.54 209.174 1459.85 363.156C1216.31 522.947 1088.12 545.144 575.512 553.013C234.185 559.04 -38.4788 531.455 -324.058 298.663" stroke="white" stroke-opacity="0.1" stroke-width="0.7821" stroke-miterlimit="10"/>
<path d="M2609.68 506.993C2533.13 476.953 2211.21 822.954 1993.35 609.747C1775.47 396.531 1688.99 201.676 1453.64 351.175C1208.83 506.672 1080.31 558.278 564.544 565.006C221.792 570.259 -45.3183 511.304 -323.014 281.516" stroke="white" stroke-opacity="0.1" stroke-width="0.7892" stroke-miterlimit="10"/>
<path d="M2609.23 497.187C2528.86 465.618 2200.15 818.743 1982.05 614.035C1763.91 409.319 1683.43 194.179 1447.44 339.195C1201.36 490.368 1072.51 571.384 553.592 576.942C209.416 581.422 -52.1406 491.096 -321.991 264.331" stroke="white" stroke-opacity="0.1" stroke-width="0.7962" stroke-miterlimit="10"/>
<path d="M2608.78 487.382C2524.6 454.349 2189.13 814.541 1970.74 618.324C1752.36 422.107 1677.87 186.682 1441.24 327.185C1193.89 474.065 1064.72 584.461 542.64 588.879C197.04 592.584 -58.9428 470.925 -320.929 247.127" stroke="white" stroke-opacity="0.1" stroke-width="0.8033" stroke-miterlimit="10"/>
<path d="M2608.35 477.613C2520.31 443.043 2178.09 810.368 1959.43 622.641C1740.78 434.886 1672.29 179.147 1435.04 315.176C1186.4 457.724 1056.92 597.566 531.689 600.815C184.636 603.738 -65.7649 450.716 -319.897 229.914" stroke="white" stroke-opacity="0.1" stroke-width="0.8103" stroke-miterlimit="10"/>
<path d="M2607.9 467.807C2516.03 431.737 2167.07 806.165 1948.13 626.929C1729.23 447.673 1666.7 171.641 1428.83 303.196C1178.91 441.411 1049.14 610.681 520.729 612.78C172.242 614.957 -72.5673 430.545 -318.845 212.739" stroke="white" stroke-opacity="0.1" stroke-width="0.8173" stroke-miterlimit="10"/>
<path d="M2607.48 458.01C2511.77 420.439 2156.04 801.963 1936.86 631.198C1717.68 460.461 1661.13 164.106 1422.63 291.187C1171.42 425.07 1041.34 623.786 509.777 624.716C159.866 626.12 -79.3694 410.375 -317.792 195.563" stroke="white" stroke-opacity="0.1" stroke-width="0.8244" stroke-miterlimit="10"/>
<path d="M2607.03 448.204C2507.49 409.133 2145.02 797.761 1925.55 635.515C1706.12 473.248 1655.53 156.534 1416.42 279.206C1163.92 408.757 1033.54 636.892 498.817 636.681C147.482 637.311 -86.2003 390.195 -316.768 178.379" stroke="white" stroke-opacity="0.1" stroke-width="0.8314" stroke-miterlimit="10"/>
<path d="M2606.57 438.427C2503.22 397.864 2133.96 793.579 1914.25 639.803C1694.57 486.036 1649.92 148.991 1410.23 267.197C1156.41 392.379 1025.74 649.998 487.866 648.617C135.077 648.464 -93.0226 369.986 -315.736 161.166" stroke="white" stroke-opacity="0.1" stroke-width="0.8385" stroke-miterlimit="10"/>
<path d="M2606.14 428.63C2498.98 386.537 2122.93 789.377 1902.97 644.1C1683.02 498.824 1644.32 141.419 1404.05 255.196C1148.93 376.009 1017.98 663.083 476.943 660.562C122.722 659.664 -99.8247 349.815 -314.655 143.999" stroke="white" stroke-opacity="0.1" stroke-width="0.8455" stroke-miterlimit="10"/>
<path d="M2605.69 418.824C2494.68 375.26 2111.9 785.174 1891.67 648.389C1671.44 511.603 1638.73 133.847 1397.85 243.216C1141.42 359.631 1010.17 676.218 465.983 672.527C110.346 670.826 -106.618 329.616 -313.631 126.815" stroke="white" stroke-opacity="0.1" stroke-width="0.8526" stroke-miterlimit="10"/>
<path d="M2605.24 409.018C2490.41 363.925 2100.88 780.972 1880.37 652.677C1659.89 524.39 1633.11 126.238 1391.62 231.198C1133.86 343.235 1002.35 689.286 455.002 684.454C97.961 682.017 -113.449 309.436 -312.578 109.639" stroke="white" stroke-opacity="0.1" stroke-width="0.8596" stroke-miterlimit="10"/>
<path d="M2604.81 399.249C2486.15 352.656 2089.85 776.799 1869.09 656.974C1648.33 537.178 1627.52 118.637 1385.45 219.198C1126.36 326.828 994.574 702.401 444.071 696.428C85.5852 693.18 -120.243 289.236 -311.546 92.4259" stroke="white" stroke-opacity="0.1" stroke-width="0.8667" stroke-miterlimit="10"/>
<path d="M2604.36 389.444C2481.86 341.35 2078.79 772.588 1857.78 661.291C1636.78 549.966 1621.89 111.056 1379.24 207.217C1118.83 310.412 986.773 715.506 433.119 708.364C73.172 704.362 -127.074 269.057 -310.494 75.2503" stroke="white" stroke-opacity="0.1" stroke-width="0.8737" stroke-miterlimit="10"/>
<path d="M2603.91 379.638C2477.61 330.052 2067.77 768.386 1846.48 665.579C1625.23 562.753 1616.28 103.418 1373.04 195.208C1111.3 293.996 978.972 728.612 422.159 720.329C60.7875 715.553 -133.867 248.857 -309.441 58.0747" stroke="white" stroke-opacity="0.1" stroke-width="0.8808" stroke-miterlimit="10"/>
<path d="M2603.47 369.869C2473.34 318.783 2056.73 764.212 1835.2 669.876C1613.65 575.532 1610.67 95.7802 1366.83 183.227C1103.78 277.552 971.171 741.718 411.208 732.265C48.4115 726.715 -140.698 228.677 -308.409 40.8618" stroke="white" stroke-opacity="0.1" stroke-width="0.8878" stroke-miterlimit="10"/>
<path d="M2603.02 360.063C2469.06 307.477 2045.71 760.01 1823.9 674.165C1602.09 588.32 1605.03 88.1336 1360.64 171.218C1096.24 261.07 963.407 754.803 400.285 744.21C36.0269 737.906 -147.5 208.506 -307.356 23.6862" stroke="white" stroke-opacity="0.1" stroke-width="0.8949" stroke-miterlimit="10"/>
<path d="M2602.57 350.257C2464.77 296.17 2034.65 755.799 1812.6 678.453C1590.54 601.107 1599.42 80.4956 1354.44 159.209C1088.73 244.597 955.606 767.909 389.333 756.146C23.6512 749.069 -154.323 188.298 -306.332 6.50187" stroke="white" stroke-opacity="0.1" stroke-width="0.9019" stroke-miterlimit="10"/>
<path d="M2602.15 340.46C2460.52 284.873 2023.66 751.606 1801.32 682.75C1578.99 613.895 1593.8 72.7915 1348.24 147.2C1081.19 228.115 947.814 780.986 378.382 768.083C11.2666 760.26 -161.125 168.127 -305.271 -10.7024" stroke="white" stroke-opacity="0.1" stroke-width="0.9089" stroke-miterlimit="10"/>
<path d="M2601.69 330.683C2456.23 273.566 2012.59 747.423 1790.01 687.067C1567.43 626.711 1588.19 65.1535 1342.03 135.22C1073.65 211.633 940.004 794.12 367.422 780.048C-1.10916 771.422 -167.918 147.927 -304.219 -27.878" stroke="white" stroke-opacity="0.1" stroke-width="0.916" stroke-miterlimit="10"/>
<path d="M2601.27 320.886C2451.98 262.269 2001.57 743.221 1778.71 691.356C1555.85 639.49 1582.57 57.4494 1335.82 123.239C1066.11 195.151 932.203 807.226 356.461 792.013C-13.4938 782.613 -174.749 127.748 -303.195 -45.0622" stroke="white" stroke-opacity="0.1" stroke-width="0.923" stroke-miterlimit="10"/>
<path d="M2600.82 311.08C2447.72 250.971 1990.54 739.019 1767.43 695.653C1544.32 652.287 1576.98 49.754 1329.65 111.238C1058.62 178.621 924.431 820.34 345.539 803.957C-25.8983 793.766 -181.551 107.577 -302.134 -62.2665" stroke="white" stroke-opacity="0.1" stroke-width="0.9301" stroke-miterlimit="10"/>
<path d="M2600.36 301.274C2443.44 239.665 1979.52 734.817 1756.13 699.941C1532.74 665.066 1571.37 42.0212 1323.42 99.2206C1051.08 162.044 916.61 833.409 334.558 815.885C-38.2828 804.957 -188.374 87.3683 -301.11 -79.4508" stroke="white" stroke-opacity="0.1" stroke-width="0.9371" stroke-miterlimit="10"/>
<path d="M2599.93 291.505C2439.18 228.396 1968.49 730.643 1744.85 704.267C1521.19 677.853 1565.76 34.2886 1317.22 87.2402C1043.55 145.534 908.809 846.514 323.598 827.85C-50.6588 816.12 -195.176 67.1974 -300.058 -96.6264" stroke="white" stroke-opacity="0.1" stroke-width="0.9442" stroke-miterlimit="10"/>
<path d="M2599.48 281.7C2434.89 217.089 1957.46 726.441 1733.55 708.527C1509.64 690.641 1560.14 26.5559 1311.05 75.2397C1036.06 128.975 901.037 859.629 312.675 839.795C-63.0432 827.311 -201.998 46.989 -298.997 -113.831" stroke="white" stroke-opacity="0.1" stroke-width="0.9512" stroke-miterlimit="10"/>
<path d="M2599.03 271.894C2430.64 205.792 1946.43 722.239 1722.24 712.844C1498.09 703.428 1554.47 18.3983 1304.84 63.2591C1028.47 111.945 893.236 872.734 301.715 851.76C-75.4278 838.502 -208.8 26.8179 -297.973 -131.015" stroke="white" stroke-opacity="0.1" stroke-width="0.9583" stroke-miterlimit="10"/>
<path d="M2598.6 262.125C2426.35 194.486 1935.4 718.065 1710.97 717.141C1486.53 716.216 1548.93 10.8437 1298.64 51.25C1021.02 95.5548 885.463 885.849 290.764 863.696C-87.8036 849.664 -215.631 6.63831 -296.92 -148.191" stroke="white" stroke-opacity="0.1" stroke-width="0.9653" stroke-miterlimit="10"/>
<path d="M2598.15 252.319C2422.07 183.179 1924.35 713.854 1699.66 721.429C1474.98 729.004 1543.39 3.28896 1292.44 39.2408C1013.57 79.1937 877.671 898.926 279.812 875.632C-100.188 860.855 -222.425 -13.5614 -295.888 -165.404" stroke="white" stroke-opacity="0.1" stroke-width="0.9724" stroke-miterlimit="10"/>
<path d="M-578.85 -610.513C-369.283 -706.505 279.571 -86.9617 560.86 -108.173C842.149 -129.385 718.619 -1000.11 1035.39 -964.49C1386.46 -925.902 1610.37 41.3868 2353.74 -27.1616C2827.25 -70.7235 2933.06 -1121.75 3028.41 -1323.59" stroke="white" stroke-opacity="0.1" stroke-width="0.9928" stroke-miterlimit="10"/>
<path d="M-578.94 -619.261C-366.049 -716.781 289.184 -91.2459 571.102 -104.938C853.02 -118.629 723.171 -1007.12 1040.31 -975.485C1392.24 -940.822 1617.92 52.6218 2364.01 -17.0951C2838.75 -61.4059 2938.06 -1140.03 3026.58 -1338.81" stroke="white" stroke-opacity="0.1" stroke-width="0.9979" stroke-miterlimit="10"/>
<path d="M-579 -627.979C-362.785 -727.027 298.797 -95.5002 581.373 -101.672C863.95 -107.844 727.783 -1014.1 1045.28 -986.451C1398.11 -955.712 1625.52 63.8871 2374.37 -6.99827C2850.34 -52.0581 2943.18 -1158.3 3024.84 -1354" stroke="white" stroke-opacity="0.1" stroke-width="1.0031" stroke-miterlimit="10"/>
<line x1="180.75" y1="0.00756836" x2="180.75" y2="-1062" stroke="url(#paint1_linear_1_11)" stroke-opacity="0.5" stroke-width="2.5"/>
<line x1="180.25" y1="764" x2="180.25" y2="-14.0004" stroke="url(#paint2_linear_1_11)" stroke-opacity="0.5" stroke-width="2.5"/>
<line x1="178.75" y1="1748" x2="178.75" y2="763.999" stroke="url(#paint3_linear_1_11)" stroke-opacity="0.5" stroke-width="2.5"/>
<path d="M133.875 542.25C136.642 542.25 138.642 542.967 139.875 544.4C141.125 545.817 141.75 548.1 141.75 551.25C141.75 554.4 141.125 556.692 139.875 558.125C138.642 559.542 136.642 560.25 133.875 560.25C131.125 560.25 129.125 559.542 127.875 558.125C126.625 556.692 126 554.4 126 551.25C126 548.1 126.625 545.817 127.875 544.4C129.125 542.967 131.125 542.25 133.875 542.25ZM129.75 551.25C129.75 553.15 130.083 554.542 130.75 555.425C131.417 556.308 132.458 556.75 133.875 556.75C135.342 556.75 136.392 556.317 137.025 555.45C137.675 554.583 138 553.183 138 551.25C138 549.3 137.675 547.9 137.025 547.05C136.392 546.183 135.342 545.75 133.875 545.75C132.458 545.75 131.417 546.192 130.75 547.075C130.083 547.942 129.75 549.333 129.75 551.25ZM143.374 553.25L151.024 542.5H156.749V553.25H159.249V556.75H156.749V560H152.999V556.75H143.374V553.25ZM147.624 553.25H152.999V545.65L147.624 553.25Z" fill="url(#paint4_linear_1_11)" fill-opacity="0.5"/>
<path d="M133.875 605.25C136.642 605.25 138.642 605.967 139.875 607.4C141.125 608.817 141.75 611.1 141.75 614.25C141.75 617.4 141.125 619.692 139.875 621.125C138.642 622.542 136.642 623.25 133.875 623.25C131.125 623.25 129.125 622.542 127.875 621.125C126.625 619.692 126 617.4 126 614.25C126 611.1 126.625 608.817 127.875 607.4C129.125 605.967 131.125 605.25 133.875 605.25ZM129.75 614.25C129.75 616.15 130.083 617.542 130.75 618.425C131.417 619.308 132.458 619.75 133.875 619.75C135.342 619.75 136.392 619.317 137.025 618.45C137.675 617.583 138 616.183 138 614.25C138 612.3 137.675 610.9 137.025 610.05C136.392 609.183 135.342 608.75 133.875 608.75C132.458 608.75 131.417 609.192 130.75 610.075C130.083 610.942 129.75 612.333 129.75 614.25ZM143.749 617.675H147.499C147.499 619.058 148.666 619.75 150.999 619.75C152.282 619.75 153.224 619.55 153.824 619.15C154.441 618.75 154.749 618.117 154.749 617.25C154.749 616.367 154.416 615.725 153.749 615.325C153.099 614.908 152.049 614.7 150.599 614.7C148.799 614.7 147.899 615.033 147.899 615.7H144.399V605.5H157.149V609.25H147.899V612.05C148.782 611.483 150.107 611.2 151.874 611.2C154.141 611.2 155.807 611.683 156.874 612.65C157.957 613.6 158.499 615.092 158.499 617.125C158.499 619.275 157.899 620.833 156.699 621.8C155.499 622.767 153.591 623.25 150.974 623.25C148.441 623.25 146.599 622.808 145.449 621.925C144.316 621.042 143.749 619.625 143.749 617.675Z" fill="url(#paint5_linear_1_11)" fill-opacity="0.5"/>
<rect x="171" y="595" width="18" height="37" rx="9" fill="url(#paint6_linear_1_11)"/>
<rect x="167.75" y="591.75" width="24.5" height="43.5" rx="12.25" stroke="url(#paint7_linear_1_11)" stroke-width="1.5"/>
<path d="M171 540C171 535.029 175.029 531 180 531C184.971 531 189 535.029 189 540V559C189 563.971 184.971 568 180 568C175.029 568 171 563.971 171 559V540Z" fill="url(#paint8_linear_1_11)"/>
<rect x="167.75" y="527.75" width="24.5" height="43.5" rx="12.25" stroke="url(#paint9_linear_1_11)" stroke-width="1.5"/>
<rect x="171" y="146" width="18" height="37" rx="9" fill="url(#paint10_linear_1_11)"/>
<rect x="167.75" y="142.75" width="24.5" height="43.5" rx="12.25" stroke="url(#paint11_linear_1_11)" stroke-width="1.5"/>
</g>
<defs>
<linearGradient id="paint0_linear_1_11" x1="128.218" y1="167.754" x2="181.921" y2="168.843" gradientUnits="userSpaceOnUse">
<stop stop-color="#7258FE"/>
<stop offset="1" stop-color="#2EECC5"/>
</linearGradient>
<linearGradient id="paint1_linear_1_11" x1="182" y1="-1062" x2="182" y2="0.00756836" gradientUnits="userSpaceOnUse">
<stop stop-color="#7258FE" stop-opacity="0"/>
<stop offset="0.43693" stop-color="#2EECC5"/>
<stop offset="0.921875" stop-color="#7258FE" stop-opacity="0.138748"/>
<stop offset="1" stop-color="#FFB1B1" stop-opacity="0"/>
</linearGradient>
<linearGradient id="paint2_linear_1_11" x1="181.5" y1="-14.0004" x2="181.5" y2="764" gradientUnits="userSpaceOnUse">
<stop stop-color="#7258FE" stop-opacity="0"/>
<stop offset="0.43693" stop-color="#2EECC5"/>
<stop offset="0.921875" stop-color="#7258FE" stop-opacity="0.138748"/>
<stop offset="1" stop-color="#FFB1B1" stop-opacity="0"/>
</linearGradient>
<linearGradient id="paint3_linear_1_11" x1="180" y1="763.999" x2="180" y2="1748" gradientUnits="userSpaceOnUse">
<stop stop-color="#7258FE" stop-opacity="0"/>
<stop offset="0.43693" stop-color="#2EECC5"/>
<stop offset="0.921875" stop-color="#7258FE" stop-opacity="0.138748"/>
<stop offset="1" stop-color="#FFB1B1" stop-opacity="0"/>
</linearGradient>
<linearGradient id="paint4_linear_1_11" x1="128.313" y1="553.754" x2="183.593" y2="554.908" gradientUnits="userSpaceOnUse">
<stop stop-color="#7258FE"/>
<stop offset="1" stop-color="#2EECC5"/>
</linearGradient>
<linearGradient id="paint5_linear_1_11" x1="128.313" y1="616.754" x2="183.593" y2="617.908" gradientUnits="userSpaceOnUse">
<stop stop-color="#7258FE"/>
<stop offset="1" stop-color="#2EECC5"/>
</linearGradient>
<linearGradient id="paint6_linear_1_11" x1="180" y1="595" x2="180" y2="632" gradientUnits="userSpaceOnUse">
<stop stop-color="#7258FE"/>
<stop offset="1" stop-color="#0A3028"/>
</linearGradient>
<linearGradient id="paint7_linear_1_11" x1="180" y1="591" x2="180" y2="636" gradientUnits="userSpaceOnUse">
<stop stop-color="#7258FE"/>
<stop offset="1" stop-color="#123730"/>
</linearGradient>
<linearGradient id="paint8_linear_1_11" x1="180" y1="531" x2="180" y2="568" gradientUnits="userSpaceOnUse">
<stop stop-color="#7258FE"/>
<stop offset="1" stop-color="#0A3028"/>
</linearGradient>
<linearGradient id="paint9_linear_1_11" x1="180" y1="527" x2="180" y2="572" gradientUnits="userSpaceOnUse">
<stop stop-color="#7258FE"/>
<stop offset="1" stop-color="#123730"/>
</linearGradient>
<linearGradient id="paint10_linear_1_11" x1="180" y1="146" x2="180" y2="183" gradientUnits="userSpaceOnUse">
<stop stop-color="#7258FE"/>
<stop offset="1" stop-color="#22A98D"/>
</linearGradient>
<linearGradient id="paint11_linear_1_11" x1="180" y1="142" x2="180" y2="187" gradientUnits="userSpaceOnUse">
<stop stop-color="#7258FE"/>
<stop offset="1" stop-color="#B0FBEC"/>
</linearGradient>
<clipPath id="clip0_1_11">
<rect width="1920" height="4905" fill="white" transform="translate(0 -2124)"/>
</clipPath>
</defs>
</svg>
