<svg width="1920" height="949" viewBox="0 0 1920 949" fill="none" xmlns="http://www.w3.org/2000/svg">
<g clip-path="url(#clip0_1_11)">
<rect width="1920" height="4905" transform="translate(0 -2888)" fill="#161617"/>
<path d="M-343.886 -138.731C90.915 151.032 469.462 -417.285 783.557 -437.974C1236.22 -467.776 1356.62 67.6471 1577.63 -172.859C1798.63 -413.366 2006.6 -623.195 2219.21 -240.176C2431.82 142.843 2618.53 -61.1017 2618.53 -61.1017" stroke="white" stroke-opacity="0.1" stroke-width="0.6482" stroke-miterlimit="10"/>
<path d="M2618.11 -70.9277C2614.28 -72.4282 2420.83 138.621 2207.95 -235.908C1995.06 -610.436 1793.1 -420.949 1571.47 -184.889C1349.21 51.2658 1228.43 -454.699 772.643 -426.058C457.086 -406.123 84.1127 130.861 -342.862 -155.915" stroke="white" stroke-opacity="0.1" stroke-width="0.6553" stroke-miterlimit="10"/>
<path d="M2617.65 -80.7048C2609.99 -83.7057 2409.77 134.439 2196.63 -231.591C1983.5 -597.62 1787.55 -428.475 1565.26 -196.869C1341.75 34.9334 1220.62 -441.593 761.683 -414.093C444.701 -394.932 77.2906 110.652 -341.81 -173.091" stroke="white" stroke-opacity="0.1" stroke-width="0.6623" stroke-miterlimit="10"/>
<path d="M2617.23 -90.5021C2605.73 -95.0034 2398.77 130.245 2185.36 -227.294C1971.94 -584.832 1782.01 -436.03 1559.05 -208.85C1334.26 18.5922 1212.82 -428.459 750.723 -402.128C432.325 -383.769 70.4882 90.4813 -340.777 -190.304" stroke="white" stroke-opacity="0.1" stroke-width="0.6694" stroke-miterlimit="10"/>
<path d="M2616.78 -100.308C2601.48 -106.301 2387.72 126.035 2174.06 -223.005C1960.39 -572.045 1776.97 -443.059 1552.85 -220.859C1327.31 2.72822 1205.05 -415.373 739.763 -390.163C419.941 -372.578 63.6574 70.3016 -339.725 -207.479" stroke="white" stroke-opacity="0.1" stroke-width="0.6764" stroke-miterlimit="10"/>
<path d="M2616.32 -110.085C2597.19 -117.607 2376.69 121.861 2162.74 -218.688C1948.84 -559.257 1771.52 -450.493 1546.64 -232.839C1319.97 -13.4751 1197.24 -402.239 728.811 -378.227C407.565 -361.416 56.8638 50.1018 -338.672 -224.655" stroke="white" stroke-opacity="0.1" stroke-width="0.6835" stroke-miterlimit="10"/>
<path d="M2615.9 -119.882C2592.94 -128.905 2365.66 117.659 2151.47 -214.391C1937.29 -546.47 1766.09 -457.918 1540.44 -244.848C1312.61 -29.7154 1189.45 -389.162 717.859 -366.29C395.181 -350.225 50.0329 29.9223 -337.64 -241.868" stroke="white" stroke-opacity="0.1" stroke-width="0.6905" stroke-miterlimit="10"/>
<path d="M2615.44 -129.688C2588.65 -140.211 2354.64 113.457 2140.18 -210.131C1925.72 -533.719 1760.64 -465.353 1534.25 -256.858C1305.25 -45.956 1181.65 -376.056 706.908 -354.354C382.796 -339.034 43.2395 9.72258 -336.588 -259.043" stroke="white" stroke-opacity="0.1" stroke-width="0.6976" stroke-miterlimit="10"/>
<path d="M2614.99 -139.494C2584.37 -151.518 2343.58 109.246 2128.87 -205.843C1914.15 -520.903 1755.16 -472.795 1528.04 -268.838C1297.88 -62.1678 1173.85 -362.95 695.948 -342.389C370.391 -327.88 36.4085 -10.4571 -335.564 -276.228" stroke="white" stroke-opacity="0.1" stroke-width="0.7046" stroke-miterlimit="10"/>
<path d="M2614.56 -149.263C2580.1 -162.787 2332.58 105.081 2117.59 -201.517C1902.6 -508.115 1749.7 -480.201 1521.84 -280.847C1290.51 -78.4084 1166.06 -349.873 684.996 -330.453C358.007 -316.689 29.6148 -30.6568 -334.503 -293.432" stroke="white" stroke-opacity="0.1" stroke-width="0.7117" stroke-miterlimit="10"/>
<path d="M2614.11 -159.069C2575.82 -174.093 2321.52 100.87 2106.29 -197.229C1891.05 -495.328 1744.22 -487.643 1515.64 -292.857C1283.12 -94.6576 1158.25 -336.768 674.065 -318.479C345.66 -305.518 22.8126 -50.8278 -333.45 -310.608" stroke="white" stroke-opacity="0.1" stroke-width="0.7187" stroke-miterlimit="10"/>
<path d="M2613.66 -168.874C2571.56 -185.391 2310.5 96.6679 2094.98 -192.94C1879.5 -482.54 1738.74 -495.086 1509.43 -304.837C1275.73 -110.907 1150.48 -323.653 663.113 -306.543C333.247 -294.336 15.9818 -71.0075 -332.426 -327.792" stroke="white" stroke-opacity="0.1" stroke-width="0.7257" stroke-miterlimit="10"/>
<path d="M2613.24 -178.672C2567.31 -196.688 2299.47 92.4657 2083.71 -188.643C1867.94 -469.753 1733.23 -502.538 1503.23 -316.846C1268.31 -127.165 1142.65 -310.556 652.133 -294.616C320.871 -283.174 9.18823 -91.2071 -331.365 -344.996" stroke="white" stroke-opacity="0.1" stroke-width="0.7328" stroke-miterlimit="10"/>
<path d="M2612.78 -188.449C2563.03 -207.995 2288.44 88.2922 2072.4 -184.326C1856.35 -456.945 1727.72 -509.989 1497.03 -328.827C1260.91 -143.385 1134.85 -297.451 641.173 -282.651C308.486 -271.983 2.35734 -111.387 -330.342 -362.18" stroke="white" stroke-opacity="0.1" stroke-width="0.7398" stroke-miterlimit="10"/>
<path d="M2612.35 -198.246C2558.77 -219.292 2277.41 84.0901 2061.12 -180.029C1844.81 -444.186 1722.21 -517.44 1490.86 -340.827C1253.53 -159.663 1127.11 -284.328 630.25 -270.706C296.11 -260.82 -4.43626 -131.587 -329.289 -379.356" stroke="white" stroke-opacity="0.1" stroke-width="0.7469" stroke-miterlimit="10"/>
<path d="M2611.9 -208.052C2554.49 -230.598 2266.38 79.9165 2049.82 -175.741C1833.26 -431.398 1716.71 -524.92 1484.66 -352.836C1246.08 -175.929 1119.28 -271.231 619.29 -258.741C283.726 -249.63 -11.2671 -151.766 -328.228 -396.56" stroke="white" stroke-opacity="0.1" stroke-width="0.7539" stroke-miterlimit="10"/>
<path d="M2611.44 -217.829C2550.19 -241.876 2255.32 75.7343 2038.52 -171.453C1821.71 -418.639 1711.17 -532.38 1478.45 -364.817C1238.66 -192.187 1111.51 -258.116 608.367 -246.796C271.35 -238.467 -18.032 -171.957 -327.175 -413.736" stroke="white" stroke-opacity="0.1" stroke-width="0.761" stroke-miterlimit="10"/>
<path d="M2611.02 -227.626C2545.94 -253.174 2244.29 71.5321 2027.24 -167.155C1810.15 -405.823 1705.67 -539.86 1472.25 -376.826C1231.21 -208.454 1103.71 -245.039 597.415 -234.86C258.937 -227.285 -24.8916 -192.146 -326.152 -430.92" stroke="white" stroke-opacity="0.1" stroke-width="0.768" stroke-miterlimit="10"/>
<path d="M2610.57 -237.432C2541.65 -264.48 2233.27 67.3298 2015.94 -162.867C1798.6 -393.035 1700.1 -547.329 1466.05 -388.835C1223.77 -224.749 1095.91 -231.934 586.464 -222.924C246.589 -216.114 -31.6851 -212.345 -325.091 -448.124" stroke="white" stroke-opacity="0.1" stroke-width="0.7751" stroke-miterlimit="10"/>
<path d="M2610.12 -247.238C2537.4 -275.778 2222.21 63.119 2004.63 -158.579C1787.03 -380.285 1694.54 -554.826 1459.85 -400.844C1216.31 -241.053 1088.12 -218.856 575.512 -210.987C234.185 -204.96 -38.4788 -232.545 -324.058 -465.337" stroke="white" stroke-opacity="0.1" stroke-width="0.7821" stroke-miterlimit="10"/>
<path d="M2609.68 -257.007C2533.13 -287.047 2211.21 58.9542 1993.35 -154.253C1775.47 -367.469 1688.99 -562.324 1453.64 -412.825C1208.83 -257.328 1080.31 -205.722 564.544 -198.994C221.792 -193.741 -45.3183 -252.696 -323.014 -482.484" stroke="white" stroke-opacity="0.1" stroke-width="0.7892" stroke-miterlimit="10"/>
<path d="M2609.23 -266.813C2528.86 -298.382 2200.15 54.7432 1982.05 -149.965C1763.91 -354.681 1683.43 -569.821 1447.44 -424.805C1201.36 -273.632 1072.51 -192.616 553.592 -187.058C209.416 -182.578 -52.1406 -272.904 -321.991 -499.669" stroke="white" stroke-opacity="0.1" stroke-width="0.7962" stroke-miterlimit="10"/>
<path d="M2608.78 -276.618C2524.6 -309.651 2189.13 50.5411 1970.74 -145.676C1752.36 -341.893 1677.87 -577.318 1441.24 -436.815C1193.89 -289.935 1064.72 -179.539 542.64 -175.121C197.04 -171.416 -58.9428 -293.075 -320.929 -516.873" stroke="white" stroke-opacity="0.1" stroke-width="0.8033" stroke-miterlimit="10"/>
<path d="M2608.35 -286.387C2520.31 -320.957 2178.09 46.3676 1959.43 -141.359C1740.78 -329.114 1672.29 -584.853 1435.04 -448.824C1186.4 -306.276 1056.92 -166.434 531.689 -163.185C184.636 -160.262 -65.7649 -313.284 -319.897 -534.086" stroke="white" stroke-opacity="0.1" stroke-width="0.8103" stroke-miterlimit="10"/>
<path d="M2607.9 -296.193C2516.03 -332.263 2167.07 42.1654 1948.13 -137.071C1729.23 -316.327 1666.7 -592.359 1428.83 -460.804C1178.91 -322.589 1049.14 -153.319 520.729 -151.22C172.242 -149.043 -72.5673 -333.455 -318.845 -551.261" stroke="white" stroke-opacity="0.1" stroke-width="0.8173" stroke-miterlimit="10"/>
<path d="M2607.48 -305.99C2511.77 -343.561 2156.04 37.9632 1936.86 -132.802C1717.68 -303.539 1661.13 -599.894 1422.63 -472.813C1171.42 -338.93 1041.34 -140.214 509.777 -139.284C159.866 -137.88 -79.3694 -353.625 -317.792 -568.437" stroke="white" stroke-opacity="0.1" stroke-width="0.8244" stroke-miterlimit="10"/>
<path d="M2607.03 -315.796C2507.49 -354.867 2145.02 33.7609 1925.55 -128.485C1706.12 -290.752 1655.53 -607.466 1416.42 -484.794C1163.92 -355.243 1033.54 -127.108 498.817 -127.319C147.482 -126.689 -86.2003 -373.805 -316.768 -585.621" stroke="white" stroke-opacity="0.1" stroke-width="0.8314" stroke-miterlimit="10"/>
<path d="M2606.57 -325.573C2503.22 -366.136 2133.96 29.5789 1914.25 -124.197C1694.57 -277.964 1649.92 -615.009 1410.23 -496.803C1156.41 -371.621 1025.74 -114.002 487.866 -115.383C135.077 -115.536 -93.0226 -394.014 -315.736 -602.834" stroke="white" stroke-opacity="0.1" stroke-width="0.8385" stroke-miterlimit="10"/>
<path d="M2606.14 -335.37C2498.98 -377.463 2122.93 25.3766 1902.97 -119.9C1683.02 -265.176 1644.32 -622.581 1404.05 -508.804C1148.93 -387.991 1017.98 -100.917 476.943 -103.438C122.722 -104.336 -99.8247 -414.185 -314.655 -620.001" stroke="white" stroke-opacity="0.1" stroke-width="0.8455" stroke-miterlimit="10"/>
<path d="M2605.69 -345.176C2494.68 -388.74 2111.9 21.1744 1891.67 -115.611C1671.44 -252.397 1638.73 -630.153 1397.85 -520.784C1141.42 -404.369 1010.17 -87.7823 465.983 -91.4731C110.346 -93.1737 -106.618 -434.384 -313.631 -637.185" stroke="white" stroke-opacity="0.1" stroke-width="0.8526" stroke-miterlimit="10"/>
<path d="M2605.24 -354.982C2490.41 -400.075 2100.88 16.9722 1880.37 -111.323C1659.89 -239.61 1633.11 -637.762 1391.62 -532.802C1133.86 -420.765 1002.35 -74.7139 455.002 -79.5456C97.961 -81.9828 -113.449 -454.564 -312.578 -654.361" stroke="white" stroke-opacity="0.1" stroke-width="0.8596" stroke-miterlimit="10"/>
<path d="M2604.81 -364.751C2486.15 -411.344 2089.85 12.7987 1869.09 -107.026C1648.33 -226.822 1627.52 -645.363 1385.45 -544.802C1126.36 -437.172 994.574 -61.5995 444.071 -67.5719C85.5852 -70.8204 -120.243 -474.764 -311.546 -671.574" stroke="white" stroke-opacity="0.1" stroke-width="0.8667" stroke-miterlimit="10"/>
<path d="M2604.36 -374.556C2481.86 -422.65 2078.79 8.58785 1857.78 -102.709C1636.78 -214.034 1621.89 -652.944 1379.24 -556.783C1118.83 -453.588 986.773 -48.4938 433.119 -55.6358C73.172 -59.6381 -127.074 -494.943 -310.494 -688.75" stroke="white" stroke-opacity="0.1" stroke-width="0.8737" stroke-miterlimit="10"/>
<path d="M2603.91 -384.362C2477.61 -433.948 2067.77 4.38572 1846.48 -98.4205C1625.23 -201.247 1616.28 -660.582 1373.04 -568.792C1111.3 -470.004 978.972 -35.3881 422.159 -43.6708C60.7875 -48.447 -133.867 -515.143 -309.441 -705.925" stroke="white" stroke-opacity="0.1" stroke-width="0.8808" stroke-miterlimit="10"/>
<path d="M2603.47 -394.131C2473.34 -445.217 2056.73 0.212116 1835.2 -94.1235C1613.65 -188.468 1610.67 -668.22 1366.83 -580.773C1103.78 -486.448 971.171 -22.2824 411.208 -31.7346C48.4115 -37.2847 -140.698 -535.323 -308.409 -723.138" stroke="white" stroke-opacity="0.1" stroke-width="0.8878" stroke-miterlimit="10"/>
<path d="M2603.02 -403.937C2469.06 -456.523 2045.71 -3.99001 1823.9 -89.8351C1602.09 -175.68 1605.03 -675.866 1360.64 -592.782C1096.24 -502.93 963.407 -9.19674 400.285 -19.7897C36.0269 -26.0938 -147.5 -555.494 -307.356 -740.314" stroke="white" stroke-opacity="0.1" stroke-width="0.8949" stroke-miterlimit="10"/>
<path d="M2602.57 -413.743C2464.77 -467.83 2034.65 -8.20092 1812.6 -85.5468C1590.54 -162.893 1599.42 -683.504 1354.44 -604.791C1088.73 -519.403 955.606 3.90894 389.333 -7.85353C23.6512 -14.9315 -154.323 -575.702 -306.332 -757.498" stroke="white" stroke-opacity="0.1" stroke-width="0.9019" stroke-miterlimit="10"/>
<path d="M2602.15 -423.54C2460.52 -479.127 2023.66 -12.3944 1801.32 -81.2497C1578.99 -150.105 1593.8 -691.209 1348.24 -616.8C1081.19 -535.885 947.814 16.9859 378.382 4.08269C11.2666 -3.74049 -161.125 -595.873 -305.271 -774.702" stroke="white" stroke-opacity="0.1" stroke-width="0.9089" stroke-miterlimit="10"/>
<path d="M2601.69 -433.317C2456.23 -490.434 2012.59 -16.5766 1790.01 -76.9326C1567.43 -137.289 1588.19 -698.846 1342.03 -628.78C1073.65 -552.367 940.004 30.1203 367.422 16.0476C-1.10916 7.42181 -167.918 -616.073 -304.219 -791.878" stroke="white" stroke-opacity="0.1" stroke-width="0.916" stroke-miterlimit="10"/>
<path d="M2601.27 -443.114C2451.98 -501.731 2001.57 -20.7787 1778.71 -72.6442C1555.85 -124.51 1582.57 -706.551 1335.82 -640.761C1066.11 -568.849 932.203 43.2261 356.461 28.0125C-13.4938 18.6129 -174.749 -636.252 -303.195 -809.062" stroke="white" stroke-opacity="0.1" stroke-width="0.923" stroke-miterlimit="10"/>
<path d="M2600.82 -452.92C2447.72 -513.029 1990.54 -24.9809 1767.43 -68.3471C1544.32 -111.713 1576.98 -714.246 1329.65 -652.762C1058.62 -585.379 924.431 56.3404 345.539 39.9574C-25.8983 29.7665 -181.551 -656.423 -302.134 -826.267" stroke="white" stroke-opacity="0.1" stroke-width="0.9301" stroke-miterlimit="10"/>
<path d="M2600.36 -462.726C2443.44 -524.335 1979.52 -29.1833 1756.13 -64.0589C1532.74 -98.9344 1571.37 -721.979 1323.42 -664.779C1051.08 -601.956 916.61 69.4088 334.558 51.885C-38.2828 40.9575 -188.374 -676.632 -301.11 -843.451" stroke="white" stroke-opacity="0.1" stroke-width="0.9371" stroke-miterlimit="10"/>
<path d="M2599.93 -472.495C2439.18 -535.604 1968.49 -33.3568 1744.85 -59.7331C1521.19 -86.1468 1565.76 -729.711 1317.22 -676.76C1043.55 -618.466 908.809 82.5145 323.598 63.8499C-50.6588 52.1198 -195.176 -696.803 -300.058 -860.626" stroke="white" stroke-opacity="0.1" stroke-width="0.9442" stroke-miterlimit="10"/>
<path d="M2599.48 -482.3C2434.89 -546.911 1957.46 -37.559 1733.55 -55.4734C1509.64 -73.3592 1560.14 -737.444 1311.05 -688.76C1036.06 -635.025 901.037 95.6287 312.675 75.7947C-63.0432 63.3107 -201.998 -717.011 -298.997 -877.831" stroke="white" stroke-opacity="0.1" stroke-width="0.9512" stroke-miterlimit="10"/>
<path d="M2599.03 -492.106C2430.64 -558.208 1946.43 -41.7612 1722.24 -51.1563C1498.09 -60.5715 1554.47 -745.602 1304.84 -700.741C1028.47 -652.055 893.236 108.734 301.715 87.7596C-75.4278 74.5017 -208.8 -737.182 -297.973 -895.015" stroke="white" stroke-opacity="0.1" stroke-width="0.9583" stroke-miterlimit="10"/>
<path d="M2598.6 -501.875C2426.35 -569.514 1935.4 -45.9347 1710.97 -46.8592C1486.53 -47.7838 1548.93 -753.156 1298.64 -712.75C1021.02 -668.445 885.463 121.849 290.764 99.6958C-87.8036 85.6641 -215.631 -757.362 -296.92 -912.191" stroke="white" stroke-opacity="0.1" stroke-width="0.9653" stroke-miterlimit="10"/>
<path d="M2598.15 -511.681C2422.07 -580.821 1924.35 -50.1456 1699.66 -42.5709C1474.98 -34.9963 1543.39 -760.711 1292.44 -724.759C1013.57 -684.806 877.671 134.926 279.812 111.632C-100.188 96.8549 -222.425 -777.561 -295.888 -929.404" stroke="white" stroke-opacity="0.1" stroke-width="0.9724" stroke-miterlimit="10"/>
<line x1="180.25" y1="0.000244141" x2="180.25" y2="-778" stroke="url(#paint0_linear_1_11)" stroke-opacity="0.5" stroke-width="2.5"/>
<line x1="178.75" y1="984.001" x2="178.75" y2="-0.000976562" stroke="url(#paint1_linear_1_11)" stroke-opacity="0.5" stroke-width="2.5"/>
<path d="M133.875 107.25C136.642 107.25 138.642 107.967 139.875 109.4C141.125 110.817 141.75 113.1 141.75 116.25C141.75 119.4 141.125 121.692 139.875 123.125C138.642 124.542 136.642 125.25 133.875 125.25C131.125 125.25 129.125 124.542 127.875 123.125C126.625 121.692 126 119.4 126 116.25C126 113.1 126.625 110.817 127.875 109.4C129.125 107.967 131.125 107.25 133.875 107.25ZM129.75 116.25C129.75 118.15 130.083 119.542 130.75 120.425C131.417 121.308 132.458 121.75 133.875 121.75C135.342 121.75 136.392 121.317 137.025 120.45C137.675 119.583 138 118.183 138 116.25C138 114.3 137.675 112.9 137.025 112.05C136.392 111.183 135.342 110.75 133.875 110.75C132.458 110.75 131.417 111.192 130.75 112.075C130.083 112.942 129.75 114.333 129.75 116.25ZM143.374 118.25L151.024 107.5H156.749V118.25H159.249V121.75H156.749V125H152.999V121.75H143.374V118.25ZM147.624 118.25H152.999V110.65L147.624 118.25Z" fill="url(#paint2_linear_1_11)"/>
<path d="M133.875 637.25C136.642 637.25 138.642 637.967 139.875 639.4C141.125 640.817 141.75 643.1 141.75 646.25C141.75 649.4 141.125 651.692 139.875 653.125C138.642 654.542 136.642 655.25 133.875 655.25C131.125 655.25 129.125 654.542 127.875 653.125C126.625 651.692 126 649.4 126 646.25C126 643.1 126.625 640.817 127.875 639.4C129.125 637.967 131.125 637.25 133.875 637.25ZM129.75 646.25C129.75 648.15 130.083 649.542 130.75 650.425C131.417 651.308 132.458 651.75 133.875 651.75C135.342 651.75 136.392 651.317 137.025 650.45C137.675 649.583 138 648.183 138 646.25C138 644.3 137.675 642.9 137.025 642.05C136.392 641.183 135.342 640.75 133.875 640.75C132.458 640.75 131.417 641.192 130.75 642.075C130.083 642.942 129.75 644.333 129.75 646.25ZM143.749 649.675H147.499C147.499 651.058 148.666 651.75 150.999 651.75C152.282 651.75 153.224 651.55 153.824 651.15C154.441 650.75 154.749 650.117 154.749 649.25C154.749 648.367 154.416 647.725 153.749 647.325C153.099 646.908 152.049 646.7 150.599 646.7C148.799 646.7 147.899 647.033 147.899 647.7H144.399V637.5H157.149V641.25H147.899V644.05C148.782 643.483 150.107 643.2 151.874 643.2C154.141 643.2 155.807 643.683 156.874 644.65C157.957 645.6 158.499 647.092 158.499 649.125C158.499 651.275 157.899 652.833 156.699 653.8C155.499 654.767 153.591 655.25 150.974 655.25C148.441 655.25 146.599 654.808 145.449 653.925C144.316 653.042 143.749 651.625 143.749 649.675Z" fill="url(#paint3_linear_1_11)" fill-opacity="0.5"/>
<rect x="170" y="627" width="18" height="37" rx="9" fill="url(#paint4_linear_1_11)"/>
<rect x="166.75" y="623.75" width="24.5" height="43.5" rx="12.25" stroke="url(#paint5_linear_1_11)" stroke-width="1.5"/>
<rect x="171" y="99" width="18" height="37" rx="9" fill="url(#paint6_linear_1_11)"/>
<rect x="167.75" y="95.75" width="24.5" height="43.5" rx="12.25" stroke="url(#paint7_linear_1_11)" stroke-width="1.5"/>
</g>
<defs>
<linearGradient id="paint0_linear_1_11" x1="181.5" y1="-778" x2="181.5" y2="0.000244141" gradientUnits="userSpaceOnUse">
<stop stop-color="#7258FE" stop-opacity="0"/>
<stop offset="0.43693" stop-color="#2EECC5"/>
<stop offset="0.921875" stop-color="#7258FE" stop-opacity="0.138748"/>
<stop offset="1" stop-color="#FFB1B1" stop-opacity="0"/>
</linearGradient>
<linearGradient id="paint1_linear_1_11" x1="180" y1="-0.000976563" x2="180" y2="984.001" gradientUnits="userSpaceOnUse">
<stop stop-color="#7258FE" stop-opacity="0"/>
<stop offset="0.43693" stop-color="#2EECC5"/>
<stop offset="0.921875" stop-color="#7258FE" stop-opacity="0.138748"/>
<stop offset="1" stop-color="#FFB1B1" stop-opacity="0"/>
</linearGradient>
<linearGradient id="paint2_linear_1_11" x1="128.313" y1="118.754" x2="183.593" y2="119.908" gradientUnits="userSpaceOnUse">
<stop stop-color="#7258FE"/>
<stop offset="1" stop-color="#2EECC5"/>
</linearGradient>
<linearGradient id="paint3_linear_1_11" x1="128.313" y1="648.754" x2="183.593" y2="649.908" gradientUnits="userSpaceOnUse">
<stop stop-color="#B5FEEF"/>
<stop offset="1" stop-color="#2EECC5"/>
</linearGradient>
<linearGradient id="paint4_linear_1_11" x1="179" y1="627" x2="179" y2="664" gradientUnits="userSpaceOnUse">
<stop stop-color="#5D7C76"/>
<stop offset="1" stop-color="#0A3028"/>
</linearGradient>
<linearGradient id="paint5_linear_1_11" x1="179" y1="623" x2="179" y2="668" gradientUnits="userSpaceOnUse">
<stop stop-color="#597872"/>
<stop offset="1" stop-color="#123730"/>
</linearGradient>
<linearGradient id="paint6_linear_1_11" x1="180" y1="99" x2="180" y2="136" gradientUnits="userSpaceOnUse">
<stop stop-color="#7258FE"/>
<stop offset="1" stop-color="#22A98D"/>
</linearGradient>
<linearGradient id="paint7_linear_1_11" x1="180" y1="95" x2="180" y2="140" gradientUnits="userSpaceOnUse">
<stop stop-color="#7258FE"/>
<stop offset="1" stop-color="#B0FBEC"/>
</linearGradient>
<clipPath id="clip0_1_11">
<rect width="1920" height="4905" fill="white" transform="translate(0 -2888)"/>
</clipPath>
</defs>
</svg>
